%FSLAX45Y45*%
G04 Gerber Fmt 4.5, Leading zero omitted, Abs format (unit mm)*
G04 Created by KiCad (PCBNEW (6.0.0)) date 2022-01-24 17:43:45*
%MOMM*%
%LPD*%
G01*
G04 APERTURE LIST*
%TA.AperFunction,Profile*%
%ADD10C,0.100000*%
%TD*%
%ADD11C,0.200000*%
%ADD12C,0.040000*%
%ADD13C,0.080000*%
%ADD14C,0.090000*%
%ADD15C,0.099000*%
%ADD16C,0.100000*%
%ADD17C,0.110000*%
%ADD18C,0.120000*%
%ADD19C,0.130000*%
%ADD20C,0.199000*%
G04 APERTURE END LIST*
D10*
X4991700Y-5428000D02*
X22295450Y-5428000D01*
X22295450Y-5428000D02*
X22295450Y-12787000D01*
X4991700Y-5428000D02*
X4991700Y-12787000D01*
X22295450Y-12787000D02*
X4991700Y-12787000D01*
D11*
D12*
X5800151Y-9234749D02*
X5840151Y-9274749D01*
X5840151Y-9234749D02*
X5800151Y-9274749D01*
X5872800Y-9327200D02*
X5912800Y-9367200D01*
X5912800Y-9327200D02*
X5872800Y-9367200D01*
X6520500Y-8679500D02*
X6560500Y-8719500D01*
X6560500Y-8679500D02*
X6520500Y-8719500D01*
X6711000Y-8704900D02*
X6751000Y-8744900D01*
X6751000Y-8704900D02*
X6711000Y-8744900D01*
X6825300Y-9314500D02*
X6865300Y-9354500D01*
X6865300Y-9314500D02*
X6825300Y-9354500D01*
X7282500Y-6901500D02*
X7322500Y-6941500D01*
X7322500Y-6901500D02*
X7282500Y-6941500D01*
X7516700Y-6680000D02*
X7556700Y-6720000D01*
X7556700Y-6680000D02*
X7516700Y-6720000D01*
X7770700Y-6680000D02*
X7810700Y-6720000D01*
X7810700Y-6680000D02*
X7770700Y-6720000D01*
X8031800Y-6520500D02*
X8071800Y-6560500D01*
X8071800Y-6520500D02*
X8031800Y-6560500D01*
X8532700Y-7670600D02*
X8572700Y-7710600D01*
X8572700Y-7670600D02*
X8532700Y-7710600D01*
X8565200Y-6749100D02*
X8605200Y-6789100D01*
X8605200Y-6749100D02*
X8565200Y-6789100D01*
X8654100Y-7587300D02*
X8694100Y-7627300D01*
X8694100Y-7587300D02*
X8654100Y-7627300D01*
X8654100Y-9314500D02*
X8694100Y-9354500D01*
X8694100Y-9314500D02*
X8654100Y-9354500D01*
X8786700Y-6743500D02*
X8826700Y-6783500D01*
X8826700Y-6743500D02*
X8786700Y-6783500D01*
X8857300Y-9428800D02*
X8897300Y-9468800D01*
X8897300Y-9428800D02*
X8857300Y-9468800D01*
X9035100Y-7536500D02*
X9075100Y-7576500D01*
X9075100Y-7536500D02*
X9035100Y-7576500D01*
X9365300Y-6520500D02*
X9405300Y-6560500D01*
X9405300Y-6520500D02*
X9365300Y-6560500D01*
X9548700Y-7123000D02*
X9588700Y-7163000D01*
X9588700Y-7123000D02*
X9548700Y-7163000D01*
X9733600Y-6304600D02*
X9773600Y-6344600D01*
X9773600Y-6304600D02*
X9733600Y-6344600D01*
X9746300Y-6812600D02*
X9786300Y-6852600D01*
X9786300Y-6812600D02*
X9746300Y-6852600D01*
X9809800Y-7333300D02*
X9849800Y-7373300D01*
X9849800Y-7333300D02*
X9809800Y-7373300D01*
X9822500Y-9670100D02*
X9862500Y-9710100D01*
X9862500Y-9670100D02*
X9822500Y-9710100D01*
X10063800Y-7333300D02*
X10103800Y-7373300D01*
X10103800Y-7333300D02*
X10063800Y-7373300D01*
X10311450Y-7415850D02*
X10351450Y-7455850D01*
X10351450Y-7415850D02*
X10311450Y-7455850D01*
X10495600Y-12464100D02*
X10535600Y-12504100D01*
X10535600Y-12464100D02*
X10495600Y-12504100D01*
X10559100Y-6863400D02*
X10599100Y-6903400D01*
X10599100Y-6863400D02*
X10559100Y-6903400D01*
X10818700Y-7543600D02*
X10858700Y-7583600D01*
X10858700Y-7543600D02*
X10818700Y-7583600D01*
X10940100Y-9416100D02*
X10980100Y-9456100D01*
X10980100Y-9416100D02*
X10940100Y-9456100D01*
X11079800Y-7053900D02*
X11119800Y-7093900D01*
X11119800Y-7053900D02*
X11079800Y-7093900D01*
X11079800Y-7854000D02*
X11119800Y-7894000D01*
X11119800Y-7854000D02*
X11079800Y-7894000D01*
X11092500Y-9593900D02*
X11132500Y-9633900D01*
X11132500Y-9593900D02*
X11092500Y-9633900D01*
X11460800Y-7485700D02*
X11500800Y-7525700D01*
X11500800Y-7485700D02*
X11460800Y-7525700D01*
X11587800Y-9581200D02*
X11627800Y-9621200D01*
X11627800Y-9581200D02*
X11587800Y-9621200D01*
X12070400Y-12502200D02*
X12110400Y-12542200D01*
X12110400Y-12502200D02*
X12070400Y-12542200D01*
X12422449Y-10930951D02*
X12462449Y-10970951D01*
X12462449Y-10930951D02*
X12422449Y-10970951D01*
X12422449Y-12073951D02*
X12462449Y-12113951D01*
X12462449Y-12073951D02*
X12422449Y-12113951D01*
X12794300Y-7041200D02*
X12834300Y-7081200D01*
X12834300Y-7041200D02*
X12794300Y-7081200D01*
X12794300Y-9060500D02*
X12834300Y-9100500D01*
X12834300Y-9060500D02*
X12794300Y-9100500D01*
X12946700Y-9149400D02*
X12986700Y-9189400D01*
X12986700Y-9149400D02*
X12946700Y-9189400D01*
X12959400Y-7130100D02*
X12999400Y-7170100D01*
X12999400Y-7130100D02*
X12959400Y-7170100D01*
X13289600Y-8438200D02*
X13329600Y-8478200D01*
X13329600Y-8438200D02*
X13289600Y-8478200D01*
X13289600Y-9314500D02*
X13329600Y-9354500D01*
X13329600Y-9314500D02*
X13289600Y-9354500D01*
X13467400Y-9416100D02*
X13507400Y-9456100D01*
X13507400Y-9416100D02*
X13467400Y-9456100D01*
X13473750Y-7022150D02*
X13513750Y-7062150D01*
X13513750Y-7022150D02*
X13473750Y-7062150D01*
X13607100Y-9581200D02*
X13647100Y-9621200D01*
X13647100Y-9581200D02*
X13607100Y-9621200D01*
X13632500Y-7079300D02*
X13672500Y-7119300D01*
X13672500Y-7079300D02*
X13632500Y-7119300D01*
X14172200Y-9168500D02*
X14212200Y-9208500D01*
X14212200Y-9168500D02*
X14172200Y-9208500D01*
X14188750Y-9558350D02*
X14228750Y-9598350D01*
X14228750Y-9558350D02*
X14188750Y-9598350D01*
X14191300Y-6812600D02*
X14231300Y-6852600D01*
X14231300Y-6812600D02*
X14191300Y-6852600D01*
X14242100Y-5695000D02*
X14282100Y-5735000D01*
X14282100Y-5695000D02*
X14242100Y-5735000D01*
X14343700Y-5758500D02*
X14383700Y-5798500D01*
X14383700Y-5758500D02*
X14343700Y-5798500D01*
X14343700Y-8260400D02*
X14383700Y-8300400D01*
X14383700Y-8260400D02*
X14343700Y-8300400D01*
X14572300Y-8641400D02*
X14612300Y-8681400D01*
X14612300Y-8641400D02*
X14572300Y-8681400D01*
X14953300Y-9581200D02*
X14993300Y-9621200D01*
X14993300Y-9581200D02*
X14953300Y-9621200D01*
X15093000Y-9124000D02*
X15133000Y-9164000D01*
X15133000Y-9124000D02*
X15093000Y-9164000D01*
X15565500Y-9400800D02*
X15605500Y-9440800D01*
X15605500Y-9400800D02*
X15565500Y-9440800D01*
X15918500Y-8730300D02*
X15958500Y-8770300D01*
X15958500Y-8730300D02*
X15918500Y-8770300D01*
X15956600Y-7193600D02*
X15996600Y-7233600D01*
X15996600Y-7193600D02*
X15956600Y-7233600D01*
X16045500Y-9416100D02*
X16085500Y-9456100D01*
X16085500Y-9416100D02*
X16045500Y-9456100D01*
X16096300Y-8184200D02*
X16136300Y-8224200D01*
X16136300Y-8184200D02*
X16096300Y-8224200D01*
X16096300Y-8882700D02*
X16136300Y-8922700D01*
X16136300Y-8882700D02*
X16096300Y-8922700D01*
X16157704Y-9532496D02*
X16197704Y-9572496D01*
X16197704Y-9532496D02*
X16157704Y-9572496D01*
X16210600Y-5910900D02*
X16250600Y-5950900D01*
X16250600Y-5910900D02*
X16210600Y-5950900D01*
X16248700Y-7320600D02*
X16288700Y-7360600D01*
X16288700Y-7320600D02*
X16248700Y-7360600D01*
X16324900Y-7549200D02*
X16364900Y-7589200D01*
X16364900Y-7549200D02*
X16324900Y-7589200D01*
X16324900Y-8387400D02*
X16364900Y-8427400D01*
X16364900Y-8387400D02*
X16324900Y-8427400D01*
X16477300Y-5898200D02*
X16517300Y-5938200D01*
X16517300Y-5898200D02*
X16477300Y-5938200D01*
X16477300Y-8006400D02*
X16517300Y-8046400D01*
X16517300Y-8006400D02*
X16477300Y-8046400D01*
X16591600Y-7625400D02*
X16631600Y-7665400D01*
X16631600Y-7625400D02*
X16591600Y-7665400D01*
X16591600Y-8527100D02*
X16631600Y-8567100D01*
X16631600Y-8527100D02*
X16591600Y-8567100D01*
X16731300Y-7815900D02*
X16771300Y-7855900D01*
X16771300Y-7815900D02*
X16731300Y-7855900D01*
X16731300Y-8577900D02*
X16771300Y-8617900D01*
X16771300Y-8577900D02*
X16731300Y-8617900D01*
X16756700Y-7333300D02*
X16796700Y-7373300D01*
X16796700Y-7333300D02*
X16756700Y-7373300D01*
X16788500Y-6057000D02*
X16828500Y-6097000D01*
X16828500Y-6057000D02*
X16788500Y-6097000D01*
X16845600Y-7892100D02*
X16885600Y-7932100D01*
X16885600Y-7892100D02*
X16845600Y-7932100D01*
X16845600Y-8603300D02*
X16885600Y-8643300D01*
X16885600Y-8603300D02*
X16845600Y-8643300D01*
X16985300Y-7968300D02*
X17025300Y-8008300D01*
X17025300Y-7968300D02*
X16985300Y-8008300D01*
X16985300Y-9124000D02*
X17025300Y-9164000D01*
X17025300Y-9124000D02*
X16985300Y-9164000D01*
X17112300Y-8082600D02*
X17152300Y-8122600D01*
X17152300Y-8082600D02*
X17112300Y-8122600D01*
X17112300Y-9111300D02*
X17152300Y-9151300D01*
X17152300Y-9111300D02*
X17112300Y-9151300D01*
X17112300Y-9568500D02*
X17152300Y-9608500D01*
X17152300Y-9568500D02*
X17112300Y-9608500D01*
X17366300Y-8692200D02*
X17406300Y-8732200D01*
X17406300Y-8692200D02*
X17366300Y-8732200D01*
X17518700Y-8717600D02*
X17558700Y-8757600D01*
X17558700Y-8717600D02*
X17518700Y-8757600D01*
X17645700Y-8260400D02*
X17685700Y-8300400D01*
X17685700Y-8260400D02*
X17645700Y-8300400D01*
X17798100Y-7485700D02*
X17838100Y-7525700D01*
X17838100Y-7485700D02*
X17798100Y-7525700D01*
X17798100Y-9479600D02*
X17838100Y-9519600D01*
X17838100Y-9479600D02*
X17798100Y-9519600D01*
X17934051Y-8454649D02*
X17974051Y-8494649D01*
X17974051Y-8454649D02*
X17934051Y-8494649D01*
X17937800Y-9339900D02*
X17977800Y-9379900D01*
X17977800Y-9339900D02*
X17937800Y-9379900D01*
X18052100Y-8374700D02*
X18092100Y-8414700D01*
X18092100Y-8374700D02*
X18052100Y-8414700D01*
X18052100Y-9212900D02*
X18092100Y-9252900D01*
X18092100Y-9212900D02*
X18052100Y-9252900D01*
X18280700Y-8044500D02*
X18320700Y-8084500D01*
X18320700Y-8044500D02*
X18280700Y-8084500D01*
X18496600Y-6584000D02*
X18536600Y-6624000D01*
X18536600Y-6584000D02*
X18496600Y-6624000D01*
X18535561Y-6926900D02*
X18575561Y-6966900D01*
X18575561Y-6926900D02*
X18535561Y-6966900D01*
X18560100Y-6799900D02*
X18600100Y-6839900D01*
X18600100Y-6799900D02*
X18560100Y-6839900D01*
X18604600Y-6628400D02*
X18644600Y-6668400D01*
X18644600Y-6628400D02*
X18604600Y-6668400D01*
X18636300Y-6253800D02*
X18676300Y-6293800D01*
X18676300Y-6253800D02*
X18636300Y-6293800D01*
X18661700Y-6914200D02*
X18701700Y-6954200D01*
X18701700Y-6914200D02*
X18661700Y-6954200D01*
X18750600Y-6342700D02*
X18790600Y-6382700D01*
X18790600Y-6342700D02*
X18750600Y-6382700D01*
X18776000Y-5695000D02*
X18816000Y-5735000D01*
X18816000Y-5695000D02*
X18776000Y-5735000D01*
X18814100Y-8260400D02*
X18854100Y-8300400D01*
X18854100Y-8260400D02*
X18814100Y-8300400D01*
X18814100Y-8539800D02*
X18854100Y-8579800D01*
X18854100Y-8539800D02*
X18814100Y-8579800D01*
X18826800Y-5606100D02*
X18866800Y-5646100D01*
X18866800Y-5606100D02*
X18826800Y-5646100D01*
X18858550Y-6437950D02*
X18898550Y-6477950D01*
X18898550Y-6437950D02*
X18858550Y-6477950D01*
X18909300Y-6755400D02*
X18949300Y-6795400D01*
X18949300Y-6755400D02*
X18909300Y-6795400D01*
X19023700Y-6628400D02*
X19063700Y-6668400D01*
X19063700Y-6628400D02*
X19023700Y-6668400D01*
X19353800Y-8025400D02*
X19393800Y-8065400D01*
X19393800Y-8025400D02*
X19353800Y-8065400D01*
X19366600Y-7898400D02*
X19406600Y-7938400D01*
X19406600Y-7898400D02*
X19366600Y-7938400D01*
X19379200Y-7263400D02*
X19419200Y-7303400D01*
X19419200Y-7263400D02*
X19379200Y-7303400D01*
X19379200Y-7517400D02*
X19419200Y-7557400D01*
X19419200Y-7517400D02*
X19379200Y-7557400D01*
X19391900Y-7771400D02*
X19431900Y-7811400D01*
X19431900Y-7771400D02*
X19391900Y-7811400D01*
X19391900Y-8152400D02*
X19431900Y-8192400D01*
X19431900Y-8152400D02*
X19391900Y-8192400D01*
X19417300Y-7390400D02*
X19457300Y-7430400D01*
X19457300Y-7390400D02*
X19417300Y-7430400D01*
X19417300Y-7644400D02*
X19457300Y-7684400D01*
X19457300Y-7644400D02*
X19417300Y-7684400D01*
X19417400Y-7136400D02*
X19457400Y-7176400D01*
X19457400Y-7136400D02*
X19417400Y-7176400D01*
X19423700Y-6977700D02*
X19463700Y-7017700D01*
X19463700Y-6977700D02*
X19423700Y-7017700D01*
X19449100Y-6723700D02*
X19489100Y-6763700D01*
X19489100Y-6723700D02*
X19449100Y-6763700D01*
X19449100Y-6838000D02*
X19489100Y-6878000D01*
X19489100Y-6838000D02*
X19449100Y-6878000D01*
X19461800Y-6609400D02*
X19501800Y-6649400D01*
X19501800Y-6609400D02*
X19461800Y-6649400D01*
X19906300Y-7904800D02*
X19946300Y-7944800D01*
X19946300Y-7904800D02*
X19906300Y-7944800D01*
X19919000Y-8679500D02*
X19959000Y-8719500D01*
X19959000Y-8679500D02*
X19919000Y-8719500D01*
X19957100Y-7180900D02*
X19997100Y-7220900D01*
X19997100Y-7180900D02*
X19957100Y-7220900D01*
X20014300Y-8152400D02*
X20054300Y-8192400D01*
X20054300Y-8152400D02*
X20014300Y-8192400D01*
X20103200Y-7898400D02*
X20143200Y-7938400D01*
X20143200Y-7898400D02*
X20103200Y-7938400D01*
X20147600Y-9289100D02*
X20187600Y-9329100D01*
X20187600Y-9289100D02*
X20147600Y-9329100D01*
X20179400Y-7771400D02*
X20219400Y-7811400D01*
X20219400Y-7771400D02*
X20179400Y-7811400D01*
X20223800Y-9365300D02*
X20263800Y-9405300D01*
X20263800Y-9365300D02*
X20223800Y-9405300D01*
X20261900Y-7498400D02*
X20301900Y-7538400D01*
X20301900Y-7498400D02*
X20261900Y-7538400D01*
X20325400Y-6812600D02*
X20365400Y-6852600D01*
X20365400Y-6812600D02*
X20325400Y-6852600D01*
X20325400Y-9479600D02*
X20365400Y-9519600D01*
X20365400Y-9479600D02*
X20325400Y-9519600D01*
X20369800Y-7644400D02*
X20409800Y-7684400D01*
X20409800Y-7644400D02*
X20369800Y-7684400D01*
X20503200Y-8539800D02*
X20543200Y-8579800D01*
X20543200Y-8539800D02*
X20503200Y-8579800D01*
X20579400Y-10063800D02*
X20619400Y-10103800D01*
X20619400Y-10063800D02*
X20579400Y-10103800D01*
X20604800Y-8844600D02*
X20644800Y-8884600D01*
X20644800Y-8844600D02*
X20604800Y-8884600D01*
X20662000Y-7898400D02*
X20702000Y-7938400D01*
X20702000Y-7898400D02*
X20662000Y-7938400D01*
X20674600Y-8152400D02*
X20714600Y-8192400D01*
X20714600Y-8152400D02*
X20674600Y-8192400D01*
X20674700Y-7771400D02*
X20714700Y-7811400D01*
X20714700Y-7771400D02*
X20674700Y-7811400D01*
X20687300Y-6501400D02*
X20727300Y-6541400D01*
X20727300Y-6501400D02*
X20687300Y-6541400D01*
X20712700Y-6374400D02*
X20752700Y-6414400D01*
X20752700Y-6374400D02*
X20712700Y-6414400D01*
X20712800Y-7644400D02*
X20752800Y-7684400D01*
X20752800Y-7644400D02*
X20712800Y-7684400D01*
X20725500Y-7517400D02*
X20765500Y-7557400D01*
X20765500Y-7517400D02*
X20725500Y-7557400D01*
X21055700Y-6628400D02*
X21095700Y-6668400D01*
X21095700Y-6628400D02*
X21055700Y-6668400D01*
X21055700Y-6755400D02*
X21095700Y-6795400D01*
X21095700Y-6755400D02*
X21055700Y-6795400D01*
X21055700Y-6882400D02*
X21095700Y-6922400D01*
X21095700Y-6882400D02*
X21055700Y-6922400D01*
X21055700Y-7009400D02*
X21095700Y-7049400D01*
X21095700Y-7009400D02*
X21055700Y-7049400D01*
X21055700Y-7136400D02*
X21095700Y-7176400D01*
X21095700Y-7136400D02*
X21055700Y-7176400D01*
X21055700Y-7263400D02*
X21095700Y-7303400D01*
X21095700Y-7263400D02*
X21055700Y-7303400D01*
X21055700Y-7390400D02*
X21095700Y-7430400D01*
X21095700Y-7390400D02*
X21055700Y-7430400D01*
X21106500Y-6501400D02*
X21146500Y-6541400D01*
X21146500Y-6501400D02*
X21106500Y-6541400D01*
X21239800Y-7612700D02*
X21279800Y-7652700D01*
X21279800Y-7612700D02*
X21239800Y-7652700D01*
X21277900Y-8171500D02*
X21317900Y-8211500D01*
X21317900Y-8171500D02*
X21277900Y-8211500D01*
X21328700Y-5707700D02*
X21368700Y-5747700D01*
X21368700Y-5707700D02*
X21328700Y-5747700D01*
X21380150Y-7765750D02*
X21420150Y-7805750D01*
X21420150Y-7765750D02*
X21380150Y-7805750D01*
X21544600Y-6393500D02*
X21584600Y-6433500D01*
X21584600Y-6393500D02*
X21544600Y-6433500D01*
X21633500Y-7003100D02*
X21673500Y-7043100D01*
X21673500Y-7003100D02*
X21633500Y-7043100D01*
X21684300Y-6863400D02*
X21724300Y-6903400D01*
X21724300Y-6863400D02*
X21684300Y-6903400D01*
X21792200Y-6755400D02*
X21832200Y-6795400D01*
X21832200Y-6755400D02*
X21792200Y-6795400D01*
D13*
X14355500Y-9880600D02*
G75*
G03*
X14355500Y-9880600I-40000J0D01*
G01*
X14355500Y-10642600D02*
G75*
G03*
X14355500Y-10642600I-40000J0D01*
G01*
X14609500Y-9880600D02*
G75*
G03*
X14609500Y-9880600I-40000J0D01*
G01*
X14609500Y-10642600D02*
G75*
G03*
X14609500Y-10642600I-40000J0D01*
G01*
X14863500Y-9880600D02*
G75*
G03*
X14863500Y-9880600I-40000J0D01*
G01*
X14863500Y-10642600D02*
G75*
G03*
X14863500Y-10642600I-40000J0D01*
G01*
X15371500Y-9880600D02*
G75*
G03*
X15371500Y-9880600I-40000J0D01*
G01*
X15371500Y-10642600D02*
G75*
G03*
X15371500Y-10642600I-40000J0D01*
G01*
X15625500Y-9880600D02*
G75*
G03*
X15625500Y-9880600I-40000J0D01*
G01*
X15625500Y-10642600D02*
G75*
G03*
X15625500Y-10642600I-40000J0D01*
G01*
X15879500Y-9880600D02*
G75*
G03*
X15879500Y-9880600I-40000J0D01*
G01*
X15879500Y-10642600D02*
G75*
G03*
X15879500Y-10642600I-40000J0D01*
G01*
X16387500Y-9880600D02*
G75*
G03*
X16387500Y-9880600I-40000J0D01*
G01*
X16387500Y-10642600D02*
G75*
G03*
X16387500Y-10642600I-40000J0D01*
G01*
X16641500Y-9880600D02*
G75*
G03*
X16641500Y-9880600I-40000J0D01*
G01*
X16641500Y-10642600D02*
G75*
G03*
X16641500Y-10642600I-40000J0D01*
G01*
X16895500Y-9880600D02*
G75*
G03*
X16895500Y-9880600I-40000J0D01*
G01*
X16895500Y-10642600D02*
G75*
G03*
X16895500Y-10642600I-40000J0D01*
G01*
X17403500Y-9880600D02*
G75*
G03*
X17403500Y-9880600I-40000J0D01*
G01*
X17403500Y-10642600D02*
G75*
G03*
X17403500Y-10642600I-40000J0D01*
G01*
X17657500Y-9880600D02*
G75*
G03*
X17657500Y-9880600I-40000J0D01*
G01*
X17657500Y-10642600D02*
G75*
G03*
X17657500Y-10642600I-40000J0D01*
G01*
X17911500Y-9880600D02*
G75*
G03*
X17911500Y-9880600I-40000J0D01*
G01*
X17911500Y-10642600D02*
G75*
G03*
X17911500Y-10642600I-40000J0D01*
G01*
X18670900Y-12113961D02*
G75*
G03*
X18670900Y-12113961I-40000J0D01*
G01*
X18670900Y-12363961D02*
G75*
G03*
X18670900Y-12363961I-40000J0D01*
G01*
X20784940Y-11125200D02*
G75*
G03*
X20784940Y-11125200I-40000J0D01*
G01*
X21034940Y-11125200D02*
G75*
G03*
X21034940Y-11125200I-40000J0D01*
G01*
X21350600Y-9458611D02*
G75*
G03*
X21350600Y-9458611I-40000J0D01*
G01*
X21350600Y-9658611D02*
G75*
G03*
X21350600Y-9658611I-40000J0D01*
G01*
D14*
X18202000Y-11594700D02*
X18202000Y-11684700D01*
X18157000Y-11639700D02*
X18247000Y-11639700D01*
X18372000Y-11331700D02*
X18372000Y-11421700D01*
X18327000Y-11376700D02*
X18417000Y-11376700D01*
X18542000Y-11594700D02*
X18542000Y-11684700D01*
X18497000Y-11639700D02*
X18587000Y-11639700D01*
X18712000Y-11331700D02*
X18712000Y-11421700D01*
X18667000Y-11376700D02*
X18757000Y-11376700D01*
X18882000Y-11594700D02*
X18882000Y-11684700D01*
X18837000Y-11639700D02*
X18927000Y-11639700D01*
D15*
X15085602Y-6000652D02*
X15085602Y-5930648D01*
X15015598Y-5930648D01*
X15015598Y-6000652D01*
X15085602Y-6000652D01*
X15535602Y-6000652D02*
X15535602Y-5930648D01*
X15465598Y-5930648D01*
X15465598Y-6000652D01*
X15535602Y-6000652D01*
D16*
X6464300Y-6920700D02*
X6514300Y-6870700D01*
X6464300Y-6820700D01*
X6414300Y-6870700D01*
X6464300Y-6920700D01*
X6464300Y-7174700D02*
X6514300Y-7124700D01*
X6464300Y-7074700D01*
X6414300Y-7124700D01*
X6464300Y-7174700D01*
X6464300Y-7428700D02*
X6514300Y-7378700D01*
X6464300Y-7328700D01*
X6414300Y-7378700D01*
X6464300Y-7428700D01*
X6464300Y-7682700D02*
X6514300Y-7632700D01*
X6464300Y-7582700D01*
X6414300Y-7632700D01*
X6464300Y-7682700D01*
X7282700Y-8495000D02*
X7332700Y-8445000D01*
X7282700Y-8395000D01*
X7232700Y-8445000D01*
X7282700Y-8495000D01*
X7536700Y-8495000D02*
X7586700Y-8445000D01*
X7536700Y-8395000D01*
X7486700Y-8445000D01*
X7536700Y-8495000D01*
X7790700Y-8495000D02*
X7840700Y-8445000D01*
X7790700Y-8395000D01*
X7740700Y-8445000D01*
X7790700Y-8495000D01*
X8044700Y-8495000D02*
X8094700Y-8445000D01*
X8044700Y-8395000D01*
X7994700Y-8445000D01*
X8044700Y-8495000D01*
X8298700Y-8495000D02*
X8348700Y-8445000D01*
X8298700Y-8395000D01*
X8248700Y-8445000D01*
X8298700Y-8495000D01*
X8552700Y-8495000D02*
X8602700Y-8445000D01*
X8552700Y-8395000D01*
X8502700Y-8445000D01*
X8552700Y-8495000D01*
X8806700Y-8495000D02*
X8856700Y-8445000D01*
X8806700Y-8395000D01*
X8756700Y-8445000D01*
X8806700Y-8495000D01*
X9060700Y-8495000D02*
X9110700Y-8445000D01*
X9060700Y-8395000D01*
X9010700Y-8445000D01*
X9060700Y-8495000D01*
X9314700Y-8495000D02*
X9364700Y-8445000D01*
X9314700Y-8395000D01*
X9264700Y-8445000D01*
X9314700Y-8495000D01*
X9568700Y-8495000D02*
X9618700Y-8445000D01*
X9568700Y-8395000D01*
X9518700Y-8445000D01*
X9568700Y-8495000D01*
X9822700Y-8495000D02*
X9872700Y-8445000D01*
X9822700Y-8395000D01*
X9772700Y-8445000D01*
X9822700Y-8495000D01*
X10076700Y-8495000D02*
X10126700Y-8445000D01*
X10076700Y-8395000D01*
X10026700Y-8445000D01*
X10076700Y-8495000D01*
X10330700Y-8495000D02*
X10380700Y-8445000D01*
X10330700Y-8395000D01*
X10280700Y-8445000D01*
X10330700Y-8495000D01*
X10584700Y-8495000D02*
X10634700Y-8445000D01*
X10584700Y-8395000D01*
X10534700Y-8445000D01*
X10584700Y-8495000D01*
X10838700Y-8495000D02*
X10888700Y-8445000D01*
X10838700Y-8395000D01*
X10788700Y-8445000D01*
X10838700Y-8495000D01*
X14312900Y-11232200D02*
X14362900Y-11182200D01*
X14312900Y-11132200D01*
X14262900Y-11182200D01*
X14312900Y-11232200D01*
X14566900Y-11232200D02*
X14616900Y-11182200D01*
X14566900Y-11132200D01*
X14516900Y-11182200D01*
X14566900Y-11232200D01*
X14820900Y-11232200D02*
X14870900Y-11182200D01*
X14820900Y-11132200D01*
X14770900Y-11182200D01*
X14820900Y-11232200D01*
X15328900Y-11232200D02*
X15378900Y-11182200D01*
X15328900Y-11132200D01*
X15278900Y-11182200D01*
X15328900Y-11232200D01*
X15582900Y-11232200D02*
X15632900Y-11182200D01*
X15582900Y-11132200D01*
X15532900Y-11182200D01*
X15582900Y-11232200D01*
X15836900Y-11232200D02*
X15886900Y-11182200D01*
X15836900Y-11132200D01*
X15786900Y-11182200D01*
X15836900Y-11232200D01*
X16116800Y-6533200D02*
X16166800Y-6483200D01*
X16116800Y-6433200D01*
X16066800Y-6483200D01*
X16116800Y-6533200D01*
X16116800Y-6787200D02*
X16166800Y-6737200D01*
X16116800Y-6687200D01*
X16066800Y-6737200D01*
X16116800Y-6787200D01*
X16344900Y-11232200D02*
X16394900Y-11182200D01*
X16344900Y-11132200D01*
X16294900Y-11182200D01*
X16344900Y-11232200D01*
X16370800Y-6533200D02*
X16420800Y-6483200D01*
X16370800Y-6433200D01*
X16320800Y-6483200D01*
X16370800Y-6533200D01*
X16370800Y-6787200D02*
X16420800Y-6737200D01*
X16370800Y-6687200D01*
X16320800Y-6737200D01*
X16370800Y-6787200D01*
X16598900Y-11232200D02*
X16648900Y-11182200D01*
X16598900Y-11132200D01*
X16548900Y-11182200D01*
X16598900Y-11232200D01*
X16624800Y-6533200D02*
X16674800Y-6483200D01*
X16624800Y-6433200D01*
X16574800Y-6483200D01*
X16624800Y-6533200D01*
X16624800Y-6787200D02*
X16674800Y-6737200D01*
X16624800Y-6687200D01*
X16574800Y-6737200D01*
X16624800Y-6787200D01*
X16852900Y-11232200D02*
X16902900Y-11182200D01*
X16852900Y-11132200D01*
X16802900Y-11182200D01*
X16852900Y-11232200D01*
X16878800Y-6533200D02*
X16928800Y-6483200D01*
X16878800Y-6433200D01*
X16828800Y-6483200D01*
X16878800Y-6533200D01*
X16878800Y-6787200D02*
X16928800Y-6737200D01*
X16878800Y-6687200D01*
X16828800Y-6737200D01*
X16878800Y-6787200D01*
X17132800Y-6533200D02*
X17182800Y-6483200D01*
X17132800Y-6433200D01*
X17082800Y-6483200D01*
X17132800Y-6533200D01*
X17132800Y-6787200D02*
X17182800Y-6737200D01*
X17132800Y-6687200D01*
X17082800Y-6737200D01*
X17132800Y-6787200D01*
X17360900Y-11232200D02*
X17410900Y-11182200D01*
X17360900Y-11132200D01*
X17310900Y-11182200D01*
X17360900Y-11232200D01*
X17614900Y-11232200D02*
X17664900Y-11182200D01*
X17614900Y-11132200D01*
X17564900Y-11182200D01*
X17614900Y-11232200D01*
X17868900Y-6539700D02*
X17918900Y-6489700D01*
X17868900Y-6439700D01*
X17818900Y-6489700D01*
X17868900Y-6539700D01*
X17868900Y-6793700D02*
X17918900Y-6743700D01*
X17868900Y-6693700D01*
X17818900Y-6743700D01*
X17868900Y-6793700D01*
X17868900Y-11232200D02*
X17918900Y-11182200D01*
X17868900Y-11132200D01*
X17818900Y-11182200D01*
X17868900Y-11232200D01*
X18122900Y-6539700D02*
X18172900Y-6489700D01*
X18122900Y-6439700D01*
X18072900Y-6489700D01*
X18122900Y-6539700D01*
X18122900Y-6793700D02*
X18172900Y-6743700D01*
X18122900Y-6693700D01*
X18072900Y-6743700D01*
X18122900Y-6793700D01*
X18376900Y-6539700D02*
X18426900Y-6489700D01*
X18376900Y-6439700D01*
X18326900Y-6489700D01*
X18376900Y-6539700D01*
X18376900Y-6793700D02*
X18426900Y-6743700D01*
X18376900Y-6693700D01*
X18326900Y-6743700D01*
X18376900Y-6793700D01*
X21971000Y-6467500D02*
X22021000Y-6417500D01*
X21971000Y-6367500D01*
X21921000Y-6417500D01*
X21971000Y-6467500D01*
X21971000Y-7143000D02*
X22021000Y-7093000D01*
X21971000Y-7043000D01*
X21921000Y-7093000D01*
X21971000Y-7143000D01*
X21971000Y-7760000D02*
X22021000Y-7710000D01*
X21971000Y-7660000D01*
X21921000Y-7710000D01*
X21971000Y-7760000D01*
X21971000Y-8377000D02*
X22021000Y-8327000D01*
X21971000Y-8277000D01*
X21921000Y-8327000D01*
X21971000Y-8377000D01*
X21971000Y-8994000D02*
X22021000Y-8944000D01*
X21971000Y-8894000D01*
X21921000Y-8944000D01*
X21971000Y-8994000D01*
X21971000Y-9611000D02*
X22021000Y-9561000D01*
X21971000Y-9511000D01*
X21921000Y-9561000D01*
X21971000Y-9611000D01*
X21971000Y-10228000D02*
X22021000Y-10178000D01*
X21971000Y-10128000D01*
X21921000Y-10178000D01*
X21971000Y-10228000D01*
X21971000Y-10845000D02*
X22021000Y-10795000D01*
X21971000Y-10745000D01*
X21921000Y-10795000D01*
X21971000Y-10845000D01*
X21971000Y-11850000D02*
X22021000Y-11800000D01*
X21971000Y-11750000D01*
X21921000Y-11800000D01*
X21971000Y-11850000D01*
D17*
X19401400Y-11434400D02*
X19511400Y-11544400D01*
X19511400Y-11434400D02*
X19401400Y-11544400D01*
X19511400Y-11489400D02*
G75*
G03*
X19511400Y-11489400I-55000J0D01*
G01*
X19909400Y-11434400D02*
X20019400Y-11544400D01*
X20019400Y-11434400D02*
X19909400Y-11544400D01*
X20019400Y-11489400D02*
G75*
G03*
X20019400Y-11489400I-55000J0D01*
G01*
D18*
X6981300Y-12450650D02*
X7101300Y-12570650D01*
X7101300Y-12450650D02*
X6981300Y-12570650D01*
X7041300Y-12450650D02*
X7041300Y-12570650D01*
X6981300Y-12510650D02*
X7101300Y-12510650D01*
X7362300Y-12450650D02*
X7482300Y-12570650D01*
X7482300Y-12450650D02*
X7362300Y-12570650D01*
X7422300Y-12450650D02*
X7422300Y-12570650D01*
X7362300Y-12510650D02*
X7482300Y-12510650D01*
X7743300Y-12450650D02*
X7863300Y-12570650D01*
X7863300Y-12450650D02*
X7743300Y-12570650D01*
X7803300Y-12450650D02*
X7803300Y-12570650D01*
X7743300Y-12510650D02*
X7863300Y-12510650D01*
X8124300Y-12450650D02*
X8244300Y-12570650D01*
X8244300Y-12450650D02*
X8124300Y-12570650D01*
X8184300Y-12450650D02*
X8184300Y-12570650D01*
X8124300Y-12510650D02*
X8244300Y-12510650D01*
X8505300Y-12450650D02*
X8625300Y-12570650D01*
X8625300Y-12450650D02*
X8505300Y-12570650D01*
X8565300Y-12450650D02*
X8565300Y-12570650D01*
X8505300Y-12510650D02*
X8625300Y-12510650D01*
X8886300Y-12450650D02*
X9006300Y-12570650D01*
X9006300Y-12450650D02*
X8886300Y-12570650D01*
X8946300Y-12450650D02*
X8946300Y-12570650D01*
X8886300Y-12510650D02*
X9006300Y-12510650D01*
X9267300Y-12450650D02*
X9387300Y-12570650D01*
X9387300Y-12450650D02*
X9267300Y-12570650D01*
X9327300Y-12450650D02*
X9327300Y-12570650D01*
X9267300Y-12510650D02*
X9387300Y-12510650D01*
X9648300Y-12450650D02*
X9768300Y-12570650D01*
X9768300Y-12450650D02*
X9648300Y-12570650D01*
X9708300Y-12450650D02*
X9708300Y-12570650D01*
X9648300Y-12510650D02*
X9768300Y-12510650D01*
D19*
X14860600Y-6149650D02*
X14990600Y-6279650D01*
X14990600Y-6149650D02*
X14860600Y-6279650D01*
X14971562Y-6260612D02*
X14971562Y-6168688D01*
X14879638Y-6168688D01*
X14879638Y-6260612D01*
X14971562Y-6260612D01*
X15561600Y-6149650D02*
X15691600Y-6279650D01*
X15691600Y-6149650D02*
X15561600Y-6279650D01*
X15672562Y-6260612D02*
X15672562Y-6168688D01*
X15580638Y-6168688D01*
X15580638Y-6260612D01*
X15672562Y-6260612D01*
D20*
X5527200Y-9887000D02*
X5726200Y-10086000D01*
X5726200Y-9887000D02*
X5527200Y-10086000D01*
X5626700Y-10086000D02*
X5726200Y-9986500D01*
X5626700Y-9887000D01*
X5527200Y-9986500D01*
X5626700Y-10086000D01*
X5527200Y-10348000D02*
X5726200Y-10547000D01*
X5726200Y-10348000D02*
X5527200Y-10547000D01*
X5626700Y-10547000D02*
X5726200Y-10447500D01*
X5626700Y-10348000D01*
X5527200Y-10447500D01*
X5626700Y-10547000D01*
X5527200Y-10809000D02*
X5726200Y-11008000D01*
X5726200Y-10809000D02*
X5527200Y-11008000D01*
X5626700Y-11008000D02*
X5726200Y-10908500D01*
X5626700Y-10809000D01*
X5527200Y-10908500D01*
X5626700Y-11008000D01*
X5527200Y-11270000D02*
X5726200Y-11469000D01*
X5726200Y-11270000D02*
X5527200Y-11469000D01*
X5626700Y-11469000D02*
X5726200Y-11369500D01*
X5626700Y-11270000D01*
X5527200Y-11369500D01*
X5626700Y-11469000D01*
X6244200Y-9887000D02*
X6443200Y-10086000D01*
X6443200Y-9887000D02*
X6244200Y-10086000D01*
X6343700Y-10086000D02*
X6443200Y-9986500D01*
X6343700Y-9887000D01*
X6244200Y-9986500D01*
X6343700Y-10086000D01*
X6244200Y-10348000D02*
X6443200Y-10547000D01*
X6443200Y-10348000D02*
X6244200Y-10547000D01*
X6343700Y-10547000D02*
X6443200Y-10447500D01*
X6343700Y-10348000D01*
X6244200Y-10447500D01*
X6343700Y-10547000D01*
X6244200Y-10809000D02*
X6443200Y-11008000D01*
X6443200Y-10809000D02*
X6244200Y-11008000D01*
X6343700Y-11008000D02*
X6443200Y-10908500D01*
X6343700Y-10809000D01*
X6244200Y-10908500D01*
X6343700Y-11008000D01*
X6244200Y-11270000D02*
X6443200Y-11469000D01*
X6443200Y-11270000D02*
X6244200Y-11469000D01*
X6343700Y-11469000D02*
X6443200Y-11369500D01*
X6343700Y-11270000D01*
X6244200Y-11369500D01*
X6343700Y-11469000D01*
X6642200Y-9887000D02*
X6841200Y-10086000D01*
X6841200Y-9887000D02*
X6642200Y-10086000D01*
X6741700Y-10086000D02*
X6841200Y-9986500D01*
X6741700Y-9887000D01*
X6642200Y-9986500D01*
X6741700Y-10086000D01*
X6642200Y-10348000D02*
X6841200Y-10547000D01*
X6841200Y-10348000D02*
X6642200Y-10547000D01*
X6741700Y-10547000D02*
X6841200Y-10447500D01*
X6741700Y-10348000D01*
X6642200Y-10447500D01*
X6741700Y-10547000D01*
X6642200Y-10809000D02*
X6841200Y-11008000D01*
X6841200Y-10809000D02*
X6642200Y-11008000D01*
X6741700Y-11008000D02*
X6841200Y-10908500D01*
X6741700Y-10809000D01*
X6642200Y-10908500D01*
X6741700Y-11008000D01*
X6642200Y-11270000D02*
X6841200Y-11469000D01*
X6841200Y-11270000D02*
X6642200Y-11469000D01*
X6741700Y-11469000D02*
X6841200Y-11369500D01*
X6741700Y-11270000D01*
X6642200Y-11369500D01*
X6741700Y-11469000D01*
X7359200Y-9887000D02*
X7558200Y-10086000D01*
X7558200Y-9887000D02*
X7359200Y-10086000D01*
X7458700Y-10086000D02*
X7558200Y-9986500D01*
X7458700Y-9887000D01*
X7359200Y-9986500D01*
X7458700Y-10086000D01*
X7359200Y-10348000D02*
X7558200Y-10547000D01*
X7558200Y-10348000D02*
X7359200Y-10547000D01*
X7458700Y-10547000D02*
X7558200Y-10447500D01*
X7458700Y-10348000D01*
X7359200Y-10447500D01*
X7458700Y-10547000D01*
X7359200Y-10809000D02*
X7558200Y-11008000D01*
X7558200Y-10809000D02*
X7359200Y-11008000D01*
X7458700Y-11008000D02*
X7558200Y-10908500D01*
X7458700Y-10809000D01*
X7359200Y-10908500D01*
X7458700Y-11008000D01*
X7359200Y-11270000D02*
X7558200Y-11469000D01*
X7558200Y-11270000D02*
X7359200Y-11469000D01*
X7458700Y-11469000D02*
X7558200Y-11369500D01*
X7458700Y-11270000D01*
X7359200Y-11369500D01*
X7458700Y-11469000D01*
X8556200Y-9887000D02*
X8755200Y-10086000D01*
X8755200Y-9887000D02*
X8556200Y-10086000D01*
X8655700Y-10086000D02*
X8755200Y-9986500D01*
X8655700Y-9887000D01*
X8556200Y-9986500D01*
X8655700Y-10086000D01*
X8556200Y-10348000D02*
X8755200Y-10547000D01*
X8755200Y-10348000D02*
X8556200Y-10547000D01*
X8655700Y-10547000D02*
X8755200Y-10447500D01*
X8655700Y-10348000D01*
X8556200Y-10447500D01*
X8655700Y-10547000D01*
X8556200Y-10809000D02*
X8755200Y-11008000D01*
X8755200Y-10809000D02*
X8556200Y-11008000D01*
X8655700Y-11008000D02*
X8755200Y-10908500D01*
X8655700Y-10809000D01*
X8556200Y-10908500D01*
X8655700Y-11008000D01*
X8556200Y-11270000D02*
X8755200Y-11469000D01*
X8755200Y-11270000D02*
X8556200Y-11469000D01*
X8655700Y-11469000D02*
X8755200Y-11369500D01*
X8655700Y-11270000D01*
X8556200Y-11369500D01*
X8655700Y-11469000D01*
X9273200Y-9887000D02*
X9472200Y-10086000D01*
X9472200Y-9887000D02*
X9273200Y-10086000D01*
X9372700Y-10086000D02*
X9472200Y-9986500D01*
X9372700Y-9887000D01*
X9273200Y-9986500D01*
X9372700Y-10086000D01*
X9273200Y-10348000D02*
X9472200Y-10547000D01*
X9472200Y-10348000D02*
X9273200Y-10547000D01*
X9372700Y-10547000D02*
X9472200Y-10447500D01*
X9372700Y-10348000D01*
X9273200Y-10447500D01*
X9372700Y-10547000D01*
X9273200Y-10809000D02*
X9472200Y-11008000D01*
X9472200Y-10809000D02*
X9273200Y-11008000D01*
X9372700Y-11008000D02*
X9472200Y-10908500D01*
X9372700Y-10809000D01*
X9273200Y-10908500D01*
X9372700Y-11008000D01*
X9273200Y-11270000D02*
X9472200Y-11469000D01*
X9472200Y-11270000D02*
X9273200Y-11469000D01*
X9372700Y-11469000D02*
X9472200Y-11369500D01*
X9372700Y-11270000D01*
X9273200Y-11369500D01*
X9372700Y-11469000D01*
X11127200Y-9887000D02*
X11326200Y-10086000D01*
X11326200Y-9887000D02*
X11127200Y-10086000D01*
X11226700Y-10086000D02*
X11326200Y-9986500D01*
X11226700Y-9887000D01*
X11127200Y-9986500D01*
X11226700Y-10086000D01*
X11127200Y-10348000D02*
X11326200Y-10547000D01*
X11326200Y-10348000D02*
X11127200Y-10547000D01*
X11226700Y-10547000D02*
X11326200Y-10447500D01*
X11226700Y-10348000D01*
X11127200Y-10447500D01*
X11226700Y-10547000D01*
X11127200Y-10809000D02*
X11326200Y-11008000D01*
X11326200Y-10809000D02*
X11127200Y-11008000D01*
X11226700Y-11008000D02*
X11326200Y-10908500D01*
X11226700Y-10809000D01*
X11127200Y-10908500D01*
X11226700Y-11008000D01*
X11127200Y-11270000D02*
X11326200Y-11469000D01*
X11326200Y-11270000D02*
X11127200Y-11469000D01*
X11226700Y-11469000D02*
X11326200Y-11369500D01*
X11226700Y-11270000D01*
X11127200Y-11369500D01*
X11226700Y-11469000D01*
X11844200Y-9887000D02*
X12043200Y-10086000D01*
X12043200Y-9887000D02*
X11844200Y-10086000D01*
X11943700Y-10086000D02*
X12043200Y-9986500D01*
X11943700Y-9887000D01*
X11844200Y-9986500D01*
X11943700Y-10086000D01*
X11844200Y-10348000D02*
X12043200Y-10547000D01*
X12043200Y-10348000D02*
X11844200Y-10547000D01*
X11943700Y-10547000D02*
X12043200Y-10447500D01*
X11943700Y-10348000D01*
X11844200Y-10447500D01*
X11943700Y-10547000D01*
X11844200Y-10809000D02*
X12043200Y-11008000D01*
X12043200Y-10809000D02*
X11844200Y-11008000D01*
X11943700Y-11008000D02*
X12043200Y-10908500D01*
X11943700Y-10809000D01*
X11844200Y-10908500D01*
X11943700Y-11008000D01*
X11844200Y-11270000D02*
X12043200Y-11469000D01*
X12043200Y-11270000D02*
X11844200Y-11469000D01*
X11943700Y-11469000D02*
X12043200Y-11369500D01*
X11943700Y-11270000D01*
X11844200Y-11369500D01*
X11943700Y-11469000D01*
D11*
X5244319Y-13102476D02*
X5244319Y-12902476D01*
X5291938Y-12902476D01*
X5320510Y-12912000D01*
X5339557Y-12931048D01*
X5349081Y-12950095D01*
X5358605Y-12988190D01*
X5358605Y-13016762D01*
X5349081Y-13054857D01*
X5339557Y-13073905D01*
X5320510Y-13092952D01*
X5291938Y-13102476D01*
X5244319Y-13102476D01*
X5444319Y-13102476D02*
X5444319Y-12969143D01*
X5444319Y-13007238D02*
X5453843Y-12988190D01*
X5463367Y-12978667D01*
X5482414Y-12969143D01*
X5501462Y-12969143D01*
X5568129Y-13102476D02*
X5568129Y-12969143D01*
X5568129Y-12902476D02*
X5558605Y-12912000D01*
X5568129Y-12921524D01*
X5577652Y-12912000D01*
X5568129Y-12902476D01*
X5568129Y-12921524D01*
X5691938Y-13102476D02*
X5672890Y-13092952D01*
X5663367Y-13073905D01*
X5663367Y-12902476D01*
X5796700Y-13102476D02*
X5777652Y-13092952D01*
X5768128Y-13073905D01*
X5768128Y-12902476D01*
X6025271Y-13102476D02*
X6025271Y-12902476D01*
X6091938Y-13045333D01*
X6158605Y-12902476D01*
X6158605Y-13102476D01*
X6339557Y-13102476D02*
X6339557Y-12997714D01*
X6330033Y-12978667D01*
X6310986Y-12969143D01*
X6272890Y-12969143D01*
X6253843Y-12978667D01*
X6339557Y-13092952D02*
X6320509Y-13102476D01*
X6272890Y-13102476D01*
X6253843Y-13092952D01*
X6244319Y-13073905D01*
X6244319Y-13054857D01*
X6253843Y-13035809D01*
X6272890Y-13026286D01*
X6320509Y-13026286D01*
X6339557Y-13016762D01*
X6434795Y-12969143D02*
X6434795Y-13169143D01*
X6434795Y-12978667D02*
X6453843Y-12969143D01*
X6491938Y-12969143D01*
X6510986Y-12978667D01*
X6520509Y-12988190D01*
X6530033Y-13007238D01*
X6530033Y-13064381D01*
X6520509Y-13083428D01*
X6510986Y-13092952D01*
X6491938Y-13102476D01*
X6453843Y-13102476D01*
X6434795Y-13092952D01*
X6615748Y-13083428D02*
X6625271Y-13092952D01*
X6615748Y-13102476D01*
X6606224Y-13092952D01*
X6615748Y-13083428D01*
X6615748Y-13102476D01*
X6615748Y-12978667D02*
X6625271Y-12988190D01*
X6615748Y-12997714D01*
X6606224Y-12988190D01*
X6615748Y-12978667D01*
X6615748Y-12997714D01*
D12*
X4946700Y-13412000D02*
X4986700Y-13452000D01*
X4986700Y-13412000D02*
X4946700Y-13452000D01*
D11*
X5282414Y-13322476D02*
X5301462Y-13322476D01*
X5320510Y-13332000D01*
X5330033Y-13341524D01*
X5339557Y-13360571D01*
X5349081Y-13398667D01*
X5349081Y-13446286D01*
X5339557Y-13484381D01*
X5330033Y-13503428D01*
X5320510Y-13512952D01*
X5301462Y-13522476D01*
X5282414Y-13522476D01*
X5263367Y-13512952D01*
X5253843Y-13503428D01*
X5244319Y-13484381D01*
X5234795Y-13446286D01*
X5234795Y-13398667D01*
X5244319Y-13360571D01*
X5253843Y-13341524D01*
X5263367Y-13332000D01*
X5282414Y-13322476D01*
X5434795Y-13503428D02*
X5444319Y-13512952D01*
X5434795Y-13522476D01*
X5425271Y-13512952D01*
X5434795Y-13503428D01*
X5434795Y-13522476D01*
X5615748Y-13389143D02*
X5615748Y-13522476D01*
X5568129Y-13312952D02*
X5520510Y-13455809D01*
X5644319Y-13455809D01*
X5758605Y-13322476D02*
X5777652Y-13322476D01*
X5796700Y-13332000D01*
X5806224Y-13341524D01*
X5815748Y-13360571D01*
X5825271Y-13398667D01*
X5825271Y-13446286D01*
X5815748Y-13484381D01*
X5806224Y-13503428D01*
X5796700Y-13512952D01*
X5777652Y-13522476D01*
X5758605Y-13522476D01*
X5739557Y-13512952D01*
X5730033Y-13503428D01*
X5720509Y-13484381D01*
X5710986Y-13446286D01*
X5710986Y-13398667D01*
X5720509Y-13360571D01*
X5730033Y-13341524D01*
X5739557Y-13332000D01*
X5758605Y-13322476D01*
X5949081Y-13322476D02*
X5968128Y-13322476D01*
X5987176Y-13332000D01*
X5996700Y-13341524D01*
X6006224Y-13360571D01*
X6015748Y-13398667D01*
X6015748Y-13446286D01*
X6006224Y-13484381D01*
X5996700Y-13503428D01*
X5987176Y-13512952D01*
X5968128Y-13522476D01*
X5949081Y-13522476D01*
X5930033Y-13512952D01*
X5920509Y-13503428D01*
X5910986Y-13484381D01*
X5901462Y-13446286D01*
X5901462Y-13398667D01*
X5910986Y-13360571D01*
X5920509Y-13341524D01*
X5930033Y-13332000D01*
X5949081Y-13322476D01*
X6101462Y-13522476D02*
X6101462Y-13389143D01*
X6101462Y-13408190D02*
X6110986Y-13398667D01*
X6130033Y-13389143D01*
X6158605Y-13389143D01*
X6177652Y-13398667D01*
X6187176Y-13417714D01*
X6187176Y-13522476D01*
X6187176Y-13417714D02*
X6196700Y-13398667D01*
X6215748Y-13389143D01*
X6244319Y-13389143D01*
X6263367Y-13398667D01*
X6272890Y-13417714D01*
X6272890Y-13522476D01*
X6368128Y-13522476D02*
X6368128Y-13389143D01*
X6368128Y-13408190D02*
X6377652Y-13398667D01*
X6396700Y-13389143D01*
X6425271Y-13389143D01*
X6444319Y-13398667D01*
X6453843Y-13417714D01*
X6453843Y-13522476D01*
X6453843Y-13417714D02*
X6463367Y-13398667D01*
X6482414Y-13389143D01*
X6510986Y-13389143D01*
X6530033Y-13398667D01*
X6539557Y-13417714D01*
X6539557Y-13522476D01*
X6930033Y-13312952D02*
X6758605Y-13570095D01*
X7187176Y-13322476D02*
X7206224Y-13322476D01*
X7225271Y-13332000D01*
X7234795Y-13341524D01*
X7244319Y-13360571D01*
X7253843Y-13398667D01*
X7253843Y-13446286D01*
X7244319Y-13484381D01*
X7234795Y-13503428D01*
X7225271Y-13512952D01*
X7206224Y-13522476D01*
X7187176Y-13522476D01*
X7168128Y-13512952D01*
X7158605Y-13503428D01*
X7149081Y-13484381D01*
X7139557Y-13446286D01*
X7139557Y-13398667D01*
X7149081Y-13360571D01*
X7158605Y-13341524D01*
X7168128Y-13332000D01*
X7187176Y-13322476D01*
X7339557Y-13503428D02*
X7349081Y-13512952D01*
X7339557Y-13522476D01*
X7330033Y-13512952D01*
X7339557Y-13503428D01*
X7339557Y-13522476D01*
X7472890Y-13322476D02*
X7491938Y-13322476D01*
X7510986Y-13332000D01*
X7520509Y-13341524D01*
X7530033Y-13360571D01*
X7539557Y-13398667D01*
X7539557Y-13446286D01*
X7530033Y-13484381D01*
X7520509Y-13503428D01*
X7510986Y-13512952D01*
X7491938Y-13522476D01*
X7472890Y-13522476D01*
X7453843Y-13512952D01*
X7444319Y-13503428D01*
X7434795Y-13484381D01*
X7425271Y-13446286D01*
X7425271Y-13398667D01*
X7434795Y-13360571D01*
X7444319Y-13341524D01*
X7453843Y-13332000D01*
X7472890Y-13322476D01*
X7730033Y-13522476D02*
X7615748Y-13522476D01*
X7672890Y-13522476D02*
X7672890Y-13322476D01*
X7653843Y-13351048D01*
X7634795Y-13370095D01*
X7615748Y-13379619D01*
X7910986Y-13322476D02*
X7815748Y-13322476D01*
X7806224Y-13417714D01*
X7815748Y-13408190D01*
X7834795Y-13398667D01*
X7882414Y-13398667D01*
X7901462Y-13408190D01*
X7910986Y-13417714D01*
X7920509Y-13436762D01*
X7920509Y-13484381D01*
X7910986Y-13503428D01*
X7901462Y-13512952D01*
X7882414Y-13522476D01*
X7834795Y-13522476D01*
X7815748Y-13512952D01*
X7806224Y-13503428D01*
X7987176Y-13322476D02*
X8120509Y-13322476D01*
X8034795Y-13522476D01*
X8187176Y-13322476D02*
X8187176Y-13360571D01*
X8263367Y-13322476D02*
X8263367Y-13360571D01*
X8558605Y-13598667D02*
X8549081Y-13589143D01*
X8530033Y-13560571D01*
X8520510Y-13541524D01*
X8510986Y-13512952D01*
X8501462Y-13465333D01*
X8501462Y-13427238D01*
X8510986Y-13379619D01*
X8520510Y-13351048D01*
X8530033Y-13332000D01*
X8549081Y-13303428D01*
X8558605Y-13293905D01*
X8739557Y-13522476D02*
X8625271Y-13522476D01*
X8682414Y-13522476D02*
X8682414Y-13322476D01*
X8663367Y-13351048D01*
X8644319Y-13370095D01*
X8625271Y-13379619D01*
X8920510Y-13322476D02*
X8825271Y-13322476D01*
X8815748Y-13417714D01*
X8825271Y-13408190D01*
X8844319Y-13398667D01*
X8891938Y-13398667D01*
X8910986Y-13408190D01*
X8920510Y-13417714D01*
X8930033Y-13436762D01*
X8930033Y-13484381D01*
X8920510Y-13503428D01*
X8910986Y-13512952D01*
X8891938Y-13522476D01*
X8844319Y-13522476D01*
X8825271Y-13512952D01*
X8815748Y-13503428D01*
X9101462Y-13322476D02*
X9063367Y-13322476D01*
X9044319Y-13332000D01*
X9034795Y-13341524D01*
X9015748Y-13370095D01*
X9006224Y-13408190D01*
X9006224Y-13484381D01*
X9015748Y-13503428D01*
X9025271Y-13512952D01*
X9044319Y-13522476D01*
X9082414Y-13522476D01*
X9101462Y-13512952D01*
X9110986Y-13503428D01*
X9120510Y-13484381D01*
X9120510Y-13436762D01*
X9110986Y-13417714D01*
X9101462Y-13408190D01*
X9082414Y-13398667D01*
X9044319Y-13398667D01*
X9025271Y-13408190D01*
X9015748Y-13417714D01*
X9006224Y-13436762D01*
X9358605Y-13522476D02*
X9358605Y-13322476D01*
X9444319Y-13522476D02*
X9444319Y-13417714D01*
X9434795Y-13398667D01*
X9415748Y-13389143D01*
X9387176Y-13389143D01*
X9368129Y-13398667D01*
X9358605Y-13408190D01*
X9568129Y-13522476D02*
X9549081Y-13512952D01*
X9539557Y-13503428D01*
X9530033Y-13484381D01*
X9530033Y-13427238D01*
X9539557Y-13408190D01*
X9549081Y-13398667D01*
X9568129Y-13389143D01*
X9596700Y-13389143D01*
X9615748Y-13398667D01*
X9625271Y-13408190D01*
X9634795Y-13427238D01*
X9634795Y-13484381D01*
X9625271Y-13503428D01*
X9615748Y-13512952D01*
X9596700Y-13522476D01*
X9568129Y-13522476D01*
X9749081Y-13522476D02*
X9730033Y-13512952D01*
X9720510Y-13493905D01*
X9720510Y-13322476D01*
X9901462Y-13512952D02*
X9882414Y-13522476D01*
X9844319Y-13522476D01*
X9825271Y-13512952D01*
X9815748Y-13493905D01*
X9815748Y-13417714D01*
X9825271Y-13398667D01*
X9844319Y-13389143D01*
X9882414Y-13389143D01*
X9901462Y-13398667D01*
X9910986Y-13417714D01*
X9910986Y-13436762D01*
X9815748Y-13455809D01*
X9987176Y-13512952D02*
X10006224Y-13522476D01*
X10044319Y-13522476D01*
X10063367Y-13512952D01*
X10072890Y-13493905D01*
X10072890Y-13484381D01*
X10063367Y-13465333D01*
X10044319Y-13455809D01*
X10015748Y-13455809D01*
X9996700Y-13446286D01*
X9987176Y-13427238D01*
X9987176Y-13417714D01*
X9996700Y-13398667D01*
X10015748Y-13389143D01*
X10044319Y-13389143D01*
X10063367Y-13398667D01*
X10139557Y-13598667D02*
X10149081Y-13589143D01*
X10168129Y-13560571D01*
X10177652Y-13541524D01*
X10187176Y-13512952D01*
X10196700Y-13465333D01*
X10196700Y-13427238D01*
X10187176Y-13379619D01*
X10177652Y-13351048D01*
X10168129Y-13332000D01*
X10149081Y-13303428D01*
X10139557Y-13293905D01*
D13*
X4986700Y-13696000D02*
G75*
G03*
X4986700Y-13696000I-40000J0D01*
G01*
D11*
X5282414Y-13586476D02*
X5301462Y-13586476D01*
X5320510Y-13596000D01*
X5330033Y-13605524D01*
X5339557Y-13624571D01*
X5349081Y-13662667D01*
X5349081Y-13710286D01*
X5339557Y-13748381D01*
X5330033Y-13767428D01*
X5320510Y-13776952D01*
X5301462Y-13786476D01*
X5282414Y-13786476D01*
X5263367Y-13776952D01*
X5253843Y-13767428D01*
X5244319Y-13748381D01*
X5234795Y-13710286D01*
X5234795Y-13662667D01*
X5244319Y-13624571D01*
X5253843Y-13605524D01*
X5263367Y-13596000D01*
X5282414Y-13586476D01*
X5434795Y-13767428D02*
X5444319Y-13776952D01*
X5434795Y-13786476D01*
X5425271Y-13776952D01*
X5434795Y-13767428D01*
X5434795Y-13786476D01*
X5558605Y-13672190D02*
X5539557Y-13662667D01*
X5530033Y-13653143D01*
X5520510Y-13634095D01*
X5520510Y-13624571D01*
X5530033Y-13605524D01*
X5539557Y-13596000D01*
X5558605Y-13586476D01*
X5596700Y-13586476D01*
X5615748Y-13596000D01*
X5625271Y-13605524D01*
X5634795Y-13624571D01*
X5634795Y-13634095D01*
X5625271Y-13653143D01*
X5615748Y-13662667D01*
X5596700Y-13672190D01*
X5558605Y-13672190D01*
X5539557Y-13681714D01*
X5530033Y-13691238D01*
X5520510Y-13710286D01*
X5520510Y-13748381D01*
X5530033Y-13767428D01*
X5539557Y-13776952D01*
X5558605Y-13786476D01*
X5596700Y-13786476D01*
X5615748Y-13776952D01*
X5625271Y-13767428D01*
X5634795Y-13748381D01*
X5634795Y-13710286D01*
X5625271Y-13691238D01*
X5615748Y-13681714D01*
X5596700Y-13672190D01*
X5758605Y-13586476D02*
X5777652Y-13586476D01*
X5796700Y-13596000D01*
X5806224Y-13605524D01*
X5815748Y-13624571D01*
X5825271Y-13662667D01*
X5825271Y-13710286D01*
X5815748Y-13748381D01*
X5806224Y-13767428D01*
X5796700Y-13776952D01*
X5777652Y-13786476D01*
X5758605Y-13786476D01*
X5739557Y-13776952D01*
X5730033Y-13767428D01*
X5720509Y-13748381D01*
X5710986Y-13710286D01*
X5710986Y-13662667D01*
X5720509Y-13624571D01*
X5730033Y-13605524D01*
X5739557Y-13596000D01*
X5758605Y-13586476D01*
X5949081Y-13586476D02*
X5968128Y-13586476D01*
X5987176Y-13596000D01*
X5996700Y-13605524D01*
X6006224Y-13624571D01*
X6015748Y-13662667D01*
X6015748Y-13710286D01*
X6006224Y-13748381D01*
X5996700Y-13767428D01*
X5987176Y-13776952D01*
X5968128Y-13786476D01*
X5949081Y-13786476D01*
X5930033Y-13776952D01*
X5920509Y-13767428D01*
X5910986Y-13748381D01*
X5901462Y-13710286D01*
X5901462Y-13662667D01*
X5910986Y-13624571D01*
X5920509Y-13605524D01*
X5930033Y-13596000D01*
X5949081Y-13586476D01*
X6101462Y-13786476D02*
X6101462Y-13653143D01*
X6101462Y-13672190D02*
X6110986Y-13662667D01*
X6130033Y-13653143D01*
X6158605Y-13653143D01*
X6177652Y-13662667D01*
X6187176Y-13681714D01*
X6187176Y-13786476D01*
X6187176Y-13681714D02*
X6196700Y-13662667D01*
X6215748Y-13653143D01*
X6244319Y-13653143D01*
X6263367Y-13662667D01*
X6272890Y-13681714D01*
X6272890Y-13786476D01*
X6368128Y-13786476D02*
X6368128Y-13653143D01*
X6368128Y-13672190D02*
X6377652Y-13662667D01*
X6396700Y-13653143D01*
X6425271Y-13653143D01*
X6444319Y-13662667D01*
X6453843Y-13681714D01*
X6453843Y-13786476D01*
X6453843Y-13681714D02*
X6463367Y-13662667D01*
X6482414Y-13653143D01*
X6510986Y-13653143D01*
X6530033Y-13662667D01*
X6539557Y-13681714D01*
X6539557Y-13786476D01*
X6930033Y-13576952D02*
X6758605Y-13834095D01*
X7187176Y-13586476D02*
X7206224Y-13586476D01*
X7225271Y-13596000D01*
X7234795Y-13605524D01*
X7244319Y-13624571D01*
X7253843Y-13662667D01*
X7253843Y-13710286D01*
X7244319Y-13748381D01*
X7234795Y-13767428D01*
X7225271Y-13776952D01*
X7206224Y-13786476D01*
X7187176Y-13786476D01*
X7168128Y-13776952D01*
X7158605Y-13767428D01*
X7149081Y-13748381D01*
X7139557Y-13710286D01*
X7139557Y-13662667D01*
X7149081Y-13624571D01*
X7158605Y-13605524D01*
X7168128Y-13596000D01*
X7187176Y-13586476D01*
X7339557Y-13767428D02*
X7349081Y-13776952D01*
X7339557Y-13786476D01*
X7330033Y-13776952D01*
X7339557Y-13767428D01*
X7339557Y-13786476D01*
X7472890Y-13586476D02*
X7491938Y-13586476D01*
X7510986Y-13596000D01*
X7520509Y-13605524D01*
X7530033Y-13624571D01*
X7539557Y-13662667D01*
X7539557Y-13710286D01*
X7530033Y-13748381D01*
X7520509Y-13767428D01*
X7510986Y-13776952D01*
X7491938Y-13786476D01*
X7472890Y-13786476D01*
X7453843Y-13776952D01*
X7444319Y-13767428D01*
X7434795Y-13748381D01*
X7425271Y-13710286D01*
X7425271Y-13662667D01*
X7434795Y-13624571D01*
X7444319Y-13605524D01*
X7453843Y-13596000D01*
X7472890Y-13586476D01*
X7606224Y-13586476D02*
X7730033Y-13586476D01*
X7663367Y-13662667D01*
X7691938Y-13662667D01*
X7710986Y-13672190D01*
X7720509Y-13681714D01*
X7730033Y-13700762D01*
X7730033Y-13748381D01*
X7720509Y-13767428D01*
X7710986Y-13776952D01*
X7691938Y-13786476D01*
X7634795Y-13786476D01*
X7615748Y-13776952D01*
X7606224Y-13767428D01*
X7920509Y-13786476D02*
X7806224Y-13786476D01*
X7863367Y-13786476D02*
X7863367Y-13586476D01*
X7844319Y-13615048D01*
X7825271Y-13634095D01*
X7806224Y-13643619D01*
X8101462Y-13586476D02*
X8006224Y-13586476D01*
X7996700Y-13681714D01*
X8006224Y-13672190D01*
X8025271Y-13662667D01*
X8072890Y-13662667D01*
X8091938Y-13672190D01*
X8101462Y-13681714D01*
X8110986Y-13700762D01*
X8110986Y-13748381D01*
X8101462Y-13767428D01*
X8091938Y-13776952D01*
X8072890Y-13786476D01*
X8025271Y-13786476D01*
X8006224Y-13776952D01*
X7996700Y-13767428D01*
X8187176Y-13586476D02*
X8187176Y-13624571D01*
X8263367Y-13586476D02*
X8263367Y-13624571D01*
X8558605Y-13862667D02*
X8549081Y-13853143D01*
X8530033Y-13824571D01*
X8520510Y-13805524D01*
X8510986Y-13776952D01*
X8501462Y-13729333D01*
X8501462Y-13691238D01*
X8510986Y-13643619D01*
X8520510Y-13615048D01*
X8530033Y-13596000D01*
X8549081Y-13567428D01*
X8558605Y-13557905D01*
X8615748Y-13586476D02*
X8739557Y-13586476D01*
X8672890Y-13662667D01*
X8701462Y-13662667D01*
X8720510Y-13672190D01*
X8730033Y-13681714D01*
X8739557Y-13700762D01*
X8739557Y-13748381D01*
X8730033Y-13767428D01*
X8720510Y-13776952D01*
X8701462Y-13786476D01*
X8644319Y-13786476D01*
X8625271Y-13776952D01*
X8615748Y-13767428D01*
X8863367Y-13586476D02*
X8882414Y-13586476D01*
X8901462Y-13596000D01*
X8910986Y-13605524D01*
X8920510Y-13624571D01*
X8930033Y-13662667D01*
X8930033Y-13710286D01*
X8920510Y-13748381D01*
X8910986Y-13767428D01*
X8901462Y-13776952D01*
X8882414Y-13786476D01*
X8863367Y-13786476D01*
X8844319Y-13776952D01*
X8834795Y-13767428D01*
X8825271Y-13748381D01*
X8815748Y-13710286D01*
X8815748Y-13662667D01*
X8825271Y-13624571D01*
X8834795Y-13605524D01*
X8844319Y-13596000D01*
X8863367Y-13586476D01*
X9168129Y-13786476D02*
X9168129Y-13586476D01*
X9253843Y-13786476D02*
X9253843Y-13681714D01*
X9244319Y-13662667D01*
X9225271Y-13653143D01*
X9196700Y-13653143D01*
X9177652Y-13662667D01*
X9168129Y-13672190D01*
X9377652Y-13786476D02*
X9358605Y-13776952D01*
X9349081Y-13767428D01*
X9339557Y-13748381D01*
X9339557Y-13691238D01*
X9349081Y-13672190D01*
X9358605Y-13662667D01*
X9377652Y-13653143D01*
X9406224Y-13653143D01*
X9425271Y-13662667D01*
X9434795Y-13672190D01*
X9444319Y-13691238D01*
X9444319Y-13748381D01*
X9434795Y-13767428D01*
X9425271Y-13776952D01*
X9406224Y-13786476D01*
X9377652Y-13786476D01*
X9558605Y-13786476D02*
X9539557Y-13776952D01*
X9530033Y-13757905D01*
X9530033Y-13586476D01*
X9710986Y-13776952D02*
X9691938Y-13786476D01*
X9653843Y-13786476D01*
X9634795Y-13776952D01*
X9625271Y-13757905D01*
X9625271Y-13681714D01*
X9634795Y-13662667D01*
X9653843Y-13653143D01*
X9691938Y-13653143D01*
X9710986Y-13662667D01*
X9720510Y-13681714D01*
X9720510Y-13700762D01*
X9625271Y-13719809D01*
X9796700Y-13776952D02*
X9815748Y-13786476D01*
X9853843Y-13786476D01*
X9872890Y-13776952D01*
X9882414Y-13757905D01*
X9882414Y-13748381D01*
X9872890Y-13729333D01*
X9853843Y-13719809D01*
X9825271Y-13719809D01*
X9806224Y-13710286D01*
X9796700Y-13691238D01*
X9796700Y-13681714D01*
X9806224Y-13662667D01*
X9825271Y-13653143D01*
X9853843Y-13653143D01*
X9872890Y-13662667D01*
X9949081Y-13862667D02*
X9958605Y-13853143D01*
X9977652Y-13824571D01*
X9987176Y-13805524D01*
X9996700Y-13776952D01*
X10006224Y-13729333D01*
X10006224Y-13691238D01*
X9996700Y-13643619D01*
X9987176Y-13615048D01*
X9977652Y-13596000D01*
X9958605Y-13567428D01*
X9949081Y-13557905D01*
D14*
X4941700Y-13915000D02*
X4941700Y-14005000D01*
X4896700Y-13960000D02*
X4986700Y-13960000D01*
D11*
X5282414Y-13850476D02*
X5301462Y-13850476D01*
X5320510Y-13860000D01*
X5330033Y-13869524D01*
X5339557Y-13888571D01*
X5349081Y-13926667D01*
X5349081Y-13974286D01*
X5339557Y-14012381D01*
X5330033Y-14031428D01*
X5320510Y-14040952D01*
X5301462Y-14050476D01*
X5282414Y-14050476D01*
X5263367Y-14040952D01*
X5253843Y-14031428D01*
X5244319Y-14012381D01*
X5234795Y-13974286D01*
X5234795Y-13926667D01*
X5244319Y-13888571D01*
X5253843Y-13869524D01*
X5263367Y-13860000D01*
X5282414Y-13850476D01*
X5434795Y-14031428D02*
X5444319Y-14040952D01*
X5434795Y-14050476D01*
X5425271Y-14040952D01*
X5434795Y-14031428D01*
X5434795Y-14050476D01*
X5539557Y-14050476D02*
X5577652Y-14050476D01*
X5596700Y-14040952D01*
X5606224Y-14031428D01*
X5625271Y-14002857D01*
X5634795Y-13964762D01*
X5634795Y-13888571D01*
X5625271Y-13869524D01*
X5615748Y-13860000D01*
X5596700Y-13850476D01*
X5558605Y-13850476D01*
X5539557Y-13860000D01*
X5530033Y-13869524D01*
X5520510Y-13888571D01*
X5520510Y-13936190D01*
X5530033Y-13955238D01*
X5539557Y-13964762D01*
X5558605Y-13974286D01*
X5596700Y-13974286D01*
X5615748Y-13964762D01*
X5625271Y-13955238D01*
X5634795Y-13936190D01*
X5758605Y-13850476D02*
X5777652Y-13850476D01*
X5796700Y-13860000D01*
X5806224Y-13869524D01*
X5815748Y-13888571D01*
X5825271Y-13926667D01*
X5825271Y-13974286D01*
X5815748Y-14012381D01*
X5806224Y-14031428D01*
X5796700Y-14040952D01*
X5777652Y-14050476D01*
X5758605Y-14050476D01*
X5739557Y-14040952D01*
X5730033Y-14031428D01*
X5720509Y-14012381D01*
X5710986Y-13974286D01*
X5710986Y-13926667D01*
X5720509Y-13888571D01*
X5730033Y-13869524D01*
X5739557Y-13860000D01*
X5758605Y-13850476D01*
X5949081Y-13850476D02*
X5968128Y-13850476D01*
X5987176Y-13860000D01*
X5996700Y-13869524D01*
X6006224Y-13888571D01*
X6015748Y-13926667D01*
X6015748Y-13974286D01*
X6006224Y-14012381D01*
X5996700Y-14031428D01*
X5987176Y-14040952D01*
X5968128Y-14050476D01*
X5949081Y-14050476D01*
X5930033Y-14040952D01*
X5920509Y-14031428D01*
X5910986Y-14012381D01*
X5901462Y-13974286D01*
X5901462Y-13926667D01*
X5910986Y-13888571D01*
X5920509Y-13869524D01*
X5930033Y-13860000D01*
X5949081Y-13850476D01*
X6101462Y-14050476D02*
X6101462Y-13917143D01*
X6101462Y-13936190D02*
X6110986Y-13926667D01*
X6130033Y-13917143D01*
X6158605Y-13917143D01*
X6177652Y-13926667D01*
X6187176Y-13945714D01*
X6187176Y-14050476D01*
X6187176Y-13945714D02*
X6196700Y-13926667D01*
X6215748Y-13917143D01*
X6244319Y-13917143D01*
X6263367Y-13926667D01*
X6272890Y-13945714D01*
X6272890Y-14050476D01*
X6368128Y-14050476D02*
X6368128Y-13917143D01*
X6368128Y-13936190D02*
X6377652Y-13926667D01*
X6396700Y-13917143D01*
X6425271Y-13917143D01*
X6444319Y-13926667D01*
X6453843Y-13945714D01*
X6453843Y-14050476D01*
X6453843Y-13945714D02*
X6463367Y-13926667D01*
X6482414Y-13917143D01*
X6510986Y-13917143D01*
X6530033Y-13926667D01*
X6539557Y-13945714D01*
X6539557Y-14050476D01*
X6930033Y-13840952D02*
X6758605Y-14098095D01*
X7187176Y-13850476D02*
X7206224Y-13850476D01*
X7225271Y-13860000D01*
X7234795Y-13869524D01*
X7244319Y-13888571D01*
X7253843Y-13926667D01*
X7253843Y-13974286D01*
X7244319Y-14012381D01*
X7234795Y-14031428D01*
X7225271Y-14040952D01*
X7206224Y-14050476D01*
X7187176Y-14050476D01*
X7168128Y-14040952D01*
X7158605Y-14031428D01*
X7149081Y-14012381D01*
X7139557Y-13974286D01*
X7139557Y-13926667D01*
X7149081Y-13888571D01*
X7158605Y-13869524D01*
X7168128Y-13860000D01*
X7187176Y-13850476D01*
X7339557Y-14031428D02*
X7349081Y-14040952D01*
X7339557Y-14050476D01*
X7330033Y-14040952D01*
X7339557Y-14031428D01*
X7339557Y-14050476D01*
X7472890Y-13850476D02*
X7491938Y-13850476D01*
X7510986Y-13860000D01*
X7520509Y-13869524D01*
X7530033Y-13888571D01*
X7539557Y-13926667D01*
X7539557Y-13974286D01*
X7530033Y-14012381D01*
X7520509Y-14031428D01*
X7510986Y-14040952D01*
X7491938Y-14050476D01*
X7472890Y-14050476D01*
X7453843Y-14040952D01*
X7444319Y-14031428D01*
X7434795Y-14012381D01*
X7425271Y-13974286D01*
X7425271Y-13926667D01*
X7434795Y-13888571D01*
X7444319Y-13869524D01*
X7453843Y-13860000D01*
X7472890Y-13850476D01*
X7606224Y-13850476D02*
X7730033Y-13850476D01*
X7663367Y-13926667D01*
X7691938Y-13926667D01*
X7710986Y-13936190D01*
X7720509Y-13945714D01*
X7730033Y-13964762D01*
X7730033Y-14012381D01*
X7720509Y-14031428D01*
X7710986Y-14040952D01*
X7691938Y-14050476D01*
X7634795Y-14050476D01*
X7615748Y-14040952D01*
X7606224Y-14031428D01*
X7910986Y-13850476D02*
X7815748Y-13850476D01*
X7806224Y-13945714D01*
X7815748Y-13936190D01*
X7834795Y-13926667D01*
X7882414Y-13926667D01*
X7901462Y-13936190D01*
X7910986Y-13945714D01*
X7920509Y-13964762D01*
X7920509Y-14012381D01*
X7910986Y-14031428D01*
X7901462Y-14040952D01*
X7882414Y-14050476D01*
X7834795Y-14050476D01*
X7815748Y-14040952D01*
X7806224Y-14031428D01*
X8091938Y-13917143D02*
X8091938Y-14050476D01*
X8044319Y-13840952D02*
X7996700Y-13983809D01*
X8120509Y-13983809D01*
X8187176Y-13850476D02*
X8187176Y-13888571D01*
X8263367Y-13850476D02*
X8263367Y-13888571D01*
X8558605Y-14126667D02*
X8549081Y-14117143D01*
X8530033Y-14088571D01*
X8520510Y-14069524D01*
X8510986Y-14040952D01*
X8501462Y-13993333D01*
X8501462Y-13955238D01*
X8510986Y-13907619D01*
X8520510Y-13879048D01*
X8530033Y-13860000D01*
X8549081Y-13831428D01*
X8558605Y-13821905D01*
X8730033Y-13850476D02*
X8634795Y-13850476D01*
X8625271Y-13945714D01*
X8634795Y-13936190D01*
X8653843Y-13926667D01*
X8701462Y-13926667D01*
X8720510Y-13936190D01*
X8730033Y-13945714D01*
X8739557Y-13964762D01*
X8739557Y-14012381D01*
X8730033Y-14031428D01*
X8720510Y-14040952D01*
X8701462Y-14050476D01*
X8653843Y-14050476D01*
X8634795Y-14040952D01*
X8625271Y-14031428D01*
X8977652Y-14050476D02*
X8977652Y-13850476D01*
X9063367Y-14050476D02*
X9063367Y-13945714D01*
X9053843Y-13926667D01*
X9034795Y-13917143D01*
X9006224Y-13917143D01*
X8987176Y-13926667D01*
X8977652Y-13936190D01*
X9187176Y-14050476D02*
X9168129Y-14040952D01*
X9158605Y-14031428D01*
X9149081Y-14012381D01*
X9149081Y-13955238D01*
X9158605Y-13936190D01*
X9168129Y-13926667D01*
X9187176Y-13917143D01*
X9215748Y-13917143D01*
X9234795Y-13926667D01*
X9244319Y-13936190D01*
X9253843Y-13955238D01*
X9253843Y-14012381D01*
X9244319Y-14031428D01*
X9234795Y-14040952D01*
X9215748Y-14050476D01*
X9187176Y-14050476D01*
X9368129Y-14050476D02*
X9349081Y-14040952D01*
X9339557Y-14021905D01*
X9339557Y-13850476D01*
X9520510Y-14040952D02*
X9501462Y-14050476D01*
X9463367Y-14050476D01*
X9444319Y-14040952D01*
X9434795Y-14021905D01*
X9434795Y-13945714D01*
X9444319Y-13926667D01*
X9463367Y-13917143D01*
X9501462Y-13917143D01*
X9520510Y-13926667D01*
X9530033Y-13945714D01*
X9530033Y-13964762D01*
X9434795Y-13983809D01*
X9606224Y-14040952D02*
X9625271Y-14050476D01*
X9663367Y-14050476D01*
X9682414Y-14040952D01*
X9691938Y-14021905D01*
X9691938Y-14012381D01*
X9682414Y-13993333D01*
X9663367Y-13983809D01*
X9634795Y-13983809D01*
X9615748Y-13974286D01*
X9606224Y-13955238D01*
X9606224Y-13945714D01*
X9615748Y-13926667D01*
X9634795Y-13917143D01*
X9663367Y-13917143D01*
X9682414Y-13926667D01*
X9758605Y-14126667D02*
X9768129Y-14117143D01*
X9787176Y-14088571D01*
X9796700Y-14069524D01*
X9806224Y-14040952D01*
X9815748Y-13993333D01*
X9815748Y-13955238D01*
X9806224Y-13907619D01*
X9796700Y-13879048D01*
X9787176Y-13860000D01*
X9768129Y-13831428D01*
X9758605Y-13821905D01*
D15*
X4972202Y-14259002D02*
X4972202Y-14188998D01*
X4902198Y-14188998D01*
X4902198Y-14259002D01*
X4972202Y-14259002D01*
D11*
X5282414Y-14114476D02*
X5301462Y-14114476D01*
X5320510Y-14124000D01*
X5330033Y-14133524D01*
X5339557Y-14152571D01*
X5349081Y-14190667D01*
X5349081Y-14238286D01*
X5339557Y-14276381D01*
X5330033Y-14295428D01*
X5320510Y-14304952D01*
X5301462Y-14314476D01*
X5282414Y-14314476D01*
X5263367Y-14304952D01*
X5253843Y-14295428D01*
X5244319Y-14276381D01*
X5234795Y-14238286D01*
X5234795Y-14190667D01*
X5244319Y-14152571D01*
X5253843Y-14133524D01*
X5263367Y-14124000D01*
X5282414Y-14114476D01*
X5434795Y-14295428D02*
X5444319Y-14304952D01*
X5434795Y-14314476D01*
X5425271Y-14304952D01*
X5434795Y-14295428D01*
X5434795Y-14314476D01*
X5539557Y-14314476D02*
X5577652Y-14314476D01*
X5596700Y-14304952D01*
X5606224Y-14295428D01*
X5625271Y-14266857D01*
X5634795Y-14228762D01*
X5634795Y-14152571D01*
X5625271Y-14133524D01*
X5615748Y-14124000D01*
X5596700Y-14114476D01*
X5558605Y-14114476D01*
X5539557Y-14124000D01*
X5530033Y-14133524D01*
X5520510Y-14152571D01*
X5520510Y-14200190D01*
X5530033Y-14219238D01*
X5539557Y-14228762D01*
X5558605Y-14238286D01*
X5596700Y-14238286D01*
X5615748Y-14228762D01*
X5625271Y-14219238D01*
X5634795Y-14200190D01*
X5730033Y-14314476D02*
X5768128Y-14314476D01*
X5787176Y-14304952D01*
X5796700Y-14295428D01*
X5815748Y-14266857D01*
X5825271Y-14228762D01*
X5825271Y-14152571D01*
X5815748Y-14133524D01*
X5806224Y-14124000D01*
X5787176Y-14114476D01*
X5749081Y-14114476D01*
X5730033Y-14124000D01*
X5720509Y-14133524D01*
X5710986Y-14152571D01*
X5710986Y-14200190D01*
X5720509Y-14219238D01*
X5730033Y-14228762D01*
X5749081Y-14238286D01*
X5787176Y-14238286D01*
X5806224Y-14228762D01*
X5815748Y-14219238D01*
X5825271Y-14200190D01*
X5949081Y-14114476D02*
X5968128Y-14114476D01*
X5987176Y-14124000D01*
X5996700Y-14133524D01*
X6006224Y-14152571D01*
X6015748Y-14190667D01*
X6015748Y-14238286D01*
X6006224Y-14276381D01*
X5996700Y-14295428D01*
X5987176Y-14304952D01*
X5968128Y-14314476D01*
X5949081Y-14314476D01*
X5930033Y-14304952D01*
X5920509Y-14295428D01*
X5910986Y-14276381D01*
X5901462Y-14238286D01*
X5901462Y-14190667D01*
X5910986Y-14152571D01*
X5920509Y-14133524D01*
X5930033Y-14124000D01*
X5949081Y-14114476D01*
X6101462Y-14314476D02*
X6101462Y-14181143D01*
X6101462Y-14200190D02*
X6110986Y-14190667D01*
X6130033Y-14181143D01*
X6158605Y-14181143D01*
X6177652Y-14190667D01*
X6187176Y-14209714D01*
X6187176Y-14314476D01*
X6187176Y-14209714D02*
X6196700Y-14190667D01*
X6215748Y-14181143D01*
X6244319Y-14181143D01*
X6263367Y-14190667D01*
X6272890Y-14209714D01*
X6272890Y-14314476D01*
X6368128Y-14314476D02*
X6368128Y-14181143D01*
X6368128Y-14200190D02*
X6377652Y-14190667D01*
X6396700Y-14181143D01*
X6425271Y-14181143D01*
X6444319Y-14190667D01*
X6453843Y-14209714D01*
X6453843Y-14314476D01*
X6453843Y-14209714D02*
X6463367Y-14190667D01*
X6482414Y-14181143D01*
X6510986Y-14181143D01*
X6530033Y-14190667D01*
X6539557Y-14209714D01*
X6539557Y-14314476D01*
X6930033Y-14104952D02*
X6758605Y-14362095D01*
X7187176Y-14114476D02*
X7206224Y-14114476D01*
X7225271Y-14124000D01*
X7234795Y-14133524D01*
X7244319Y-14152571D01*
X7253843Y-14190667D01*
X7253843Y-14238286D01*
X7244319Y-14276381D01*
X7234795Y-14295428D01*
X7225271Y-14304952D01*
X7206224Y-14314476D01*
X7187176Y-14314476D01*
X7168128Y-14304952D01*
X7158605Y-14295428D01*
X7149081Y-14276381D01*
X7139557Y-14238286D01*
X7139557Y-14190667D01*
X7149081Y-14152571D01*
X7158605Y-14133524D01*
X7168128Y-14124000D01*
X7187176Y-14114476D01*
X7339557Y-14295428D02*
X7349081Y-14304952D01*
X7339557Y-14314476D01*
X7330033Y-14304952D01*
X7339557Y-14295428D01*
X7339557Y-14314476D01*
X7472890Y-14114476D02*
X7491938Y-14114476D01*
X7510986Y-14124000D01*
X7520509Y-14133524D01*
X7530033Y-14152571D01*
X7539557Y-14190667D01*
X7539557Y-14238286D01*
X7530033Y-14276381D01*
X7520509Y-14295428D01*
X7510986Y-14304952D01*
X7491938Y-14314476D01*
X7472890Y-14314476D01*
X7453843Y-14304952D01*
X7444319Y-14295428D01*
X7434795Y-14276381D01*
X7425271Y-14238286D01*
X7425271Y-14190667D01*
X7434795Y-14152571D01*
X7444319Y-14133524D01*
X7453843Y-14124000D01*
X7472890Y-14114476D01*
X7606224Y-14114476D02*
X7730033Y-14114476D01*
X7663367Y-14190667D01*
X7691938Y-14190667D01*
X7710986Y-14200190D01*
X7720509Y-14209714D01*
X7730033Y-14228762D01*
X7730033Y-14276381D01*
X7720509Y-14295428D01*
X7710986Y-14304952D01*
X7691938Y-14314476D01*
X7634795Y-14314476D01*
X7615748Y-14304952D01*
X7606224Y-14295428D01*
X7825271Y-14314476D02*
X7863367Y-14314476D01*
X7882414Y-14304952D01*
X7891938Y-14295428D01*
X7910986Y-14266857D01*
X7920509Y-14228762D01*
X7920509Y-14152571D01*
X7910986Y-14133524D01*
X7901462Y-14124000D01*
X7882414Y-14114476D01*
X7844319Y-14114476D01*
X7825271Y-14124000D01*
X7815748Y-14133524D01*
X7806224Y-14152571D01*
X7806224Y-14200190D01*
X7815748Y-14219238D01*
X7825271Y-14228762D01*
X7844319Y-14238286D01*
X7882414Y-14238286D01*
X7901462Y-14228762D01*
X7910986Y-14219238D01*
X7920509Y-14200190D01*
X8044319Y-14114476D02*
X8063367Y-14114476D01*
X8082414Y-14124000D01*
X8091938Y-14133524D01*
X8101462Y-14152571D01*
X8110986Y-14190667D01*
X8110986Y-14238286D01*
X8101462Y-14276381D01*
X8091938Y-14295428D01*
X8082414Y-14304952D01*
X8063367Y-14314476D01*
X8044319Y-14314476D01*
X8025271Y-14304952D01*
X8015748Y-14295428D01*
X8006224Y-14276381D01*
X7996700Y-14238286D01*
X7996700Y-14190667D01*
X8006224Y-14152571D01*
X8015748Y-14133524D01*
X8025271Y-14124000D01*
X8044319Y-14114476D01*
X8187176Y-14114476D02*
X8187176Y-14152571D01*
X8263367Y-14114476D02*
X8263367Y-14152571D01*
X8558605Y-14390667D02*
X8549081Y-14381143D01*
X8530033Y-14352571D01*
X8520510Y-14333524D01*
X8510986Y-14304952D01*
X8501462Y-14257333D01*
X8501462Y-14219238D01*
X8510986Y-14171619D01*
X8520510Y-14143048D01*
X8530033Y-14124000D01*
X8549081Y-14095428D01*
X8558605Y-14085905D01*
X8625271Y-14133524D02*
X8634795Y-14124000D01*
X8653843Y-14114476D01*
X8701462Y-14114476D01*
X8720510Y-14124000D01*
X8730033Y-14133524D01*
X8739557Y-14152571D01*
X8739557Y-14171619D01*
X8730033Y-14200190D01*
X8615748Y-14314476D01*
X8739557Y-14314476D01*
X8977652Y-14314476D02*
X8977652Y-14114476D01*
X9063367Y-14314476D02*
X9063367Y-14209714D01*
X9053843Y-14190667D01*
X9034795Y-14181143D01*
X9006224Y-14181143D01*
X8987176Y-14190667D01*
X8977652Y-14200190D01*
X9187176Y-14314476D02*
X9168129Y-14304952D01*
X9158605Y-14295428D01*
X9149081Y-14276381D01*
X9149081Y-14219238D01*
X9158605Y-14200190D01*
X9168129Y-14190667D01*
X9187176Y-14181143D01*
X9215748Y-14181143D01*
X9234795Y-14190667D01*
X9244319Y-14200190D01*
X9253843Y-14219238D01*
X9253843Y-14276381D01*
X9244319Y-14295428D01*
X9234795Y-14304952D01*
X9215748Y-14314476D01*
X9187176Y-14314476D01*
X9368129Y-14314476D02*
X9349081Y-14304952D01*
X9339557Y-14285905D01*
X9339557Y-14114476D01*
X9520510Y-14304952D02*
X9501462Y-14314476D01*
X9463367Y-14314476D01*
X9444319Y-14304952D01*
X9434795Y-14285905D01*
X9434795Y-14209714D01*
X9444319Y-14190667D01*
X9463367Y-14181143D01*
X9501462Y-14181143D01*
X9520510Y-14190667D01*
X9530033Y-14209714D01*
X9530033Y-14228762D01*
X9434795Y-14247809D01*
X9606224Y-14304952D02*
X9625271Y-14314476D01*
X9663367Y-14314476D01*
X9682414Y-14304952D01*
X9691938Y-14285905D01*
X9691938Y-14276381D01*
X9682414Y-14257333D01*
X9663367Y-14247809D01*
X9634795Y-14247809D01*
X9615748Y-14238286D01*
X9606224Y-14219238D01*
X9606224Y-14209714D01*
X9615748Y-14190667D01*
X9634795Y-14181143D01*
X9663367Y-14181143D01*
X9682414Y-14190667D01*
X9758605Y-14390667D02*
X9768129Y-14381143D01*
X9787176Y-14352571D01*
X9796700Y-14333524D01*
X9806224Y-14304952D01*
X9815748Y-14257333D01*
X9815748Y-14219238D01*
X9806224Y-14171619D01*
X9796700Y-14143048D01*
X9787176Y-14124000D01*
X9768129Y-14095428D01*
X9758605Y-14085905D01*
D16*
X4936700Y-14538000D02*
X4986700Y-14488000D01*
X4936700Y-14438000D01*
X4886700Y-14488000D01*
X4936700Y-14538000D01*
D11*
X5349081Y-14578476D02*
X5234795Y-14578476D01*
X5291938Y-14578476D02*
X5291938Y-14378476D01*
X5272890Y-14407048D01*
X5253843Y-14426095D01*
X5234795Y-14435619D01*
X5434795Y-14559428D02*
X5444319Y-14568952D01*
X5434795Y-14578476D01*
X5425271Y-14568952D01*
X5434795Y-14559428D01*
X5434795Y-14578476D01*
X5568129Y-14378476D02*
X5587176Y-14378476D01*
X5606224Y-14388000D01*
X5615748Y-14397524D01*
X5625271Y-14416571D01*
X5634795Y-14454667D01*
X5634795Y-14502286D01*
X5625271Y-14540381D01*
X5615748Y-14559428D01*
X5606224Y-14568952D01*
X5587176Y-14578476D01*
X5568129Y-14578476D01*
X5549081Y-14568952D01*
X5539557Y-14559428D01*
X5530033Y-14540381D01*
X5520510Y-14502286D01*
X5520510Y-14454667D01*
X5530033Y-14416571D01*
X5539557Y-14397524D01*
X5549081Y-14388000D01*
X5568129Y-14378476D01*
X5758605Y-14378476D02*
X5777652Y-14378476D01*
X5796700Y-14388000D01*
X5806224Y-14397524D01*
X5815748Y-14416571D01*
X5825271Y-14454667D01*
X5825271Y-14502286D01*
X5815748Y-14540381D01*
X5806224Y-14559428D01*
X5796700Y-14568952D01*
X5777652Y-14578476D01*
X5758605Y-14578476D01*
X5739557Y-14568952D01*
X5730033Y-14559428D01*
X5720509Y-14540381D01*
X5710986Y-14502286D01*
X5710986Y-14454667D01*
X5720509Y-14416571D01*
X5730033Y-14397524D01*
X5739557Y-14388000D01*
X5758605Y-14378476D01*
X5949081Y-14378476D02*
X5968128Y-14378476D01*
X5987176Y-14388000D01*
X5996700Y-14397524D01*
X6006224Y-14416571D01*
X6015748Y-14454667D01*
X6015748Y-14502286D01*
X6006224Y-14540381D01*
X5996700Y-14559428D01*
X5987176Y-14568952D01*
X5968128Y-14578476D01*
X5949081Y-14578476D01*
X5930033Y-14568952D01*
X5920509Y-14559428D01*
X5910986Y-14540381D01*
X5901462Y-14502286D01*
X5901462Y-14454667D01*
X5910986Y-14416571D01*
X5920509Y-14397524D01*
X5930033Y-14388000D01*
X5949081Y-14378476D01*
X6101462Y-14578476D02*
X6101462Y-14445143D01*
X6101462Y-14464190D02*
X6110986Y-14454667D01*
X6130033Y-14445143D01*
X6158605Y-14445143D01*
X6177652Y-14454667D01*
X6187176Y-14473714D01*
X6187176Y-14578476D01*
X6187176Y-14473714D02*
X6196700Y-14454667D01*
X6215748Y-14445143D01*
X6244319Y-14445143D01*
X6263367Y-14454667D01*
X6272890Y-14473714D01*
X6272890Y-14578476D01*
X6368128Y-14578476D02*
X6368128Y-14445143D01*
X6368128Y-14464190D02*
X6377652Y-14454667D01*
X6396700Y-14445143D01*
X6425271Y-14445143D01*
X6444319Y-14454667D01*
X6453843Y-14473714D01*
X6453843Y-14578476D01*
X6453843Y-14473714D02*
X6463367Y-14454667D01*
X6482414Y-14445143D01*
X6510986Y-14445143D01*
X6530033Y-14454667D01*
X6539557Y-14473714D01*
X6539557Y-14578476D01*
X6930033Y-14368952D02*
X6758605Y-14626095D01*
X7187176Y-14378476D02*
X7206224Y-14378476D01*
X7225271Y-14388000D01*
X7234795Y-14397524D01*
X7244319Y-14416571D01*
X7253843Y-14454667D01*
X7253843Y-14502286D01*
X7244319Y-14540381D01*
X7234795Y-14559428D01*
X7225271Y-14568952D01*
X7206224Y-14578476D01*
X7187176Y-14578476D01*
X7168128Y-14568952D01*
X7158605Y-14559428D01*
X7149081Y-14540381D01*
X7139557Y-14502286D01*
X7139557Y-14454667D01*
X7149081Y-14416571D01*
X7158605Y-14397524D01*
X7168128Y-14388000D01*
X7187176Y-14378476D01*
X7339557Y-14559428D02*
X7349081Y-14568952D01*
X7339557Y-14578476D01*
X7330033Y-14568952D01*
X7339557Y-14559428D01*
X7339557Y-14578476D01*
X7472890Y-14378476D02*
X7491938Y-14378476D01*
X7510986Y-14388000D01*
X7520509Y-14397524D01*
X7530033Y-14416571D01*
X7539557Y-14454667D01*
X7539557Y-14502286D01*
X7530033Y-14540381D01*
X7520509Y-14559428D01*
X7510986Y-14568952D01*
X7491938Y-14578476D01*
X7472890Y-14578476D01*
X7453843Y-14568952D01*
X7444319Y-14559428D01*
X7434795Y-14540381D01*
X7425271Y-14502286D01*
X7425271Y-14454667D01*
X7434795Y-14416571D01*
X7444319Y-14397524D01*
X7453843Y-14388000D01*
X7472890Y-14378476D01*
X7606224Y-14378476D02*
X7730033Y-14378476D01*
X7663367Y-14454667D01*
X7691938Y-14454667D01*
X7710986Y-14464190D01*
X7720509Y-14473714D01*
X7730033Y-14492762D01*
X7730033Y-14540381D01*
X7720509Y-14559428D01*
X7710986Y-14568952D01*
X7691938Y-14578476D01*
X7634795Y-14578476D01*
X7615748Y-14568952D01*
X7606224Y-14559428D01*
X7825271Y-14578476D02*
X7863367Y-14578476D01*
X7882414Y-14568952D01*
X7891938Y-14559428D01*
X7910986Y-14530857D01*
X7920509Y-14492762D01*
X7920509Y-14416571D01*
X7910986Y-14397524D01*
X7901462Y-14388000D01*
X7882414Y-14378476D01*
X7844319Y-14378476D01*
X7825271Y-14388000D01*
X7815748Y-14397524D01*
X7806224Y-14416571D01*
X7806224Y-14464190D01*
X7815748Y-14483238D01*
X7825271Y-14492762D01*
X7844319Y-14502286D01*
X7882414Y-14502286D01*
X7901462Y-14492762D01*
X7910986Y-14483238D01*
X7920509Y-14464190D01*
X8091938Y-14445143D02*
X8091938Y-14578476D01*
X8044319Y-14368952D02*
X7996700Y-14511809D01*
X8120509Y-14511809D01*
X8187176Y-14378476D02*
X8187176Y-14416571D01*
X8263367Y-14378476D02*
X8263367Y-14416571D01*
X8558605Y-14654667D02*
X8549081Y-14645143D01*
X8530033Y-14616571D01*
X8520510Y-14597524D01*
X8510986Y-14568952D01*
X8501462Y-14521333D01*
X8501462Y-14483238D01*
X8510986Y-14435619D01*
X8520510Y-14407048D01*
X8530033Y-14388000D01*
X8549081Y-14359428D01*
X8558605Y-14349905D01*
X8730033Y-14378476D02*
X8634795Y-14378476D01*
X8625271Y-14473714D01*
X8634795Y-14464190D01*
X8653843Y-14454667D01*
X8701462Y-14454667D01*
X8720510Y-14464190D01*
X8730033Y-14473714D01*
X8739557Y-14492762D01*
X8739557Y-14540381D01*
X8730033Y-14559428D01*
X8720510Y-14568952D01*
X8701462Y-14578476D01*
X8653843Y-14578476D01*
X8634795Y-14568952D01*
X8625271Y-14559428D01*
X8910986Y-14378476D02*
X8872890Y-14378476D01*
X8853843Y-14388000D01*
X8844319Y-14397524D01*
X8825271Y-14426095D01*
X8815748Y-14464190D01*
X8815748Y-14540381D01*
X8825271Y-14559428D01*
X8834795Y-14568952D01*
X8853843Y-14578476D01*
X8891938Y-14578476D01*
X8910986Y-14568952D01*
X8920510Y-14559428D01*
X8930033Y-14540381D01*
X8930033Y-14492762D01*
X8920510Y-14473714D01*
X8910986Y-14464190D01*
X8891938Y-14454667D01*
X8853843Y-14454667D01*
X8834795Y-14464190D01*
X8825271Y-14473714D01*
X8815748Y-14492762D01*
X9168129Y-14578476D02*
X9168129Y-14378476D01*
X9253843Y-14578476D02*
X9253843Y-14473714D01*
X9244319Y-14454667D01*
X9225271Y-14445143D01*
X9196700Y-14445143D01*
X9177652Y-14454667D01*
X9168129Y-14464190D01*
X9377652Y-14578476D02*
X9358605Y-14568952D01*
X9349081Y-14559428D01*
X9339557Y-14540381D01*
X9339557Y-14483238D01*
X9349081Y-14464190D01*
X9358605Y-14454667D01*
X9377652Y-14445143D01*
X9406224Y-14445143D01*
X9425271Y-14454667D01*
X9434795Y-14464190D01*
X9444319Y-14483238D01*
X9444319Y-14540381D01*
X9434795Y-14559428D01*
X9425271Y-14568952D01*
X9406224Y-14578476D01*
X9377652Y-14578476D01*
X9558605Y-14578476D02*
X9539557Y-14568952D01*
X9530033Y-14549905D01*
X9530033Y-14378476D01*
X9710986Y-14568952D02*
X9691938Y-14578476D01*
X9653843Y-14578476D01*
X9634795Y-14568952D01*
X9625271Y-14549905D01*
X9625271Y-14473714D01*
X9634795Y-14454667D01*
X9653843Y-14445143D01*
X9691938Y-14445143D01*
X9710986Y-14454667D01*
X9720510Y-14473714D01*
X9720510Y-14492762D01*
X9625271Y-14511809D01*
X9796700Y-14568952D02*
X9815748Y-14578476D01*
X9853843Y-14578476D01*
X9872890Y-14568952D01*
X9882414Y-14549905D01*
X9882414Y-14540381D01*
X9872890Y-14521333D01*
X9853843Y-14511809D01*
X9825271Y-14511809D01*
X9806224Y-14502286D01*
X9796700Y-14483238D01*
X9796700Y-14473714D01*
X9806224Y-14454667D01*
X9825271Y-14445143D01*
X9853843Y-14445143D01*
X9872890Y-14454667D01*
X9949081Y-14654667D02*
X9958605Y-14645143D01*
X9977652Y-14616571D01*
X9987176Y-14597524D01*
X9996700Y-14568952D01*
X10006224Y-14521333D01*
X10006224Y-14483238D01*
X9996700Y-14435619D01*
X9987176Y-14407048D01*
X9977652Y-14388000D01*
X9958605Y-14359428D01*
X9949081Y-14349905D01*
D17*
X4876700Y-14697000D02*
X4986700Y-14807000D01*
X4986700Y-14697000D02*
X4876700Y-14807000D01*
X4986700Y-14752000D02*
G75*
G03*
X4986700Y-14752000I-55000J0D01*
G01*
D11*
X5349081Y-14842476D02*
X5234795Y-14842476D01*
X5291938Y-14842476D02*
X5291938Y-14642476D01*
X5272890Y-14671048D01*
X5253843Y-14690095D01*
X5234795Y-14699619D01*
X5434795Y-14823428D02*
X5444319Y-14832952D01*
X5434795Y-14842476D01*
X5425271Y-14832952D01*
X5434795Y-14823428D01*
X5434795Y-14842476D01*
X5634795Y-14842476D02*
X5520510Y-14842476D01*
X5577652Y-14842476D02*
X5577652Y-14642476D01*
X5558605Y-14671048D01*
X5539557Y-14690095D01*
X5520510Y-14699619D01*
X5758605Y-14642476D02*
X5777652Y-14642476D01*
X5796700Y-14652000D01*
X5806224Y-14661524D01*
X5815748Y-14680571D01*
X5825271Y-14718667D01*
X5825271Y-14766286D01*
X5815748Y-14804381D01*
X5806224Y-14823428D01*
X5796700Y-14832952D01*
X5777652Y-14842476D01*
X5758605Y-14842476D01*
X5739557Y-14832952D01*
X5730033Y-14823428D01*
X5720509Y-14804381D01*
X5710986Y-14766286D01*
X5710986Y-14718667D01*
X5720509Y-14680571D01*
X5730033Y-14661524D01*
X5739557Y-14652000D01*
X5758605Y-14642476D01*
X5949081Y-14642476D02*
X5968128Y-14642476D01*
X5987176Y-14652000D01*
X5996700Y-14661524D01*
X6006224Y-14680571D01*
X6015748Y-14718667D01*
X6015748Y-14766286D01*
X6006224Y-14804381D01*
X5996700Y-14823428D01*
X5987176Y-14832952D01*
X5968128Y-14842476D01*
X5949081Y-14842476D01*
X5930033Y-14832952D01*
X5920509Y-14823428D01*
X5910986Y-14804381D01*
X5901462Y-14766286D01*
X5901462Y-14718667D01*
X5910986Y-14680571D01*
X5920509Y-14661524D01*
X5930033Y-14652000D01*
X5949081Y-14642476D01*
X6101462Y-14842476D02*
X6101462Y-14709143D01*
X6101462Y-14728190D02*
X6110986Y-14718667D01*
X6130033Y-14709143D01*
X6158605Y-14709143D01*
X6177652Y-14718667D01*
X6187176Y-14737714D01*
X6187176Y-14842476D01*
X6187176Y-14737714D02*
X6196700Y-14718667D01*
X6215748Y-14709143D01*
X6244319Y-14709143D01*
X6263367Y-14718667D01*
X6272890Y-14737714D01*
X6272890Y-14842476D01*
X6368128Y-14842476D02*
X6368128Y-14709143D01*
X6368128Y-14728190D02*
X6377652Y-14718667D01*
X6396700Y-14709143D01*
X6425271Y-14709143D01*
X6444319Y-14718667D01*
X6453843Y-14737714D01*
X6453843Y-14842476D01*
X6453843Y-14737714D02*
X6463367Y-14718667D01*
X6482414Y-14709143D01*
X6510986Y-14709143D01*
X6530033Y-14718667D01*
X6539557Y-14737714D01*
X6539557Y-14842476D01*
X6930033Y-14632952D02*
X6758605Y-14890095D01*
X7187176Y-14642476D02*
X7206224Y-14642476D01*
X7225271Y-14652000D01*
X7234795Y-14661524D01*
X7244319Y-14680571D01*
X7253843Y-14718667D01*
X7253843Y-14766286D01*
X7244319Y-14804381D01*
X7234795Y-14823428D01*
X7225271Y-14832952D01*
X7206224Y-14842476D01*
X7187176Y-14842476D01*
X7168128Y-14832952D01*
X7158605Y-14823428D01*
X7149081Y-14804381D01*
X7139557Y-14766286D01*
X7139557Y-14718667D01*
X7149081Y-14680571D01*
X7158605Y-14661524D01*
X7168128Y-14652000D01*
X7187176Y-14642476D01*
X7339557Y-14823428D02*
X7349081Y-14832952D01*
X7339557Y-14842476D01*
X7330033Y-14832952D01*
X7339557Y-14823428D01*
X7339557Y-14842476D01*
X7472890Y-14642476D02*
X7491938Y-14642476D01*
X7510986Y-14652000D01*
X7520509Y-14661524D01*
X7530033Y-14680571D01*
X7539557Y-14718667D01*
X7539557Y-14766286D01*
X7530033Y-14804381D01*
X7520509Y-14823428D01*
X7510986Y-14832952D01*
X7491938Y-14842476D01*
X7472890Y-14842476D01*
X7453843Y-14832952D01*
X7444319Y-14823428D01*
X7434795Y-14804381D01*
X7425271Y-14766286D01*
X7425271Y-14718667D01*
X7434795Y-14680571D01*
X7444319Y-14661524D01*
X7453843Y-14652000D01*
X7472890Y-14642476D01*
X7710986Y-14709143D02*
X7710986Y-14842476D01*
X7663367Y-14632952D02*
X7615748Y-14775809D01*
X7739557Y-14775809D01*
X7796700Y-14642476D02*
X7920509Y-14642476D01*
X7853843Y-14718667D01*
X7882414Y-14718667D01*
X7901462Y-14728190D01*
X7910986Y-14737714D01*
X7920509Y-14756762D01*
X7920509Y-14804381D01*
X7910986Y-14823428D01*
X7901462Y-14832952D01*
X7882414Y-14842476D01*
X7825271Y-14842476D01*
X7806224Y-14832952D01*
X7796700Y-14823428D01*
X7987176Y-14642476D02*
X8110986Y-14642476D01*
X8044319Y-14718667D01*
X8072890Y-14718667D01*
X8091938Y-14728190D01*
X8101462Y-14737714D01*
X8110986Y-14756762D01*
X8110986Y-14804381D01*
X8101462Y-14823428D01*
X8091938Y-14832952D01*
X8072890Y-14842476D01*
X8015748Y-14842476D01*
X7996700Y-14832952D01*
X7987176Y-14823428D01*
X8187176Y-14642476D02*
X8187176Y-14680571D01*
X8263367Y-14642476D02*
X8263367Y-14680571D01*
X8558605Y-14918667D02*
X8549081Y-14909143D01*
X8530033Y-14880571D01*
X8520510Y-14861524D01*
X8510986Y-14832952D01*
X8501462Y-14785333D01*
X8501462Y-14747238D01*
X8510986Y-14699619D01*
X8520510Y-14671048D01*
X8530033Y-14652000D01*
X8549081Y-14623428D01*
X8558605Y-14613905D01*
X8625271Y-14661524D02*
X8634795Y-14652000D01*
X8653843Y-14642476D01*
X8701462Y-14642476D01*
X8720510Y-14652000D01*
X8730033Y-14661524D01*
X8739557Y-14680571D01*
X8739557Y-14699619D01*
X8730033Y-14728190D01*
X8615748Y-14842476D01*
X8739557Y-14842476D01*
X8977652Y-14842476D02*
X8977652Y-14642476D01*
X9063367Y-14842476D02*
X9063367Y-14737714D01*
X9053843Y-14718667D01*
X9034795Y-14709143D01*
X9006224Y-14709143D01*
X8987176Y-14718667D01*
X8977652Y-14728190D01*
X9187176Y-14842476D02*
X9168129Y-14832952D01*
X9158605Y-14823428D01*
X9149081Y-14804381D01*
X9149081Y-14747238D01*
X9158605Y-14728190D01*
X9168129Y-14718667D01*
X9187176Y-14709143D01*
X9215748Y-14709143D01*
X9234795Y-14718667D01*
X9244319Y-14728190D01*
X9253843Y-14747238D01*
X9253843Y-14804381D01*
X9244319Y-14823428D01*
X9234795Y-14832952D01*
X9215748Y-14842476D01*
X9187176Y-14842476D01*
X9368129Y-14842476D02*
X9349081Y-14832952D01*
X9339557Y-14813905D01*
X9339557Y-14642476D01*
X9520510Y-14832952D02*
X9501462Y-14842476D01*
X9463367Y-14842476D01*
X9444319Y-14832952D01*
X9434795Y-14813905D01*
X9434795Y-14737714D01*
X9444319Y-14718667D01*
X9463367Y-14709143D01*
X9501462Y-14709143D01*
X9520510Y-14718667D01*
X9530033Y-14737714D01*
X9530033Y-14756762D01*
X9434795Y-14775809D01*
X9606224Y-14832952D02*
X9625271Y-14842476D01*
X9663367Y-14842476D01*
X9682414Y-14832952D01*
X9691938Y-14813905D01*
X9691938Y-14804381D01*
X9682414Y-14785333D01*
X9663367Y-14775809D01*
X9634795Y-14775809D01*
X9615748Y-14766286D01*
X9606224Y-14747238D01*
X9606224Y-14737714D01*
X9615748Y-14718667D01*
X9634795Y-14709143D01*
X9663367Y-14709143D01*
X9682414Y-14718667D01*
X9758605Y-14918667D02*
X9768129Y-14909143D01*
X9787176Y-14880571D01*
X9796700Y-14861524D01*
X9806224Y-14832952D01*
X9815748Y-14785333D01*
X9815748Y-14747238D01*
X9806224Y-14699619D01*
X9796700Y-14671048D01*
X9787176Y-14652000D01*
X9768129Y-14623428D01*
X9758605Y-14613905D01*
D18*
X4866700Y-14956000D02*
X4986700Y-15076000D01*
X4986700Y-14956000D02*
X4866700Y-15076000D01*
X4926700Y-14956000D02*
X4926700Y-15076000D01*
X4866700Y-15016000D02*
X4986700Y-15016000D01*
D11*
X5349081Y-15106476D02*
X5234795Y-15106476D01*
X5291938Y-15106476D02*
X5291938Y-14906476D01*
X5272890Y-14935048D01*
X5253843Y-14954095D01*
X5234795Y-14963619D01*
X5434795Y-15087428D02*
X5444319Y-15096952D01*
X5434795Y-15106476D01*
X5425271Y-15096952D01*
X5434795Y-15087428D01*
X5434795Y-15106476D01*
X5520510Y-14925524D02*
X5530033Y-14916000D01*
X5549081Y-14906476D01*
X5596700Y-14906476D01*
X5615748Y-14916000D01*
X5625271Y-14925524D01*
X5634795Y-14944571D01*
X5634795Y-14963619D01*
X5625271Y-14992190D01*
X5510986Y-15106476D01*
X5634795Y-15106476D01*
X5758605Y-14906476D02*
X5777652Y-14906476D01*
X5796700Y-14916000D01*
X5806224Y-14925524D01*
X5815748Y-14944571D01*
X5825271Y-14982667D01*
X5825271Y-15030286D01*
X5815748Y-15068381D01*
X5806224Y-15087428D01*
X5796700Y-15096952D01*
X5777652Y-15106476D01*
X5758605Y-15106476D01*
X5739557Y-15096952D01*
X5730033Y-15087428D01*
X5720509Y-15068381D01*
X5710986Y-15030286D01*
X5710986Y-14982667D01*
X5720509Y-14944571D01*
X5730033Y-14925524D01*
X5739557Y-14916000D01*
X5758605Y-14906476D01*
X5949081Y-14906476D02*
X5968128Y-14906476D01*
X5987176Y-14916000D01*
X5996700Y-14925524D01*
X6006224Y-14944571D01*
X6015748Y-14982667D01*
X6015748Y-15030286D01*
X6006224Y-15068381D01*
X5996700Y-15087428D01*
X5987176Y-15096952D01*
X5968128Y-15106476D01*
X5949081Y-15106476D01*
X5930033Y-15096952D01*
X5920509Y-15087428D01*
X5910986Y-15068381D01*
X5901462Y-15030286D01*
X5901462Y-14982667D01*
X5910986Y-14944571D01*
X5920509Y-14925524D01*
X5930033Y-14916000D01*
X5949081Y-14906476D01*
X6101462Y-15106476D02*
X6101462Y-14973143D01*
X6101462Y-14992190D02*
X6110986Y-14982667D01*
X6130033Y-14973143D01*
X6158605Y-14973143D01*
X6177652Y-14982667D01*
X6187176Y-15001714D01*
X6187176Y-15106476D01*
X6187176Y-15001714D02*
X6196700Y-14982667D01*
X6215748Y-14973143D01*
X6244319Y-14973143D01*
X6263367Y-14982667D01*
X6272890Y-15001714D01*
X6272890Y-15106476D01*
X6368128Y-15106476D02*
X6368128Y-14973143D01*
X6368128Y-14992190D02*
X6377652Y-14982667D01*
X6396700Y-14973143D01*
X6425271Y-14973143D01*
X6444319Y-14982667D01*
X6453843Y-15001714D01*
X6453843Y-15106476D01*
X6453843Y-15001714D02*
X6463367Y-14982667D01*
X6482414Y-14973143D01*
X6510986Y-14973143D01*
X6530033Y-14982667D01*
X6539557Y-15001714D01*
X6539557Y-15106476D01*
X6930033Y-14896952D02*
X6758605Y-15154095D01*
X7187176Y-14906476D02*
X7206224Y-14906476D01*
X7225271Y-14916000D01*
X7234795Y-14925524D01*
X7244319Y-14944571D01*
X7253843Y-14982667D01*
X7253843Y-15030286D01*
X7244319Y-15068381D01*
X7234795Y-15087428D01*
X7225271Y-15096952D01*
X7206224Y-15106476D01*
X7187176Y-15106476D01*
X7168128Y-15096952D01*
X7158605Y-15087428D01*
X7149081Y-15068381D01*
X7139557Y-15030286D01*
X7139557Y-14982667D01*
X7149081Y-14944571D01*
X7158605Y-14925524D01*
X7168128Y-14916000D01*
X7187176Y-14906476D01*
X7339557Y-15087428D02*
X7349081Y-15096952D01*
X7339557Y-15106476D01*
X7330033Y-15096952D01*
X7339557Y-15087428D01*
X7339557Y-15106476D01*
X7472890Y-14906476D02*
X7491938Y-14906476D01*
X7510986Y-14916000D01*
X7520509Y-14925524D01*
X7530033Y-14944571D01*
X7539557Y-14982667D01*
X7539557Y-15030286D01*
X7530033Y-15068381D01*
X7520509Y-15087428D01*
X7510986Y-15096952D01*
X7491938Y-15106476D01*
X7472890Y-15106476D01*
X7453843Y-15096952D01*
X7444319Y-15087428D01*
X7434795Y-15068381D01*
X7425271Y-15030286D01*
X7425271Y-14982667D01*
X7434795Y-14944571D01*
X7444319Y-14925524D01*
X7453843Y-14916000D01*
X7472890Y-14906476D01*
X7710986Y-14973143D02*
X7710986Y-15106476D01*
X7663367Y-14896952D02*
X7615748Y-15039809D01*
X7739557Y-15039809D01*
X7796700Y-14906476D02*
X7930033Y-14906476D01*
X7844319Y-15106476D01*
X7996700Y-14925524D02*
X8006224Y-14916000D01*
X8025271Y-14906476D01*
X8072890Y-14906476D01*
X8091938Y-14916000D01*
X8101462Y-14925524D01*
X8110986Y-14944571D01*
X8110986Y-14963619D01*
X8101462Y-14992190D01*
X7987176Y-15106476D01*
X8110986Y-15106476D01*
X8187176Y-14906476D02*
X8187176Y-14944571D01*
X8263367Y-14906476D02*
X8263367Y-14944571D01*
X8558605Y-15182667D02*
X8549081Y-15173143D01*
X8530033Y-15144571D01*
X8520510Y-15125524D01*
X8510986Y-15096952D01*
X8501462Y-15049333D01*
X8501462Y-15011238D01*
X8510986Y-14963619D01*
X8520510Y-14935048D01*
X8530033Y-14916000D01*
X8549081Y-14887428D01*
X8558605Y-14877905D01*
X8663367Y-14992190D02*
X8644319Y-14982667D01*
X8634795Y-14973143D01*
X8625271Y-14954095D01*
X8625271Y-14944571D01*
X8634795Y-14925524D01*
X8644319Y-14916000D01*
X8663367Y-14906476D01*
X8701462Y-14906476D01*
X8720510Y-14916000D01*
X8730033Y-14925524D01*
X8739557Y-14944571D01*
X8739557Y-14954095D01*
X8730033Y-14973143D01*
X8720510Y-14982667D01*
X8701462Y-14992190D01*
X8663367Y-14992190D01*
X8644319Y-15001714D01*
X8634795Y-15011238D01*
X8625271Y-15030286D01*
X8625271Y-15068381D01*
X8634795Y-15087428D01*
X8644319Y-15096952D01*
X8663367Y-15106476D01*
X8701462Y-15106476D01*
X8720510Y-15096952D01*
X8730033Y-15087428D01*
X8739557Y-15068381D01*
X8739557Y-15030286D01*
X8730033Y-15011238D01*
X8720510Y-15001714D01*
X8701462Y-14992190D01*
X8977652Y-15106476D02*
X8977652Y-14906476D01*
X9063367Y-15106476D02*
X9063367Y-15001714D01*
X9053843Y-14982667D01*
X9034795Y-14973143D01*
X9006224Y-14973143D01*
X8987176Y-14982667D01*
X8977652Y-14992190D01*
X9187176Y-15106476D02*
X9168129Y-15096952D01*
X9158605Y-15087428D01*
X9149081Y-15068381D01*
X9149081Y-15011238D01*
X9158605Y-14992190D01*
X9168129Y-14982667D01*
X9187176Y-14973143D01*
X9215748Y-14973143D01*
X9234795Y-14982667D01*
X9244319Y-14992190D01*
X9253843Y-15011238D01*
X9253843Y-15068381D01*
X9244319Y-15087428D01*
X9234795Y-15096952D01*
X9215748Y-15106476D01*
X9187176Y-15106476D01*
X9368129Y-15106476D02*
X9349081Y-15096952D01*
X9339557Y-15077905D01*
X9339557Y-14906476D01*
X9520510Y-15096952D02*
X9501462Y-15106476D01*
X9463367Y-15106476D01*
X9444319Y-15096952D01*
X9434795Y-15077905D01*
X9434795Y-15001714D01*
X9444319Y-14982667D01*
X9463367Y-14973143D01*
X9501462Y-14973143D01*
X9520510Y-14982667D01*
X9530033Y-15001714D01*
X9530033Y-15020762D01*
X9434795Y-15039809D01*
X9606224Y-15096952D02*
X9625271Y-15106476D01*
X9663367Y-15106476D01*
X9682414Y-15096952D01*
X9691938Y-15077905D01*
X9691938Y-15068381D01*
X9682414Y-15049333D01*
X9663367Y-15039809D01*
X9634795Y-15039809D01*
X9615748Y-15030286D01*
X9606224Y-15011238D01*
X9606224Y-15001714D01*
X9615748Y-14982667D01*
X9634795Y-14973143D01*
X9663367Y-14973143D01*
X9682414Y-14982667D01*
X9758605Y-15182667D02*
X9768129Y-15173143D01*
X9787176Y-15144571D01*
X9796700Y-15125524D01*
X9806224Y-15096952D01*
X9815748Y-15049333D01*
X9815748Y-15011238D01*
X9806224Y-14963619D01*
X9796700Y-14935048D01*
X9787176Y-14916000D01*
X9768129Y-14887428D01*
X9758605Y-14877905D01*
D19*
X4856700Y-15215000D02*
X4986700Y-15345000D01*
X4986700Y-15215000D02*
X4856700Y-15345000D01*
X4967662Y-15325962D02*
X4967662Y-15234038D01*
X4875738Y-15234038D01*
X4875738Y-15325962D01*
X4967662Y-15325962D01*
D11*
X5349081Y-15370476D02*
X5234795Y-15370476D01*
X5291938Y-15370476D02*
X5291938Y-15170476D01*
X5272890Y-15199048D01*
X5253843Y-15218095D01*
X5234795Y-15227619D01*
X5434795Y-15351428D02*
X5444319Y-15360952D01*
X5434795Y-15370476D01*
X5425271Y-15360952D01*
X5434795Y-15351428D01*
X5434795Y-15370476D01*
X5510986Y-15170476D02*
X5634795Y-15170476D01*
X5568129Y-15246667D01*
X5596700Y-15246667D01*
X5615748Y-15256190D01*
X5625271Y-15265714D01*
X5634795Y-15284762D01*
X5634795Y-15332381D01*
X5625271Y-15351428D01*
X5615748Y-15360952D01*
X5596700Y-15370476D01*
X5539557Y-15370476D01*
X5520510Y-15360952D01*
X5510986Y-15351428D01*
X5758605Y-15170476D02*
X5777652Y-15170476D01*
X5796700Y-15180000D01*
X5806224Y-15189524D01*
X5815748Y-15208571D01*
X5825271Y-15246667D01*
X5825271Y-15294286D01*
X5815748Y-15332381D01*
X5806224Y-15351428D01*
X5796700Y-15360952D01*
X5777652Y-15370476D01*
X5758605Y-15370476D01*
X5739557Y-15360952D01*
X5730033Y-15351428D01*
X5720509Y-15332381D01*
X5710986Y-15294286D01*
X5710986Y-15246667D01*
X5720509Y-15208571D01*
X5730033Y-15189524D01*
X5739557Y-15180000D01*
X5758605Y-15170476D01*
X5949081Y-15170476D02*
X5968128Y-15170476D01*
X5987176Y-15180000D01*
X5996700Y-15189524D01*
X6006224Y-15208571D01*
X6015748Y-15246667D01*
X6015748Y-15294286D01*
X6006224Y-15332381D01*
X5996700Y-15351428D01*
X5987176Y-15360952D01*
X5968128Y-15370476D01*
X5949081Y-15370476D01*
X5930033Y-15360952D01*
X5920509Y-15351428D01*
X5910986Y-15332381D01*
X5901462Y-15294286D01*
X5901462Y-15246667D01*
X5910986Y-15208571D01*
X5920509Y-15189524D01*
X5930033Y-15180000D01*
X5949081Y-15170476D01*
X6101462Y-15370476D02*
X6101462Y-15237143D01*
X6101462Y-15256190D02*
X6110986Y-15246667D01*
X6130033Y-15237143D01*
X6158605Y-15237143D01*
X6177652Y-15246667D01*
X6187176Y-15265714D01*
X6187176Y-15370476D01*
X6187176Y-15265714D02*
X6196700Y-15246667D01*
X6215748Y-15237143D01*
X6244319Y-15237143D01*
X6263367Y-15246667D01*
X6272890Y-15265714D01*
X6272890Y-15370476D01*
X6368128Y-15370476D02*
X6368128Y-15237143D01*
X6368128Y-15256190D02*
X6377652Y-15246667D01*
X6396700Y-15237143D01*
X6425271Y-15237143D01*
X6444319Y-15246667D01*
X6453843Y-15265714D01*
X6453843Y-15370476D01*
X6453843Y-15265714D02*
X6463367Y-15246667D01*
X6482414Y-15237143D01*
X6510986Y-15237143D01*
X6530033Y-15246667D01*
X6539557Y-15265714D01*
X6539557Y-15370476D01*
X6930033Y-15160952D02*
X6758605Y-15418095D01*
X7187176Y-15170476D02*
X7206224Y-15170476D01*
X7225271Y-15180000D01*
X7234795Y-15189524D01*
X7244319Y-15208571D01*
X7253843Y-15246667D01*
X7253843Y-15294286D01*
X7244319Y-15332381D01*
X7234795Y-15351428D01*
X7225271Y-15360952D01*
X7206224Y-15370476D01*
X7187176Y-15370476D01*
X7168128Y-15360952D01*
X7158605Y-15351428D01*
X7149081Y-15332381D01*
X7139557Y-15294286D01*
X7139557Y-15246667D01*
X7149081Y-15208571D01*
X7158605Y-15189524D01*
X7168128Y-15180000D01*
X7187176Y-15170476D01*
X7339557Y-15351428D02*
X7349081Y-15360952D01*
X7339557Y-15370476D01*
X7330033Y-15360952D01*
X7339557Y-15351428D01*
X7339557Y-15370476D01*
X7472890Y-15170476D02*
X7491938Y-15170476D01*
X7510986Y-15180000D01*
X7520509Y-15189524D01*
X7530033Y-15208571D01*
X7539557Y-15246667D01*
X7539557Y-15294286D01*
X7530033Y-15332381D01*
X7520509Y-15351428D01*
X7510986Y-15360952D01*
X7491938Y-15370476D01*
X7472890Y-15370476D01*
X7453843Y-15360952D01*
X7444319Y-15351428D01*
X7434795Y-15332381D01*
X7425271Y-15294286D01*
X7425271Y-15246667D01*
X7434795Y-15208571D01*
X7444319Y-15189524D01*
X7453843Y-15180000D01*
X7472890Y-15170476D01*
X7720509Y-15170476D02*
X7625271Y-15170476D01*
X7615748Y-15265714D01*
X7625271Y-15256190D01*
X7644319Y-15246667D01*
X7691938Y-15246667D01*
X7710986Y-15256190D01*
X7720509Y-15265714D01*
X7730033Y-15284762D01*
X7730033Y-15332381D01*
X7720509Y-15351428D01*
X7710986Y-15360952D01*
X7691938Y-15370476D01*
X7644319Y-15370476D01*
X7625271Y-15360952D01*
X7615748Y-15351428D01*
X7920509Y-15370476D02*
X7806224Y-15370476D01*
X7863367Y-15370476D02*
X7863367Y-15170476D01*
X7844319Y-15199048D01*
X7825271Y-15218095D01*
X7806224Y-15227619D01*
X7996700Y-15189524D02*
X8006224Y-15180000D01*
X8025271Y-15170476D01*
X8072890Y-15170476D01*
X8091938Y-15180000D01*
X8101462Y-15189524D01*
X8110986Y-15208571D01*
X8110986Y-15227619D01*
X8101462Y-15256190D01*
X7987176Y-15370476D01*
X8110986Y-15370476D01*
X8187176Y-15170476D02*
X8187176Y-15208571D01*
X8263367Y-15170476D02*
X8263367Y-15208571D01*
X8558605Y-15446667D02*
X8549081Y-15437143D01*
X8530033Y-15408571D01*
X8520510Y-15389524D01*
X8510986Y-15360952D01*
X8501462Y-15313333D01*
X8501462Y-15275238D01*
X8510986Y-15227619D01*
X8520510Y-15199048D01*
X8530033Y-15180000D01*
X8549081Y-15151428D01*
X8558605Y-15141905D01*
X8625271Y-15189524D02*
X8634795Y-15180000D01*
X8653843Y-15170476D01*
X8701462Y-15170476D01*
X8720510Y-15180000D01*
X8730033Y-15189524D01*
X8739557Y-15208571D01*
X8739557Y-15227619D01*
X8730033Y-15256190D01*
X8615748Y-15370476D01*
X8739557Y-15370476D01*
X8977652Y-15370476D02*
X8977652Y-15170476D01*
X9063367Y-15370476D02*
X9063367Y-15265714D01*
X9053843Y-15246667D01*
X9034795Y-15237143D01*
X9006224Y-15237143D01*
X8987176Y-15246667D01*
X8977652Y-15256190D01*
X9187176Y-15370476D02*
X9168129Y-15360952D01*
X9158605Y-15351428D01*
X9149081Y-15332381D01*
X9149081Y-15275238D01*
X9158605Y-15256190D01*
X9168129Y-15246667D01*
X9187176Y-15237143D01*
X9215748Y-15237143D01*
X9234795Y-15246667D01*
X9244319Y-15256190D01*
X9253843Y-15275238D01*
X9253843Y-15332381D01*
X9244319Y-15351428D01*
X9234795Y-15360952D01*
X9215748Y-15370476D01*
X9187176Y-15370476D01*
X9368129Y-15370476D02*
X9349081Y-15360952D01*
X9339557Y-15341905D01*
X9339557Y-15170476D01*
X9520510Y-15360952D02*
X9501462Y-15370476D01*
X9463367Y-15370476D01*
X9444319Y-15360952D01*
X9434795Y-15341905D01*
X9434795Y-15265714D01*
X9444319Y-15246667D01*
X9463367Y-15237143D01*
X9501462Y-15237143D01*
X9520510Y-15246667D01*
X9530033Y-15265714D01*
X9530033Y-15284762D01*
X9434795Y-15303809D01*
X9606224Y-15360952D02*
X9625271Y-15370476D01*
X9663367Y-15370476D01*
X9682414Y-15360952D01*
X9691938Y-15341905D01*
X9691938Y-15332381D01*
X9682414Y-15313333D01*
X9663367Y-15303809D01*
X9634795Y-15303809D01*
X9615748Y-15294286D01*
X9606224Y-15275238D01*
X9606224Y-15265714D01*
X9615748Y-15246667D01*
X9634795Y-15237143D01*
X9663367Y-15237143D01*
X9682414Y-15246667D01*
X9758605Y-15446667D02*
X9768129Y-15437143D01*
X9787176Y-15408571D01*
X9796700Y-15389524D01*
X9806224Y-15360952D01*
X9815748Y-15313333D01*
X9815748Y-15275238D01*
X9806224Y-15227619D01*
X9796700Y-15199048D01*
X9787176Y-15180000D01*
X9768129Y-15151428D01*
X9758605Y-15141905D01*
D20*
X4787700Y-15444500D02*
X4986700Y-15643500D01*
X4986700Y-15444500D02*
X4787700Y-15643500D01*
X4887200Y-15643500D02*
X4986700Y-15544000D01*
X4887200Y-15444500D01*
X4787700Y-15544000D01*
X4887200Y-15643500D01*
D11*
X5349081Y-15634476D02*
X5234795Y-15634476D01*
X5291938Y-15634476D02*
X5291938Y-15434476D01*
X5272890Y-15463048D01*
X5253843Y-15482095D01*
X5234795Y-15491619D01*
X5434795Y-15615428D02*
X5444319Y-15624952D01*
X5434795Y-15634476D01*
X5425271Y-15624952D01*
X5434795Y-15615428D01*
X5434795Y-15634476D01*
X5539557Y-15634476D02*
X5577652Y-15634476D01*
X5596700Y-15624952D01*
X5606224Y-15615428D01*
X5625271Y-15586857D01*
X5634795Y-15548762D01*
X5634795Y-15472571D01*
X5625271Y-15453524D01*
X5615748Y-15444000D01*
X5596700Y-15434476D01*
X5558605Y-15434476D01*
X5539557Y-15444000D01*
X5530033Y-15453524D01*
X5520510Y-15472571D01*
X5520510Y-15520190D01*
X5530033Y-15539238D01*
X5539557Y-15548762D01*
X5558605Y-15558286D01*
X5596700Y-15558286D01*
X5615748Y-15548762D01*
X5625271Y-15539238D01*
X5634795Y-15520190D01*
X5730033Y-15634476D02*
X5768128Y-15634476D01*
X5787176Y-15624952D01*
X5796700Y-15615428D01*
X5815748Y-15586857D01*
X5825271Y-15548762D01*
X5825271Y-15472571D01*
X5815748Y-15453524D01*
X5806224Y-15444000D01*
X5787176Y-15434476D01*
X5749081Y-15434476D01*
X5730033Y-15444000D01*
X5720509Y-15453524D01*
X5710986Y-15472571D01*
X5710986Y-15520190D01*
X5720509Y-15539238D01*
X5730033Y-15548762D01*
X5749081Y-15558286D01*
X5787176Y-15558286D01*
X5806224Y-15548762D01*
X5815748Y-15539238D01*
X5825271Y-15520190D01*
X5949081Y-15434476D02*
X5968128Y-15434476D01*
X5987176Y-15444000D01*
X5996700Y-15453524D01*
X6006224Y-15472571D01*
X6015748Y-15510667D01*
X6015748Y-15558286D01*
X6006224Y-15596381D01*
X5996700Y-15615428D01*
X5987176Y-15624952D01*
X5968128Y-15634476D01*
X5949081Y-15634476D01*
X5930033Y-15624952D01*
X5920509Y-15615428D01*
X5910986Y-15596381D01*
X5901462Y-15558286D01*
X5901462Y-15510667D01*
X5910986Y-15472571D01*
X5920509Y-15453524D01*
X5930033Y-15444000D01*
X5949081Y-15434476D01*
X6101462Y-15634476D02*
X6101462Y-15501143D01*
X6101462Y-15520190D02*
X6110986Y-15510667D01*
X6130033Y-15501143D01*
X6158605Y-15501143D01*
X6177652Y-15510667D01*
X6187176Y-15529714D01*
X6187176Y-15634476D01*
X6187176Y-15529714D02*
X6196700Y-15510667D01*
X6215748Y-15501143D01*
X6244319Y-15501143D01*
X6263367Y-15510667D01*
X6272890Y-15529714D01*
X6272890Y-15634476D01*
X6368128Y-15634476D02*
X6368128Y-15501143D01*
X6368128Y-15520190D02*
X6377652Y-15510667D01*
X6396700Y-15501143D01*
X6425271Y-15501143D01*
X6444319Y-15510667D01*
X6453843Y-15529714D01*
X6453843Y-15634476D01*
X6453843Y-15529714D02*
X6463367Y-15510667D01*
X6482414Y-15501143D01*
X6510986Y-15501143D01*
X6530033Y-15510667D01*
X6539557Y-15529714D01*
X6539557Y-15634476D01*
X6930033Y-15424952D02*
X6758605Y-15682095D01*
X7187176Y-15434476D02*
X7206224Y-15434476D01*
X7225271Y-15444000D01*
X7234795Y-15453524D01*
X7244319Y-15472571D01*
X7253843Y-15510667D01*
X7253843Y-15558286D01*
X7244319Y-15596381D01*
X7234795Y-15615428D01*
X7225271Y-15624952D01*
X7206224Y-15634476D01*
X7187176Y-15634476D01*
X7168128Y-15624952D01*
X7158605Y-15615428D01*
X7149081Y-15596381D01*
X7139557Y-15558286D01*
X7139557Y-15510667D01*
X7149081Y-15472571D01*
X7158605Y-15453524D01*
X7168128Y-15444000D01*
X7187176Y-15434476D01*
X7339557Y-15615428D02*
X7349081Y-15624952D01*
X7339557Y-15634476D01*
X7330033Y-15624952D01*
X7339557Y-15615428D01*
X7339557Y-15634476D01*
X7472890Y-15434476D02*
X7491938Y-15434476D01*
X7510986Y-15444000D01*
X7520509Y-15453524D01*
X7530033Y-15472571D01*
X7539557Y-15510667D01*
X7539557Y-15558286D01*
X7530033Y-15596381D01*
X7520509Y-15615428D01*
X7510986Y-15624952D01*
X7491938Y-15634476D01*
X7472890Y-15634476D01*
X7453843Y-15624952D01*
X7444319Y-15615428D01*
X7434795Y-15596381D01*
X7425271Y-15558286D01*
X7425271Y-15510667D01*
X7434795Y-15472571D01*
X7444319Y-15453524D01*
X7453843Y-15444000D01*
X7472890Y-15434476D01*
X7606224Y-15434476D02*
X7739557Y-15434476D01*
X7653843Y-15634476D01*
X7844319Y-15520190D02*
X7825271Y-15510667D01*
X7815748Y-15501143D01*
X7806224Y-15482095D01*
X7806224Y-15472571D01*
X7815748Y-15453524D01*
X7825271Y-15444000D01*
X7844319Y-15434476D01*
X7882414Y-15434476D01*
X7901462Y-15444000D01*
X7910986Y-15453524D01*
X7920509Y-15472571D01*
X7920509Y-15482095D01*
X7910986Y-15501143D01*
X7901462Y-15510667D01*
X7882414Y-15520190D01*
X7844319Y-15520190D01*
X7825271Y-15529714D01*
X7815748Y-15539238D01*
X7806224Y-15558286D01*
X7806224Y-15596381D01*
X7815748Y-15615428D01*
X7825271Y-15624952D01*
X7844319Y-15634476D01*
X7882414Y-15634476D01*
X7901462Y-15624952D01*
X7910986Y-15615428D01*
X7920509Y-15596381D01*
X7920509Y-15558286D01*
X7910986Y-15539238D01*
X7901462Y-15529714D01*
X7882414Y-15520190D01*
X7987176Y-15434476D02*
X8110986Y-15434476D01*
X8044319Y-15510667D01*
X8072890Y-15510667D01*
X8091938Y-15520190D01*
X8101462Y-15529714D01*
X8110986Y-15548762D01*
X8110986Y-15596381D01*
X8101462Y-15615428D01*
X8091938Y-15624952D01*
X8072890Y-15634476D01*
X8015748Y-15634476D01*
X7996700Y-15624952D01*
X7987176Y-15615428D01*
X8187176Y-15434476D02*
X8187176Y-15472571D01*
X8263367Y-15434476D02*
X8263367Y-15472571D01*
X8558605Y-15710667D02*
X8549081Y-15701143D01*
X8530033Y-15672571D01*
X8520510Y-15653524D01*
X8510986Y-15624952D01*
X8501462Y-15577333D01*
X8501462Y-15539238D01*
X8510986Y-15491619D01*
X8520510Y-15463048D01*
X8530033Y-15444000D01*
X8549081Y-15415428D01*
X8558605Y-15405905D01*
X8615748Y-15434476D02*
X8739557Y-15434476D01*
X8672890Y-15510667D01*
X8701462Y-15510667D01*
X8720510Y-15520190D01*
X8730033Y-15529714D01*
X8739557Y-15548762D01*
X8739557Y-15596381D01*
X8730033Y-15615428D01*
X8720510Y-15624952D01*
X8701462Y-15634476D01*
X8644319Y-15634476D01*
X8625271Y-15624952D01*
X8615748Y-15615428D01*
X8815748Y-15453524D02*
X8825271Y-15444000D01*
X8844319Y-15434476D01*
X8891938Y-15434476D01*
X8910986Y-15444000D01*
X8920510Y-15453524D01*
X8930033Y-15472571D01*
X8930033Y-15491619D01*
X8920510Y-15520190D01*
X8806224Y-15634476D01*
X8930033Y-15634476D01*
X9168129Y-15634476D02*
X9168129Y-15434476D01*
X9253843Y-15634476D02*
X9253843Y-15529714D01*
X9244319Y-15510667D01*
X9225271Y-15501143D01*
X9196700Y-15501143D01*
X9177652Y-15510667D01*
X9168129Y-15520190D01*
X9377652Y-15634476D02*
X9358605Y-15624952D01*
X9349081Y-15615428D01*
X9339557Y-15596381D01*
X9339557Y-15539238D01*
X9349081Y-15520190D01*
X9358605Y-15510667D01*
X9377652Y-15501143D01*
X9406224Y-15501143D01*
X9425271Y-15510667D01*
X9434795Y-15520190D01*
X9444319Y-15539238D01*
X9444319Y-15596381D01*
X9434795Y-15615428D01*
X9425271Y-15624952D01*
X9406224Y-15634476D01*
X9377652Y-15634476D01*
X9558605Y-15634476D02*
X9539557Y-15624952D01*
X9530033Y-15605905D01*
X9530033Y-15434476D01*
X9710986Y-15624952D02*
X9691938Y-15634476D01*
X9653843Y-15634476D01*
X9634795Y-15624952D01*
X9625271Y-15605905D01*
X9625271Y-15529714D01*
X9634795Y-15510667D01*
X9653843Y-15501143D01*
X9691938Y-15501143D01*
X9710986Y-15510667D01*
X9720510Y-15529714D01*
X9720510Y-15548762D01*
X9625271Y-15567809D01*
X9796700Y-15624952D02*
X9815748Y-15634476D01*
X9853843Y-15634476D01*
X9872890Y-15624952D01*
X9882414Y-15605905D01*
X9882414Y-15596381D01*
X9872890Y-15577333D01*
X9853843Y-15567809D01*
X9825271Y-15567809D01*
X9806224Y-15558286D01*
X9796700Y-15539238D01*
X9796700Y-15529714D01*
X9806224Y-15510667D01*
X9825271Y-15501143D01*
X9853843Y-15501143D01*
X9872890Y-15510667D01*
X9949081Y-15710667D02*
X9958605Y-15701143D01*
X9977652Y-15672571D01*
X9987176Y-15653524D01*
X9996700Y-15624952D01*
X10006224Y-15577333D01*
X10006224Y-15539238D01*
X9996700Y-15491619D01*
X9987176Y-15463048D01*
X9977652Y-15444000D01*
X9958605Y-15415428D01*
X9949081Y-15405905D01*
M02*
