%TF.GenerationSoftware,KiCad,Pcbnew,(6.0.0)*%
%TF.CreationDate,2022-01-24T17:43:35-05:00*%
%TF.ProjectId,TI thermostat esp32,54492074-6865-4726-9d6f-737461742065,rev?*%
%TF.SameCoordinates,Original*%
%TF.FileFunction,Paste,Top*%
%TF.FilePolarity,Positive*%
%FSLAX46Y46*%
G04 Gerber Fmt 4.6, Leading zero omitted, Abs format (unit mm)*
G04 Created by KiCad (PCBNEW (6.0.0)) date 2022-01-24 17:43:35*
%MOMM*%
%LPD*%
G01*
G04 APERTURE LIST*
G04 Aperture macros list*
%AMRoundRect*
0 Rectangle with rounded corners*
0 $1 Rounding radius*
0 $2 $3 $4 $5 $6 $7 $8 $9 X,Y pos of 4 corners*
0 Add a 4 corners polygon primitive as box body*
4,1,4,$2,$3,$4,$5,$6,$7,$8,$9,$2,$3,0*
0 Add four circle primitives for the rounded corners*
1,1,$1+$1,$2,$3*
1,1,$1+$1,$4,$5*
1,1,$1+$1,$6,$7*
1,1,$1+$1,$8,$9*
0 Add four rect primitives between the rounded corners*
20,1,$1+$1,$2,$3,$4,$5,0*
20,1,$1+$1,$4,$5,$6,$7,0*
20,1,$1+$1,$6,$7,$8,$9,0*
20,1,$1+$1,$8,$9,$2,$3,0*%
G04 Aperture macros list end*
%ADD10R,1.800000X2.500000*%
%ADD11RoundRect,0.137500X-0.862500X-0.137500X0.862500X-0.137500X0.862500X0.137500X-0.862500X0.137500X0*%
%ADD12RoundRect,0.200000X0.200000X0.275000X-0.200000X0.275000X-0.200000X-0.275000X0.200000X-0.275000X0*%
%ADD13RoundRect,0.200000X-0.275000X0.200000X-0.275000X-0.200000X0.275000X-0.200000X0.275000X0.200000X0*%
%ADD14RoundRect,0.225000X-0.250000X0.225000X-0.250000X-0.225000X0.250000X-0.225000X0.250000X0.225000X0*%
%ADD15R,3.400000X5.100000*%
%ADD16RoundRect,0.150000X0.150000X-0.825000X0.150000X0.825000X-0.150000X0.825000X-0.150000X-0.825000X0*%
%ADD17RoundRect,0.218750X0.218750X0.256250X-0.218750X0.256250X-0.218750X-0.256250X0.218750X-0.256250X0*%
%ADD18RoundRect,0.225000X-0.225000X-0.250000X0.225000X-0.250000X0.225000X0.250000X-0.225000X0.250000X0*%
%ADD19RoundRect,0.225000X0.250000X-0.225000X0.250000X0.225000X-0.250000X0.225000X-0.250000X-0.225000X0*%
%ADD20R,1.500000X2.000000*%
%ADD21R,3.800000X2.000000*%
%ADD22RoundRect,0.225000X0.225000X0.250000X-0.225000X0.250000X-0.225000X-0.250000X0.225000X-0.250000X0*%
%ADD23RoundRect,0.200000X0.275000X-0.200000X0.275000X0.200000X-0.275000X0.200000X-0.275000X-0.200000X0*%
%ADD24RoundRect,0.200000X-0.200000X-0.275000X0.200000X-0.275000X0.200000X0.275000X-0.200000X0.275000X0*%
%ADD25RoundRect,0.150000X-0.825000X-0.150000X0.825000X-0.150000X0.825000X0.150000X-0.825000X0.150000X0*%
G04 APERTURE END LIST*
D10*
%TO.C,D9*%
X111153489Y-120939511D03*
X111153489Y-124939511D03*
%TD*%
D11*
%TO.C,U6*%
X82980000Y-64135000D03*
X82980000Y-65405000D03*
X82980000Y-66675000D03*
X82980000Y-67945000D03*
X82980000Y-69215000D03*
X82980000Y-70485000D03*
X82980000Y-71755000D03*
X82980000Y-73025000D03*
X82980000Y-74295000D03*
X82980000Y-75565000D03*
X82980000Y-76835000D03*
X82980000Y-78105000D03*
X92280000Y-78105000D03*
X92280000Y-76835000D03*
X92280000Y-75565000D03*
X92280000Y-74295000D03*
X92280000Y-73025000D03*
X92280000Y-71755000D03*
X92280000Y-70485000D03*
X92280000Y-69215000D03*
X92280000Y-67945000D03*
X92280000Y-66675000D03*
X92280000Y-65405000D03*
X92280000Y-64135000D03*
%TD*%
D12*
%TO.C,R24*%
X196532000Y-79248000D03*
X194882000Y-79248000D03*
%TD*%
D13*
%TO.C,R27*%
X192024000Y-121857000D03*
X192024000Y-123507000D03*
%TD*%
D14*
%TO.C,C8*%
X83439000Y-105905000D03*
X83439000Y-107455000D03*
%TD*%
D10*
%TO.C,D7*%
X107470489Y-124939511D03*
X107470489Y-120939511D03*
%TD*%
D15*
%TO.C,L1*%
X192027000Y-100076000D03*
X201927000Y-100076000D03*
%TD*%
D16*
%TO.C,U5*%
X164973000Y-93788000D03*
X166243000Y-93788000D03*
X167513000Y-93788000D03*
X168783000Y-93788000D03*
X170053000Y-93788000D03*
X171323000Y-93788000D03*
X172593000Y-93788000D03*
X172593000Y-88838000D03*
X171323000Y-88838000D03*
X170053000Y-88838000D03*
X168783000Y-88838000D03*
X167513000Y-88838000D03*
X166243000Y-88838000D03*
X164973000Y-88838000D03*
%TD*%
D12*
%TO.C,R26*%
X197167000Y-121412000D03*
X195517000Y-121412000D03*
%TD*%
D17*
%TO.C,D5*%
X209296000Y-93472000D03*
X207721000Y-93472000D03*
%TD*%
D18*
%TO.C,C9*%
X151879000Y-65151000D03*
X153429000Y-65151000D03*
%TD*%
D16*
%TO.C,U7*%
X145034000Y-93788000D03*
X146304000Y-93788000D03*
X147574000Y-93788000D03*
X148844000Y-93788000D03*
X150114000Y-93788000D03*
X151384000Y-93788000D03*
X152654000Y-93788000D03*
X152654000Y-88838000D03*
X151384000Y-88838000D03*
X150114000Y-88838000D03*
X148844000Y-88838000D03*
X147574000Y-88838000D03*
X146304000Y-88838000D03*
X145034000Y-88838000D03*
%TD*%
D10*
%TO.C,D8*%
X118519489Y-120939511D03*
X118519489Y-124939511D03*
%TD*%
D14*
%TO.C,C2*%
X102362000Y-70726000D03*
X102362000Y-72276000D03*
%TD*%
D19*
%TO.C,C1*%
X163449000Y-91961000D03*
X163449000Y-90411000D03*
%TD*%
D20*
%TO.C,U8*%
X205853000Y-104115000D03*
D21*
X208153000Y-97815000D03*
D20*
X208153000Y-104115000D03*
X210453000Y-104115000D03*
%TD*%
D13*
%TO.C,R9*%
X104394000Y-70676000D03*
X104394000Y-72326000D03*
%TD*%
D22*
%TO.C,C15*%
X212865000Y-78994000D03*
X211315000Y-78994000D03*
%TD*%
D23*
%TO.C,R15*%
X205994000Y-95440000D03*
X205994000Y-93790000D03*
%TD*%
D24*
%TO.C,R25*%
X192342000Y-118618000D03*
X193992000Y-118618000D03*
%TD*%
D12*
%TO.C,R14*%
X196532000Y-80772000D03*
X194882000Y-80772000D03*
%TD*%
D18*
%TO.C,C11*%
X209537000Y-63500000D03*
X211087000Y-63500000D03*
%TD*%
D10*
%TO.C,D6*%
X114836489Y-124939511D03*
X114836489Y-120939511D03*
%TD*%
D19*
%TO.C,C3*%
X143383000Y-91834000D03*
X143383000Y-90284000D03*
%TD*%
D18*
%TO.C,C17*%
X195821000Y-118618000D03*
X197371000Y-118618000D03*
%TD*%
D25*
%TO.C,U9*%
X209615000Y-80645000D03*
X209615000Y-81915000D03*
X209615000Y-83185000D03*
X209615000Y-84455000D03*
X209615000Y-85725000D03*
X209615000Y-86995000D03*
X209615000Y-88265000D03*
X209615000Y-89535000D03*
X214565000Y-89535000D03*
X214565000Y-88265000D03*
X214565000Y-86995000D03*
X214565000Y-85725000D03*
X214565000Y-84455000D03*
X214565000Y-83185000D03*
X214565000Y-81915000D03*
X214565000Y-80645000D03*
%TD*%
D19*
%TO.C,C10*%
X158496000Y-66942000D03*
X158496000Y-65392000D03*
%TD*%
M02*
