%TF.GenerationSoftware,KiCad,Pcbnew,(6.0.0)*%
%TF.CreationDate,2022-01-24T17:43:36-05:00*%
%TF.ProjectId,TI thermostat esp32,54492074-6865-4726-9d6f-737461742065,rev?*%
%TF.SameCoordinates,Original*%
%TF.FileFunction,Soldermask,Bot*%
%TF.FilePolarity,Negative*%
%FSLAX46Y46*%
G04 Gerber Fmt 4.6, Leading zero omitted, Abs format (unit mm)*
G04 Created by KiCad (PCBNEW (6.0.0)) date 2022-01-24 17:43:36*
%MOMM*%
%LPD*%
G01*
G04 APERTURE LIST*
G04 Aperture macros list*
%AMRoundRect*
0 Rectangle with rounded corners*
0 $1 Rounding radius*
0 $2 $3 $4 $5 $6 $7 $8 $9 X,Y pos of 4 corners*
0 Add a 4 corners polygon primitive as box body*
4,1,4,$2,$3,$4,$5,$6,$7,$8,$9,$2,$3,0*
0 Add four circle primitives for the rounded corners*
1,1,$1+$1,$2,$3*
1,1,$1+$1,$4,$5*
1,1,$1+$1,$6,$7*
1,1,$1+$1,$8,$9*
0 Add four rect primitives between the rounded corners*
20,1,$1+$1,$2,$3,$4,$5,0*
20,1,$1+$1,$4,$5,$6,$7,0*
20,1,$1+$1,$6,$7,$8,$9,0*
20,1,$1+$1,$8,$9,$2,$3,0*%
G04 Aperture macros list end*
%ADD10R,1.600000X1.600000*%
%ADD11C,1.600000*%
%ADD12R,1.700000X1.700000*%
%ADD13C,3.220000*%
%ADD14O,1.700000X1.700000*%
%ADD15C,3.660000*%
%ADD16C,2.100000*%
%ADD17C,1.750000*%
%ADD18RoundRect,0.218750X0.256250X-0.218750X0.256250X0.218750X-0.256250X0.218750X-0.256250X-0.218750X0*%
%ADD19O,3.200000X3.200000*%
%ADD20R,1.800000X1.800000*%
%ADD21O,1.800000X1.800000*%
%ADD22RoundRect,0.200000X0.275000X-0.200000X0.275000X0.200000X-0.275000X0.200000X-0.275000X-0.200000X0*%
%ADD23RoundRect,0.225000X-0.225000X-0.250000X0.225000X-0.250000X0.225000X0.250000X-0.225000X0.250000X0*%
%ADD24O,1.600000X1.600000*%
%ADD25O,1.408000X2.816000*%
%ADD26R,2.000000X0.900000*%
%ADD27R,1.330000X1.330000*%
%ADD28RoundRect,0.200000X-0.200000X-0.275000X0.200000X-0.275000X0.200000X0.275000X-0.200000X0.275000X0*%
%ADD29RoundRect,0.200000X0.200000X0.275000X-0.200000X0.275000X-0.200000X-0.275000X0.200000X-0.275000X0*%
%ADD30O,3.500000X3.500000*%
%ADD31R,2.000000X2.000000*%
%ADD32O,2.000000X2.000000*%
%ADD33RoundRect,0.250000X-0.650000X-1.550000X0.650000X-1.550000X0.650000X1.550000X-0.650000X1.550000X0*%
%ADD34O,1.800000X3.600000*%
G04 APERTURE END LIST*
D10*
%TO.C,C16*%
X186309000Y-121139606D03*
D11*
X186309000Y-123639606D03*
%TD*%
D12*
%TO.C,B1*%
X219710000Y-118000000D03*
%TD*%
%TO.C,B9*%
X219710000Y-64175000D03*
%TD*%
D13*
%TO.C,S3*%
X56267000Y-99865000D03*
X56267000Y-104475000D03*
X56267000Y-109085000D03*
X56267000Y-113695000D03*
X63437000Y-99865000D03*
X63437000Y-104475000D03*
X63437000Y-109085000D03*
X63437000Y-113695000D03*
%TD*%
D12*
%TO.C,J4*%
X161168000Y-67372000D03*
D14*
X161168000Y-64832000D03*
X163708000Y-67372000D03*
X163708000Y-64832000D03*
X166248000Y-67372000D03*
X166248000Y-64832000D03*
X168788000Y-67372000D03*
X168788000Y-64832000D03*
X171328000Y-67372000D03*
X171328000Y-64832000D03*
%TD*%
D12*
%TO.C,B6*%
X219710000Y-83270000D03*
%TD*%
%TO.C,DS1*%
X72827000Y-84450000D03*
D14*
X75367000Y-84450000D03*
X77907000Y-84450000D03*
X80447000Y-84450000D03*
X82987000Y-84450000D03*
X85527000Y-84450000D03*
X88067000Y-84450000D03*
X90607000Y-84450000D03*
X93147000Y-84450000D03*
X95687000Y-84450000D03*
X98227000Y-84450000D03*
X100767000Y-84450000D03*
X103307000Y-84450000D03*
X105847000Y-84450000D03*
X108387000Y-84450000D03*
%TD*%
D10*
%TO.C,C5*%
X213106000Y-96586113D03*
D11*
X213106000Y-94586113D03*
%TD*%
D15*
%TO.C,REF4*%
X53257000Y-124360000D03*
%TD*%
D12*
%TO.C,B2*%
X219710000Y-107950000D03*
%TD*%
%TO.C,B5*%
X219710000Y-89440000D03*
%TD*%
D15*
%TO.C,REF3*%
X219767000Y-57740000D03*
%TD*%
D12*
%TO.C,J5*%
X178689000Y-67437000D03*
D14*
X178689000Y-64897000D03*
X181229000Y-67437000D03*
X181229000Y-64897000D03*
X183769000Y-67437000D03*
X183769000Y-64897000D03*
%TD*%
D13*
%TO.C,S1*%
X86557000Y-99865000D03*
X86557000Y-104475000D03*
X86557000Y-109085000D03*
X93727000Y-99865000D03*
X93727000Y-104475000D03*
X93727000Y-109085000D03*
X86557000Y-113695000D03*
X93727000Y-113695000D03*
%TD*%
D12*
%TO.C,J1*%
X64643000Y-68707000D03*
D14*
X64643000Y-71247000D03*
X64643000Y-73787000D03*
X64643000Y-76327000D03*
%TD*%
D15*
%TO.C,REF6*%
X219767000Y-124360000D03*
%TD*%
%TO.C,REF1*%
X53257000Y-57740000D03*
%TD*%
D10*
%TO.C,C18*%
X209949395Y-111252000D03*
D11*
X207449395Y-111252000D03*
%TD*%
D16*
%TO.C,SW1*%
X156266000Y-62146500D03*
X149256000Y-62146500D03*
D17*
X150506000Y-59656500D03*
X155006000Y-59656500D03*
%TD*%
D13*
%TO.C,S4*%
X112267000Y-99865000D03*
X112267000Y-104475000D03*
X112267000Y-109085000D03*
X112267000Y-113695000D03*
X119437000Y-99865000D03*
X119437000Y-104475000D03*
X119437000Y-109085000D03*
X119437000Y-113695000D03*
%TD*%
D12*
%TO.C,B3*%
X219710000Y-101780000D03*
%TD*%
%TO.C,B8*%
X219710000Y-70930000D03*
%TD*%
D13*
%TO.C,S2*%
X67417000Y-99865000D03*
X67417000Y-104475000D03*
X67417000Y-109085000D03*
X67417000Y-113695000D03*
X74587000Y-99865000D03*
X74587000Y-104475000D03*
X74587000Y-109085000D03*
X74587000Y-113695000D03*
%TD*%
D12*
%TO.C,B4*%
X219710000Y-95610000D03*
%TD*%
D15*
%TO.C,REF2*%
X135857000Y-57740000D03*
%TD*%
D12*
%TO.C,B7*%
X219710000Y-77100000D03*
%TD*%
D15*
%TO.C,REF5*%
X135857000Y-124360000D03*
%TD*%
D18*
%TO.C,D3*%
X159131000Y-94386500D03*
X159131000Y-92811500D03*
%TD*%
D19*
%TO.C,Q4*%
X176149000Y-122922000D03*
D20*
X173609000Y-111822000D03*
D21*
X176149000Y-111822000D03*
X178689000Y-111822000D03*
%TD*%
D22*
%TO.C,R12*%
X159131000Y-91376000D03*
X159131000Y-89726000D03*
%TD*%
D19*
%TO.C,Q1*%
X145669000Y-122922000D03*
D20*
X143129000Y-111822000D03*
D21*
X145669000Y-111822000D03*
X148209000Y-111822000D03*
%TD*%
D18*
%TO.C,D2*%
X155702000Y-92761000D03*
X155702000Y-91186000D03*
%TD*%
D23*
%TO.C,C14*%
X179184000Y-62230000D03*
X180734000Y-62230000D03*
%TD*%
D10*
%TO.C,U1*%
X143155000Y-98806000D03*
D24*
X145695000Y-98806000D03*
X148235000Y-98806000D03*
X148235000Y-106426000D03*
X145695000Y-106426000D03*
X143155000Y-106426000D03*
%TD*%
D25*
%TO.C,IC2*%
X188820000Y-116397000D03*
X187120000Y-113767000D03*
X185420000Y-116397000D03*
X183720000Y-113767000D03*
X182020000Y-116397000D03*
%TD*%
D18*
%TO.C,D1*%
X143129000Y-95275500D03*
X143129000Y-93700500D03*
%TD*%
D26*
%TO.C,IC1*%
X209176000Y-62674000D03*
X209176000Y-63944000D03*
X209176000Y-65214000D03*
X209176000Y-66484000D03*
X209176000Y-67754000D03*
X209176000Y-69024000D03*
X209176000Y-70294000D03*
X209176000Y-71564000D03*
X209176000Y-72834000D03*
X209176000Y-74104000D03*
X209176000Y-75374000D03*
X209176000Y-76644000D03*
X209176000Y-77914000D03*
X209176000Y-79184000D03*
X209176000Y-80454000D03*
X209176000Y-81724000D03*
X209176000Y-82994000D03*
X209176000Y-84264000D03*
X209176000Y-85534000D03*
X192176000Y-85534000D03*
X192176000Y-84264000D03*
X192176000Y-82994000D03*
X192176000Y-81724000D03*
X192176000Y-80454000D03*
X192176000Y-79184000D03*
X192176000Y-77914000D03*
X192176000Y-76644000D03*
X192176000Y-75374000D03*
X192176000Y-74104000D03*
X192176000Y-72834000D03*
X192176000Y-71564000D03*
X192176000Y-70294000D03*
X192176000Y-69024000D03*
X192176000Y-67754000D03*
X192176000Y-66484000D03*
X192176000Y-65214000D03*
X192176000Y-63944000D03*
X192176000Y-62674000D03*
D27*
X201676000Y-70174000D03*
X203511000Y-68339000D03*
X203511000Y-70174000D03*
X203511000Y-72009000D03*
X201676000Y-72009000D03*
X199841000Y-72009000D03*
X199841000Y-70174000D03*
X199841000Y-68339000D03*
X201676000Y-68339000D03*
%TD*%
D22*
%TO.C,R10*%
X140462000Y-93535000D03*
X140462000Y-91885000D03*
%TD*%
D28*
%TO.C,R1*%
X142965000Y-108331000D03*
X144615000Y-108331000D03*
%TD*%
D10*
%TO.C,U4*%
X173635000Y-98806000D03*
D24*
X176175000Y-98806000D03*
X178715000Y-98806000D03*
X178715000Y-106426000D03*
X176175000Y-106426000D03*
X173635000Y-106426000D03*
%TD*%
D10*
%TO.C,U3*%
X163475000Y-98806000D03*
D24*
X166015000Y-98806000D03*
X168555000Y-98806000D03*
X168555000Y-106426000D03*
X166015000Y-106426000D03*
X163475000Y-106426000D03*
%TD*%
D10*
%TO.C,U2*%
X153315000Y-98806000D03*
D24*
X155855000Y-98806000D03*
X158395000Y-98806000D03*
X158395000Y-106426000D03*
X155855000Y-106426000D03*
X153315000Y-106426000D03*
%TD*%
D19*
%TO.C,Q3*%
X165989000Y-122922000D03*
D20*
X163449000Y-111822000D03*
D21*
X165989000Y-111822000D03*
X168529000Y-111822000D03*
%TD*%
D22*
%TO.C,R20*%
X161036000Y-62420000D03*
X161036000Y-60770000D03*
%TD*%
D29*
%TO.C,R8*%
X175476000Y-96774000D03*
X173826000Y-96774000D03*
%TD*%
D30*
%TO.C,D10*%
X197104000Y-98234000D03*
D31*
X194564000Y-114894000D03*
D32*
X199644000Y-114894000D03*
%TD*%
D33*
%TO.C,J6*%
X70413000Y-125106500D03*
D34*
X74223000Y-125106500D03*
X78033000Y-125106500D03*
X81843000Y-125106500D03*
X85653000Y-125106500D03*
X89463000Y-125106500D03*
X93273000Y-125106500D03*
X97083000Y-125106500D03*
%TD*%
D18*
%TO.C,D4*%
X175514000Y-94640500D03*
X175514000Y-93065500D03*
%TD*%
D22*
%TO.C,R23*%
X166624000Y-62420000D03*
X166624000Y-60770000D03*
%TD*%
%TO.C,R22*%
X163703000Y-62420000D03*
X163703000Y-60770000D03*
%TD*%
D28*
%TO.C,R3*%
X153125000Y-108458000D03*
X154775000Y-108458000D03*
%TD*%
%TO.C,R7*%
X173699000Y-108458000D03*
X175349000Y-108458000D03*
%TD*%
%TO.C,R11*%
X155639000Y-89027000D03*
X157289000Y-89027000D03*
%TD*%
D19*
%TO.C,Q2*%
X155829000Y-122922000D03*
D20*
X153289000Y-111822000D03*
D21*
X155829000Y-111822000D03*
X158369000Y-111822000D03*
%TD*%
D29*
%TO.C,R2*%
X144869000Y-96901000D03*
X143219000Y-96901000D03*
%TD*%
%TO.C,R4*%
X155029000Y-96774000D03*
X153379000Y-96774000D03*
%TD*%
%TO.C,R6*%
X165380000Y-96774000D03*
X163730000Y-96774000D03*
%TD*%
D28*
%TO.C,R5*%
X163412000Y-108458000D03*
X165062000Y-108458000D03*
%TD*%
D22*
%TO.C,R13*%
X175514000Y-90614000D03*
X175514000Y-88964000D03*
%TD*%
D29*
%TO.C,R18*%
X214058000Y-65278000D03*
X212408000Y-65278000D03*
%TD*%
M02*
