M48
; DRILL file {KiCad (6.0.0)} date Mon Jan 24 17:43:41 2022
; FORMAT={-:-/ absolute / metric / decimal}
; #@! TF.CreationDate,2022-01-24T17:43:41-05:00
; #@! TF.GenerationSoftware,Kicad,Pcbnew,(6.0.0)
; #@! TF.FileFunction,Plated,1,2,PTH
FMAT,2
METRIC
; #@! TA.AperFunction,Plated,PTH,ViaDrill
T1C0.400
; #@! TA.AperFunction,Plated,PTH,ComponentDrill
T2C0.800
; #@! TA.AperFunction,Plated,PTH,ComponentDrill
T3C0.900
; #@! TA.AperFunction,Plated,PTH,ComponentDrill
T4C0.990
; #@! TA.AperFunction,Plated,PTH,ComponentDrill
T5C1.000
; #@! TA.AperFunction,Plated,PTH,ComponentDrill
T6C1.100
; #@! TA.AperFunction,Plated,PTH,ComponentDrill
T7C1.200
; #@! TA.AperFunction,Plated,PTH,ComponentDrill
T8C1.300
; #@! TA.AperFunction,Plated,PTH,ComponentDrill
T9C1.990
%
G90
G05
T1
X58.202Y-92.547
X58.928Y-93.472
X65.405Y-86.995
X67.31Y-87.249
X68.453Y-93.345
X73.025Y-69.215
X75.367Y-67.0
X77.907Y-67.0
X80.518Y-65.405
X85.527Y-76.906
X85.852Y-67.691
X86.741Y-76.073
X86.741Y-93.345
X88.067Y-67.635
X88.773Y-94.488
X90.551Y-75.565
X93.853Y-65.405
X95.687Y-71.43
X97.536Y-63.246
X97.663Y-68.326
X98.298Y-73.533
X98.425Y-96.901
X100.838Y-73.533
X103.314Y-74.358
X105.156Y-124.841
X105.791Y-68.834
X108.387Y-75.636
X109.601Y-94.361
X110.998Y-70.739
X110.998Y-78.74
X111.125Y-96.139
X114.808Y-75.057
X116.078Y-96.012
X120.904Y-125.222
X124.424Y-109.51
X124.424Y-120.94
X128.143Y-70.612
X128.143Y-90.805
X129.667Y-91.694
X129.794Y-71.501
X133.096Y-84.582
X133.096Y-93.345
X134.874Y-94.361
X134.938Y-70.421
X136.271Y-96.012
X136.525Y-70.993
X141.922Y-91.885
X142.088Y-95.783
X142.113Y-68.326
X142.621Y-57.15
X143.637Y-57.785
X143.637Y-82.804
X145.923Y-86.614
X149.733Y-96.012
X151.13Y-91.44
X155.855Y-94.208
X159.385Y-87.503
X159.766Y-72.136
X160.655Y-94.361
X161.163Y-82.042
X161.163Y-89.027
X161.777Y-95.525
X162.306Y-59.309
X162.687Y-73.406
X163.449Y-75.692
X163.449Y-84.074
X164.973Y-59.182
X164.973Y-80.264
X166.116Y-76.454
X166.116Y-85.471
X167.513Y-78.359
X167.513Y-85.979
X167.767Y-73.533
X168.085Y-60.77
X168.656Y-79.121
X168.656Y-86.233
X170.053Y-79.883
X170.053Y-91.44
X171.323Y-81.026
X171.323Y-91.313
X171.323Y-95.885
X173.863Y-87.122
X175.387Y-87.376
X176.657Y-82.804
X178.181Y-75.057
X178.181Y-94.996
X179.541Y-84.746
X179.578Y-93.599
X180.721Y-83.947
X180.721Y-92.329
X183.007Y-80.645
X185.166Y-66.04
X185.556Y-69.469
X185.801Y-68.199
X186.246Y-66.484
X186.563Y-62.738
X186.817Y-69.342
X187.706Y-63.627
X187.96Y-57.15
X188.341Y-82.804
X188.341Y-85.598
X188.468Y-56.261
X188.785Y-64.579
X189.293Y-67.754
X190.437Y-66.484
X193.738Y-80.454
X193.866Y-79.184
X193.992Y-72.834
X193.992Y-75.374
X194.119Y-77.914
X194.119Y-81.724
X194.373Y-74.104
X194.373Y-76.644
X194.374Y-71.564
X194.437Y-69.977
X194.691Y-67.437
X194.691Y-68.58
X194.818Y-66.294
X199.263Y-79.248
X199.39Y-86.995
X199.771Y-72.009
X200.343Y-81.724
X201.232Y-79.184
X201.676Y-93.091
X201.994Y-77.914
X202.438Y-93.853
X202.819Y-75.184
X203.454Y-68.326
X203.454Y-94.996
X203.898Y-76.644
X205.232Y-85.598
X205.994Y-100.838
X206.248Y-88.646
X206.82Y-79.184
X206.946Y-81.724
X206.947Y-77.914
X207.073Y-65.214
X207.327Y-63.944
X207.328Y-76.644
X207.455Y-75.374
X210.757Y-66.484
X210.757Y-67.754
X210.757Y-69.024
X210.757Y-70.294
X210.757Y-71.564
X210.757Y-72.834
X210.757Y-74.104
X211.265Y-65.214
X212.598Y-76.327
X212.979Y-81.915
X213.487Y-57.277
X214.001Y-77.858
X215.646Y-64.135
X216.535Y-70.231
X217.043Y-68.834
X218.122Y-67.754
T2
X143.155Y-98.806
X143.155Y-106.426
X145.695Y-98.806
X145.695Y-106.426
X148.235Y-98.806
X148.235Y-106.426
X153.315Y-98.806
X153.315Y-106.426
X155.855Y-98.806
X155.855Y-106.426
X158.395Y-98.806
X158.395Y-106.426
X163.475Y-98.806
X163.475Y-106.426
X166.015Y-98.806
X166.015Y-106.426
X168.555Y-98.806
X168.555Y-106.426
X173.635Y-98.806
X173.635Y-106.426
X176.175Y-98.806
X176.175Y-106.426
X178.715Y-98.806
X178.715Y-106.426
X186.309Y-121.14
X186.309Y-123.64
X207.449Y-111.252
X209.949Y-111.252
X213.106Y-94.586
X213.106Y-96.586
T3
X182.02Y-116.397
X183.72Y-113.767
X185.42Y-116.397
X187.12Y-113.767
X188.82Y-116.397
T4
X150.506Y-59.656
X155.006Y-59.656
T5
X64.643Y-68.707
X64.643Y-71.247
X64.643Y-73.787
X64.643Y-76.327
X72.827Y-84.45
X75.367Y-84.45
X77.907Y-84.45
X80.447Y-84.45
X82.987Y-84.45
X85.527Y-84.45
X88.067Y-84.45
X90.607Y-84.45
X93.147Y-84.45
X95.687Y-84.45
X98.227Y-84.45
X100.767Y-84.45
X103.307Y-84.45
X105.847Y-84.45
X108.387Y-84.45
X143.129Y-111.822
X145.669Y-111.822
X148.209Y-111.822
X153.289Y-111.822
X155.829Y-111.822
X158.369Y-111.822
X161.168Y-64.832
X161.168Y-67.372
X163.449Y-111.822
X163.708Y-64.832
X163.708Y-67.372
X165.989Y-111.822
X166.248Y-64.832
X166.248Y-67.372
X168.529Y-111.822
X168.788Y-64.832
X168.788Y-67.372
X171.328Y-64.832
X171.328Y-67.372
X173.609Y-111.822
X176.149Y-111.822
X178.689Y-64.897
X178.689Y-67.437
X178.689Y-111.822
X181.229Y-64.897
X181.229Y-67.437
X183.769Y-64.897
X183.769Y-67.437
X219.71Y-64.175
X219.71Y-70.93
X219.71Y-77.1
X219.71Y-83.27
X219.71Y-89.44
X219.71Y-95.61
X219.71Y-101.78
X219.71Y-107.95
X219.71Y-118.0
T6
X194.564Y-114.894
X199.644Y-114.894
T7
X70.413Y-125.106
X74.223Y-125.106
X78.033Y-125.106
X81.843Y-125.106
X85.653Y-125.106
X89.463Y-125.106
X93.273Y-125.106
X97.083Y-125.106
T8
X149.256Y-62.146
X156.266Y-62.146
T9
X56.267Y-99.865
X56.267Y-104.475
X56.267Y-109.085
X56.267Y-113.695
X63.437Y-99.865
X63.437Y-104.475
X63.437Y-109.085
X63.437Y-113.695
X67.417Y-99.865
X67.417Y-104.475
X67.417Y-109.085
X67.417Y-113.695
X74.587Y-99.865
X74.587Y-104.475
X74.587Y-109.085
X74.587Y-113.695
X86.557Y-99.865
X86.557Y-104.475
X86.557Y-109.085
X86.557Y-113.695
X93.727Y-99.865
X93.727Y-104.475
X93.727Y-109.085
X93.727Y-113.695
X112.267Y-99.865
X112.267Y-104.475
X112.267Y-109.085
X112.267Y-113.695
X119.437Y-99.865
X119.437Y-104.475
X119.437Y-109.085
X119.437Y-113.695
T0
M30
