%TF.GenerationSoftware,KiCad,Pcbnew,(6.0.0)*%
%TF.CreationDate,2022-01-24T17:43:35-05:00*%
%TF.ProjectId,TI thermostat esp32,54492074-6865-4726-9d6f-737461742065,rev?*%
%TF.SameCoordinates,Original*%
%TF.FileFunction,Soldermask,Top*%
%TF.FilePolarity,Negative*%
%FSLAX46Y46*%
G04 Gerber Fmt 4.6, Leading zero omitted, Abs format (unit mm)*
G04 Created by KiCad (PCBNEW (6.0.0)) date 2022-01-24 17:43:35*
%MOMM*%
%LPD*%
G01*
G04 APERTURE LIST*
G04 Aperture macros list*
%AMRoundRect*
0 Rectangle with rounded corners*
0 $1 Rounding radius*
0 $2 $3 $4 $5 $6 $7 $8 $9 X,Y pos of 4 corners*
0 Add a 4 corners polygon primitive as box body*
4,1,4,$2,$3,$4,$5,$6,$7,$8,$9,$2,$3,0*
0 Add four circle primitives for the rounded corners*
1,1,$1+$1,$2,$3*
1,1,$1+$1,$4,$5*
1,1,$1+$1,$6,$7*
1,1,$1+$1,$8,$9*
0 Add four rect primitives between the rounded corners*
20,1,$1+$1,$2,$3,$4,$5,0*
20,1,$1+$1,$4,$5,$6,$7,0*
20,1,$1+$1,$6,$7,$8,$9,0*
20,1,$1+$1,$8,$9,$2,$3,0*%
G04 Aperture macros list end*
%ADD10R,1.600000X1.600000*%
%ADD11C,1.600000*%
%ADD12R,1.700000X1.700000*%
%ADD13R,1.800000X2.500000*%
%ADD14RoundRect,0.137500X-0.862500X-0.137500X0.862500X-0.137500X0.862500X0.137500X-0.862500X0.137500X0*%
%ADD15RoundRect,0.200000X0.200000X0.275000X-0.200000X0.275000X-0.200000X-0.275000X0.200000X-0.275000X0*%
%ADD16RoundRect,0.200000X-0.275000X0.200000X-0.275000X-0.200000X0.275000X-0.200000X0.275000X0.200000X0*%
%ADD17C,3.220000*%
%ADD18O,1.700000X1.700000*%
%ADD19RoundRect,0.225000X-0.250000X0.225000X-0.250000X-0.225000X0.250000X-0.225000X0.250000X0.225000X0*%
%ADD20R,3.400000X5.100000*%
%ADD21C,3.660000*%
%ADD22RoundRect,0.150000X0.150000X-0.825000X0.150000X0.825000X-0.150000X0.825000X-0.150000X-0.825000X0*%
%ADD23RoundRect,0.218750X0.218750X0.256250X-0.218750X0.256250X-0.218750X-0.256250X0.218750X-0.256250X0*%
%ADD24RoundRect,0.225000X-0.225000X-0.250000X0.225000X-0.250000X0.225000X0.250000X-0.225000X0.250000X0*%
%ADD25RoundRect,0.225000X0.250000X-0.225000X0.250000X0.225000X-0.250000X0.225000X-0.250000X-0.225000X0*%
%ADD26R,1.500000X2.000000*%
%ADD27R,3.800000X2.000000*%
%ADD28RoundRect,0.225000X0.225000X0.250000X-0.225000X0.250000X-0.225000X-0.250000X0.225000X-0.250000X0*%
%ADD29RoundRect,0.200000X0.275000X-0.200000X0.275000X0.200000X-0.275000X0.200000X-0.275000X-0.200000X0*%
%ADD30RoundRect,0.200000X-0.200000X-0.275000X0.200000X-0.275000X0.200000X0.275000X-0.200000X0.275000X0*%
%ADD31C,2.100000*%
%ADD32C,1.750000*%
%ADD33RoundRect,0.150000X-0.825000X-0.150000X0.825000X-0.150000X0.825000X0.150000X-0.825000X0.150000X0*%
%ADD34O,3.200000X3.200000*%
%ADD35R,1.800000X1.800000*%
%ADD36O,1.800000X1.800000*%
%ADD37O,1.600000X1.600000*%
%ADD38O,1.408000X2.816000*%
%ADD39O,3.500000X3.500000*%
%ADD40R,2.000000X2.000000*%
%ADD41O,2.000000X2.000000*%
%ADD42RoundRect,0.250000X-0.650000X-1.550000X0.650000X-1.550000X0.650000X1.550000X-0.650000X1.550000X0*%
%ADD43O,1.800000X3.600000*%
G04 APERTURE END LIST*
D10*
%TO.C,C16*%
X186309000Y-121139606D03*
D11*
X186309000Y-123639606D03*
%TD*%
D12*
%TO.C,B1*%
X219710000Y-118000000D03*
%TD*%
%TO.C,B9*%
X219710000Y-64175000D03*
%TD*%
D13*
%TO.C,D9*%
X111153489Y-120939511D03*
X111153489Y-124939511D03*
%TD*%
D14*
%TO.C,U6*%
X82980000Y-64135000D03*
X82980000Y-65405000D03*
X82980000Y-66675000D03*
X82980000Y-67945000D03*
X82980000Y-69215000D03*
X82980000Y-70485000D03*
X82980000Y-71755000D03*
X82980000Y-73025000D03*
X82980000Y-74295000D03*
X82980000Y-75565000D03*
X82980000Y-76835000D03*
X82980000Y-78105000D03*
X92280000Y-78105000D03*
X92280000Y-76835000D03*
X92280000Y-75565000D03*
X92280000Y-74295000D03*
X92280000Y-73025000D03*
X92280000Y-71755000D03*
X92280000Y-70485000D03*
X92280000Y-69215000D03*
X92280000Y-67945000D03*
X92280000Y-66675000D03*
X92280000Y-65405000D03*
X92280000Y-64135000D03*
%TD*%
D15*
%TO.C,R24*%
X196532000Y-79248000D03*
X194882000Y-79248000D03*
%TD*%
D16*
%TO.C,R27*%
X192024000Y-121857000D03*
X192024000Y-123507000D03*
%TD*%
D17*
%TO.C,S3*%
X56267000Y-99865000D03*
X56267000Y-104475000D03*
X56267000Y-109085000D03*
X56267000Y-113695000D03*
X63437000Y-99865000D03*
X63437000Y-104475000D03*
X63437000Y-109085000D03*
X63437000Y-113695000D03*
%TD*%
D12*
%TO.C,J4*%
X161168000Y-67372000D03*
D18*
X161168000Y-64832000D03*
X163708000Y-67372000D03*
X163708000Y-64832000D03*
X166248000Y-67372000D03*
X166248000Y-64832000D03*
X168788000Y-67372000D03*
X168788000Y-64832000D03*
X171328000Y-67372000D03*
X171328000Y-64832000D03*
%TD*%
D12*
%TO.C,B6*%
X219710000Y-83270000D03*
%TD*%
D19*
%TO.C,C8*%
X83439000Y-105905000D03*
X83439000Y-107455000D03*
%TD*%
D13*
%TO.C,D7*%
X107470489Y-124939511D03*
X107470489Y-120939511D03*
%TD*%
D20*
%TO.C,L1*%
X192027000Y-100076000D03*
X201927000Y-100076000D03*
%TD*%
D12*
%TO.C,DS1*%
X72827000Y-84450000D03*
D18*
X75367000Y-84450000D03*
X77907000Y-84450000D03*
X80447000Y-84450000D03*
X82987000Y-84450000D03*
X85527000Y-84450000D03*
X88067000Y-84450000D03*
X90607000Y-84450000D03*
X93147000Y-84450000D03*
X95687000Y-84450000D03*
X98227000Y-84450000D03*
X100767000Y-84450000D03*
X103307000Y-84450000D03*
X105847000Y-84450000D03*
X108387000Y-84450000D03*
%TD*%
D10*
%TO.C,C5*%
X213106000Y-96586113D03*
D11*
X213106000Y-94586113D03*
%TD*%
D21*
%TO.C,REF4*%
X53257000Y-124360000D03*
%TD*%
D22*
%TO.C,U5*%
X164973000Y-93788000D03*
X166243000Y-93788000D03*
X167513000Y-93788000D03*
X168783000Y-93788000D03*
X170053000Y-93788000D03*
X171323000Y-93788000D03*
X172593000Y-93788000D03*
X172593000Y-88838000D03*
X171323000Y-88838000D03*
X170053000Y-88838000D03*
X168783000Y-88838000D03*
X167513000Y-88838000D03*
X166243000Y-88838000D03*
X164973000Y-88838000D03*
%TD*%
D15*
%TO.C,R26*%
X197167000Y-121412000D03*
X195517000Y-121412000D03*
%TD*%
D12*
%TO.C,B2*%
X219710000Y-107950000D03*
%TD*%
D23*
%TO.C,D5*%
X209296000Y-93472000D03*
X207721000Y-93472000D03*
%TD*%
D12*
%TO.C,B5*%
X219710000Y-89440000D03*
%TD*%
D24*
%TO.C,C9*%
X151879000Y-65151000D03*
X153429000Y-65151000D03*
%TD*%
D21*
%TO.C,REF3*%
X219767000Y-57740000D03*
%TD*%
D22*
%TO.C,U7*%
X145034000Y-93788000D03*
X146304000Y-93788000D03*
X147574000Y-93788000D03*
X148844000Y-93788000D03*
X150114000Y-93788000D03*
X151384000Y-93788000D03*
X152654000Y-93788000D03*
X152654000Y-88838000D03*
X151384000Y-88838000D03*
X150114000Y-88838000D03*
X148844000Y-88838000D03*
X147574000Y-88838000D03*
X146304000Y-88838000D03*
X145034000Y-88838000D03*
%TD*%
D13*
%TO.C,D8*%
X118519489Y-120939511D03*
X118519489Y-124939511D03*
%TD*%
D19*
%TO.C,C2*%
X102362000Y-70726000D03*
X102362000Y-72276000D03*
%TD*%
D25*
%TO.C,C1*%
X163449000Y-91961000D03*
X163449000Y-90411000D03*
%TD*%
D26*
%TO.C,U8*%
X205853000Y-104115000D03*
D27*
X208153000Y-97815000D03*
D26*
X208153000Y-104115000D03*
X210453000Y-104115000D03*
%TD*%
D12*
%TO.C,J5*%
X178689000Y-67437000D03*
D18*
X178689000Y-64897000D03*
X181229000Y-67437000D03*
X181229000Y-64897000D03*
X183769000Y-67437000D03*
X183769000Y-64897000D03*
%TD*%
D16*
%TO.C,R9*%
X104394000Y-70676000D03*
X104394000Y-72326000D03*
%TD*%
D17*
%TO.C,S1*%
X86557000Y-99865000D03*
X86557000Y-104475000D03*
X86557000Y-109085000D03*
X93727000Y-99865000D03*
X93727000Y-104475000D03*
X93727000Y-109085000D03*
X86557000Y-113695000D03*
X93727000Y-113695000D03*
%TD*%
D12*
%TO.C,J1*%
X64643000Y-68707000D03*
D18*
X64643000Y-71247000D03*
X64643000Y-73787000D03*
X64643000Y-76327000D03*
%TD*%
D21*
%TO.C,REF6*%
X219767000Y-124360000D03*
%TD*%
%TO.C,REF1*%
X53257000Y-57740000D03*
%TD*%
D28*
%TO.C,C15*%
X212865000Y-78994000D03*
X211315000Y-78994000D03*
%TD*%
D29*
%TO.C,R15*%
X205994000Y-95440000D03*
X205994000Y-93790000D03*
%TD*%
D30*
%TO.C,R25*%
X192342000Y-118618000D03*
X193992000Y-118618000D03*
%TD*%
D10*
%TO.C,C18*%
X209949395Y-111252000D03*
D11*
X207449395Y-111252000D03*
%TD*%
D31*
%TO.C,SW1*%
X156266000Y-62146500D03*
X149256000Y-62146500D03*
D32*
X150506000Y-59656500D03*
X155006000Y-59656500D03*
%TD*%
D15*
%TO.C,R14*%
X196532000Y-80772000D03*
X194882000Y-80772000D03*
%TD*%
D17*
%TO.C,S4*%
X112267000Y-99865000D03*
X112267000Y-104475000D03*
X112267000Y-109085000D03*
X112267000Y-113695000D03*
X119437000Y-99865000D03*
X119437000Y-104475000D03*
X119437000Y-109085000D03*
X119437000Y-113695000D03*
%TD*%
D24*
%TO.C,C11*%
X209537000Y-63500000D03*
X211087000Y-63500000D03*
%TD*%
D13*
%TO.C,D6*%
X114836489Y-124939511D03*
X114836489Y-120939511D03*
%TD*%
D12*
%TO.C,B3*%
X219710000Y-101780000D03*
%TD*%
%TO.C,B8*%
X219710000Y-70930000D03*
%TD*%
D17*
%TO.C,S2*%
X67417000Y-99865000D03*
X67417000Y-104475000D03*
X67417000Y-109085000D03*
X67417000Y-113695000D03*
X74587000Y-99865000D03*
X74587000Y-104475000D03*
X74587000Y-109085000D03*
X74587000Y-113695000D03*
%TD*%
D25*
%TO.C,C3*%
X143383000Y-91834000D03*
X143383000Y-90284000D03*
%TD*%
D12*
%TO.C,B4*%
X219710000Y-95610000D03*
%TD*%
D21*
%TO.C,REF2*%
X135857000Y-57740000D03*
%TD*%
D24*
%TO.C,C17*%
X195821000Y-118618000D03*
X197371000Y-118618000D03*
%TD*%
D12*
%TO.C,B7*%
X219710000Y-77100000D03*
%TD*%
D33*
%TO.C,U9*%
X209615000Y-80645000D03*
X209615000Y-81915000D03*
X209615000Y-83185000D03*
X209615000Y-84455000D03*
X209615000Y-85725000D03*
X209615000Y-86995000D03*
X209615000Y-88265000D03*
X209615000Y-89535000D03*
X214565000Y-89535000D03*
X214565000Y-88265000D03*
X214565000Y-86995000D03*
X214565000Y-85725000D03*
X214565000Y-84455000D03*
X214565000Y-83185000D03*
X214565000Y-81915000D03*
X214565000Y-80645000D03*
%TD*%
D21*
%TO.C,REF5*%
X135857000Y-124360000D03*
%TD*%
D25*
%TO.C,C10*%
X158496000Y-66942000D03*
X158496000Y-65392000D03*
%TD*%
D34*
%TO.C,Q4*%
X176149000Y-122922000D03*
D35*
X173609000Y-111822000D03*
D36*
X176149000Y-111822000D03*
X178689000Y-111822000D03*
%TD*%
D34*
%TO.C,Q1*%
X145669000Y-122922000D03*
D35*
X143129000Y-111822000D03*
D36*
X145669000Y-111822000D03*
X148209000Y-111822000D03*
%TD*%
D10*
%TO.C,U1*%
X143155000Y-98806000D03*
D37*
X145695000Y-98806000D03*
X148235000Y-98806000D03*
X148235000Y-106426000D03*
X145695000Y-106426000D03*
X143155000Y-106426000D03*
%TD*%
D38*
%TO.C,IC2*%
X188820000Y-116397000D03*
X187120000Y-113767000D03*
X185420000Y-116397000D03*
X183720000Y-113767000D03*
X182020000Y-116397000D03*
%TD*%
D10*
%TO.C,U4*%
X173635000Y-98806000D03*
D37*
X176175000Y-98806000D03*
X178715000Y-98806000D03*
X178715000Y-106426000D03*
X176175000Y-106426000D03*
X173635000Y-106426000D03*
%TD*%
D10*
%TO.C,U3*%
X163475000Y-98806000D03*
D37*
X166015000Y-98806000D03*
X168555000Y-98806000D03*
X168555000Y-106426000D03*
X166015000Y-106426000D03*
X163475000Y-106426000D03*
%TD*%
D10*
%TO.C,U2*%
X153315000Y-98806000D03*
D37*
X155855000Y-98806000D03*
X158395000Y-98806000D03*
X158395000Y-106426000D03*
X155855000Y-106426000D03*
X153315000Y-106426000D03*
%TD*%
D34*
%TO.C,Q3*%
X165989000Y-122922000D03*
D35*
X163449000Y-111822000D03*
D36*
X165989000Y-111822000D03*
X168529000Y-111822000D03*
%TD*%
D39*
%TO.C,D10*%
X197104000Y-98234000D03*
D40*
X194564000Y-114894000D03*
D41*
X199644000Y-114894000D03*
%TD*%
D42*
%TO.C,J6*%
X70413000Y-125106500D03*
D43*
X74223000Y-125106500D03*
X78033000Y-125106500D03*
X81843000Y-125106500D03*
X85653000Y-125106500D03*
X89463000Y-125106500D03*
X93273000Y-125106500D03*
X97083000Y-125106500D03*
%TD*%
D34*
%TO.C,Q2*%
X155829000Y-122922000D03*
D35*
X153289000Y-111822000D03*
D36*
X155829000Y-111822000D03*
X158369000Y-111822000D03*
%TD*%
M02*
