%TF.GenerationSoftware,KiCad,Pcbnew,(6.0.0)*%
%TF.CreationDate,2022-01-24T17:43:35-05:00*%
%TF.ProjectId,TI thermostat esp32,54492074-6865-4726-9d6f-737461742065,rev?*%
%TF.SameCoordinates,Original*%
%TF.FileFunction,Paste,Bot*%
%TF.FilePolarity,Positive*%
%FSLAX46Y46*%
G04 Gerber Fmt 4.6, Leading zero omitted, Abs format (unit mm)*
G04 Created by KiCad (PCBNEW (6.0.0)) date 2022-01-24 17:43:35*
%MOMM*%
%LPD*%
G01*
G04 APERTURE LIST*
G04 Aperture macros list*
%AMRoundRect*
0 Rectangle with rounded corners*
0 $1 Rounding radius*
0 $2 $3 $4 $5 $6 $7 $8 $9 X,Y pos of 4 corners*
0 Add a 4 corners polygon primitive as box body*
4,1,4,$2,$3,$4,$5,$6,$7,$8,$9,$2,$3,0*
0 Add four circle primitives for the rounded corners*
1,1,$1+$1,$2,$3*
1,1,$1+$1,$4,$5*
1,1,$1+$1,$6,$7*
1,1,$1+$1,$8,$9*
0 Add four rect primitives between the rounded corners*
20,1,$1+$1,$2,$3,$4,$5,0*
20,1,$1+$1,$4,$5,$6,$7,0*
20,1,$1+$1,$6,$7,$8,$9,0*
20,1,$1+$1,$8,$9,$2,$3,0*%
G04 Aperture macros list end*
%ADD10RoundRect,0.218750X0.256250X-0.218750X0.256250X0.218750X-0.256250X0.218750X-0.256250X-0.218750X0*%
%ADD11RoundRect,0.200000X0.275000X-0.200000X0.275000X0.200000X-0.275000X0.200000X-0.275000X-0.200000X0*%
%ADD12RoundRect,0.225000X-0.225000X-0.250000X0.225000X-0.250000X0.225000X0.250000X-0.225000X0.250000X0*%
%ADD13R,2.000000X0.900000*%
%ADD14R,1.330000X1.330000*%
%ADD15RoundRect,0.200000X-0.200000X-0.275000X0.200000X-0.275000X0.200000X0.275000X-0.200000X0.275000X0*%
%ADD16RoundRect,0.200000X0.200000X0.275000X-0.200000X0.275000X-0.200000X-0.275000X0.200000X-0.275000X0*%
G04 APERTURE END LIST*
D10*
%TO.C,D3*%
X159131000Y-94386500D03*
X159131000Y-92811500D03*
%TD*%
D11*
%TO.C,R12*%
X159131000Y-91376000D03*
X159131000Y-89726000D03*
%TD*%
D10*
%TO.C,D2*%
X155702000Y-92761000D03*
X155702000Y-91186000D03*
%TD*%
D12*
%TO.C,C14*%
X179184000Y-62230000D03*
X180734000Y-62230000D03*
%TD*%
D10*
%TO.C,D1*%
X143129000Y-95275500D03*
X143129000Y-93700500D03*
%TD*%
D13*
%TO.C,IC1*%
X209176000Y-62674000D03*
X209176000Y-63944000D03*
X209176000Y-65214000D03*
X209176000Y-66484000D03*
X209176000Y-67754000D03*
X209176000Y-69024000D03*
X209176000Y-70294000D03*
X209176000Y-71564000D03*
X209176000Y-72834000D03*
X209176000Y-74104000D03*
X209176000Y-75374000D03*
X209176000Y-76644000D03*
X209176000Y-77914000D03*
X209176000Y-79184000D03*
X209176000Y-80454000D03*
X209176000Y-81724000D03*
X209176000Y-82994000D03*
X209176000Y-84264000D03*
X209176000Y-85534000D03*
X192176000Y-85534000D03*
X192176000Y-84264000D03*
X192176000Y-82994000D03*
X192176000Y-81724000D03*
X192176000Y-80454000D03*
X192176000Y-79184000D03*
X192176000Y-77914000D03*
X192176000Y-76644000D03*
X192176000Y-75374000D03*
X192176000Y-74104000D03*
X192176000Y-72834000D03*
X192176000Y-71564000D03*
X192176000Y-70294000D03*
X192176000Y-69024000D03*
X192176000Y-67754000D03*
X192176000Y-66484000D03*
X192176000Y-65214000D03*
X192176000Y-63944000D03*
X192176000Y-62674000D03*
D14*
X201676000Y-70174000D03*
X203511000Y-68339000D03*
X203511000Y-70174000D03*
X203511000Y-72009000D03*
X201676000Y-72009000D03*
X199841000Y-72009000D03*
X199841000Y-70174000D03*
X199841000Y-68339000D03*
X201676000Y-68339000D03*
%TD*%
D11*
%TO.C,R10*%
X140462000Y-93535000D03*
X140462000Y-91885000D03*
%TD*%
D15*
%TO.C,R1*%
X142965000Y-108331000D03*
X144615000Y-108331000D03*
%TD*%
D11*
%TO.C,R20*%
X161036000Y-62420000D03*
X161036000Y-60770000D03*
%TD*%
D16*
%TO.C,R8*%
X175476000Y-96774000D03*
X173826000Y-96774000D03*
%TD*%
D10*
%TO.C,D4*%
X175514000Y-94640500D03*
X175514000Y-93065500D03*
%TD*%
D11*
%TO.C,R23*%
X166624000Y-62420000D03*
X166624000Y-60770000D03*
%TD*%
%TO.C,R22*%
X163703000Y-62420000D03*
X163703000Y-60770000D03*
%TD*%
D15*
%TO.C,R3*%
X153125000Y-108458000D03*
X154775000Y-108458000D03*
%TD*%
%TO.C,R7*%
X173699000Y-108458000D03*
X175349000Y-108458000D03*
%TD*%
%TO.C,R11*%
X155639000Y-89027000D03*
X157289000Y-89027000D03*
%TD*%
D16*
%TO.C,R2*%
X144869000Y-96901000D03*
X143219000Y-96901000D03*
%TD*%
%TO.C,R4*%
X155029000Y-96774000D03*
X153379000Y-96774000D03*
%TD*%
%TO.C,R6*%
X165380000Y-96774000D03*
X163730000Y-96774000D03*
%TD*%
D15*
%TO.C,R5*%
X163412000Y-108458000D03*
X165062000Y-108458000D03*
%TD*%
D11*
%TO.C,R13*%
X175514000Y-90614000D03*
X175514000Y-88964000D03*
%TD*%
D16*
%TO.C,R18*%
X214058000Y-65278000D03*
X212408000Y-65278000D03*
%TD*%
M02*
